Source-HROTd_VROTd.ufo
<glyph name="quotedbl" format="2">
  <advance width="518"/>
  <unicode hex="0022"/>
  <outline>
    <contour>
      <point x="140" y="444" type="line"/>
      <point x="140" y="618" type="line"/>
      <point x="156" y="618" type="line"/>
      <point x="156" y="444" type="line"/>
    </contour>
    <contour>
      <point x="194" y="392" type="line"/>
      <point x="143" y="438" type="line" smooth="yes"/>
      <point x="140" y="441"/>
      <point x="156" y="441"/>
      <point x="153" y="438" type="curve" smooth="yes"/>
      <point x="103" y="392" type="line"/>
      <point x="93" y="404" type="line"/>
      <point x="143" y="450" type="line" smooth="yes"/>
      <point x="146" y="453"/>
      <point x="150" y="453"/>
      <point x="153" y="450" type="curve" smooth="yes"/>
      <point x="204" y="404" type="line"/>
    </contour>
    <contour>
      <point x="69" y="686" type="line"/>
      <point x="153" y="624" type="line" smooth="yes"/>
      <point x="156" y="622"/>
      <point x="140" y="622"/>
      <point x="143" y="624" type="curve" smooth="yes"/>
      <point x="228" y="686" type="line"/>
      <point x="238" y="674" type="line"/>
      <point x="153" y="612" type="line" smooth="yes"/>
      <point x="150" y="609"/>
      <point x="146" y="609"/>
      <point x="143" y="612" type="curve" smooth="yes"/>
      <point x="59" y="674" type="line"/>
    </contour>
    <contour>
      <point x="361" y="444" type="line"/>
      <point x="361" y="618" type="line"/>
      <point x="377" y="618" type="line"/>
      <point x="377" y="444" type="line"/>
    </contour>
    <contour>
      <point x="415" y="392" type="line"/>
      <point x="364" y="438" type="line" smooth="yes"/>
      <point x="361" y="441"/>
      <point x="377" y="441"/>
      <point x="374" y="438" type="curve" smooth="yes"/>
      <point x="324" y="392" type="line"/>
      <point x="314" y="404" type="line"/>
      <point x="364" y="450" type="line" smooth="yes"/>
      <point x="367" y="453"/>
      <point x="371" y="453"/>
      <point x="374" y="450" type="curve" smooth="yes"/>
      <point x="425" y="404" type="line"/>
    </contour>
    <contour>
      <point x="290" y="686" type="line"/>
      <point x="374" y="624" type="line" smooth="yes"/>
      <point x="377" y="622"/>
      <point x="361" y="622"/>
      <point x="364" y="624" type="curve" smooth="yes"/>
      <point x="449" y="686" type="line"/>
      <point x="459" y="674" type="line"/>
      <point x="374" y="612" type="line" smooth="yes"/>
      <point x="371" y="609"/>
      <point x="367" y="609"/>
      <point x="364" y="612" type="curve" smooth="yes"/>
      <point x="280" y="674" type="line"/>
    </contour>
  </outline>
</glyph>
<glyph name="dollar" format="2">
  <advance width="540"/>
  <unicode hex="0024"/>
  <outline>
    <contour>
      <point x="119" y="110" type="line"/>
      <point x="163" y="95"/>
      <point x="209" y="88"/>
      <point x="252" y="88" type="curve"/>
      <point x="252" y="88"/>
      <point x="252" y="88"/>
      <point x="252" y="88" type="curve"/>
      <point x="355" y="88"/>
      <point x="422" y="126"/>
      <point x="422" y="202" type="curve"/>
      <point x="422" y="202"/>
      <point x="422" y="202"/>
      <point x="422" y="202" type="curve"/>
      <point x="422" y="270"/>
      <point x="346" y="302"/>
      <point x="275" y="333" type="curve"/>
      <point x="275" y="333"/>
      <point x="275" y="333"/>
      <point x="275" y="333" type="curve"/>
      <point x="195" y="368"/>
      <point x="118" y="403"/>
      <point x="118" y="480" type="curve"/>
      <point x="118" y="480"/>
      <point x="118" y="480"/>
      <point x="118" y="480" type="curve"/>
      <point x="118" y="559"/>
      <point x="191" y="606"/>
      <point x="285" y="606" type="curve"/>
      <point x="285" y="606"/>
      <point x="285" y="606"/>
      <point x="285" y="606" type="curve"/>
      <point x="336" y="606"/>
      <point x="377" y="599"/>
      <point x="417" y="586" type="curve"/>
      <point x="411" y="570" type="line"/>
      <point x="373" y="583"/>
      <point x="334" y="590"/>
      <point x="285" y="590" type="curve"/>
      <point x="285" y="590"/>
      <point x="285" y="590"/>
      <point x="285" y="590" type="curve"/>
      <point x="201" y="590"/>
      <point x="134" y="551"/>
      <point x="134" y="480" type="curve"/>
      <point x="134" y="480"/>
      <point x="134" y="480"/>
      <point x="134" y="480" type="curve"/>
      <point x="134" y="411"/>
      <point x="210" y="378"/>
      <point x="281" y="347" type="curve"/>
      <point x="281" y="347"/>
      <point x="281" y="347"/>
      <point x="281" y="347" type="curve"/>
      <point x="362" y="312"/>
      <point x="438" y="278"/>
      <point x="438" y="202" type="curve"/>
      <point x="438" y="202"/>
      <point x="438" y="202"/>
      <point x="438" y="202" type="curve"/>
      <point x="438" y="118"/>
      <point x="365" y="72"/>
      <point x="252" y="72" type="curve"/>
      <point x="252" y="72"/>
      <point x="252" y="72"/>
      <point x="252" y="72" type="curve"/>
      <point x="207" y="72"/>
      <point x="159" y="79"/>
      <point x="113" y="94" type="curve"/>
    </contour>
    <contour>
      <point x="277" y="599" type="line"/>
      <point x="284" y="709" type="line"/>
      <point x="300" y="707" type="line"/>
      <point x="293" y="597" type="line"/>
    </contour>
    <contour>
      <point x="236" y="-37" type="line"/>
      <point x="244" y="81" type="line"/>
      <point x="260" y="79" type="line"/>
      <point x="252" y="-39" type="line"/>
    </contour>
    <contour>
      <point x="481" y="628" type="line"/>
      <point x="419" y="572" type="line" smooth="yes"/>
      <point x="417" y="570"/>
      <point x="419" y="585"/>
      <point x="421" y="582" type="curve" smooth="yes"/>
      <point x="483" y="474" type="line"/>
      <point x="469" y="466" type="line"/>
      <point x="407" y="574" type="line" smooth="yes"/>
      <point x="405" y="577"/>
      <point x="406" y="581"/>
      <point x="409" y="584" type="curve" smooth="yes"/>
      <point x="471" y="640" type="line"/>
    </contour>
    <contour>
      <point x="49" y="51" type="line"/>
      <point x="111" y="108" type="line" smooth="yes"/>
      <point x="113" y="110"/>
      <point x="111" y="95"/>
      <point x="109" y="98" type="curve" smooth="yes"/>
      <point x="47" y="207" type="line"/>
      <point x="61" y="215" type="line"/>
      <point x="123" y="106" type="line" smooth="yes"/>
      <point x="125" y="103"/>
      <point x="124" y="99"/>
      <point x="121" y="96" type="curve" smooth="yes"/>
      <point x="59" y="39" type="line"/>
    </contour>
    <contour>
      <point x="238" y="776" type="line"/>
      <point x="298" y="714" type="line" smooth="yes"/>
      <point x="301" y="710"/>
      <point x="283" y="711"/>
      <point x="287" y="714" type="curve" smooth="yes"/>
      <point x="356" y="776" type="line"/>
      <point x="366" y="764" type="line"/>
      <point x="297" y="702" type="line" smooth="yes"/>
      <point x="294" y="699"/>
      <point x="289" y="699"/>
      <point x="286" y="702" type="curve" smooth="yes"/>
      <point x="226" y="764" type="line"/>
    </contour>
    <contour>
      <point x="298" y="-106" type="line"/>
      <point x="238" y="-44" type="line" smooth="yes"/>
      <point x="235" y="-40"/>
      <point x="253" y="-41"/>
      <point x="249" y="-44" type="curve" smooth="yes"/>
      <point x="180" y="-106" type="line"/>
      <point x="170" y="-94" type="line"/>
      <point x="239" y="-32" type="line" smooth="yes"/>
      <point x="242" y="-29"/>
      <point x="247" y="-29"/>
      <point x="250" y="-32" type="curve" smooth="yes"/>
      <point x="310" y="-94" type="line"/>
    </contour>
    <contour>
      <point x="231" y="659" type="line"/>
      <point x="290" y="604" type="line" smooth="yes"/>
      <point x="293" y="601"/>
      <point x="277" y="601"/>
      <point x="280" y="604" type="curve" smooth="yes"/>
      <point x="347" y="664" type="line"/>
      <point x="357" y="652" type="line"/>
      <point x="290" y="592" type="line" smooth="yes"/>
      <point x="287" y="589"/>
      <point x="283" y="589"/>
      <point x="280" y="592" type="curve" smooth="yes"/>
      <point x="221" y="647" type="line"/>
    </contour>
    <contour>
      <point x="304" y="15" type="line"/>
      <point x="246" y="74" type="line" smooth="yes"/>
      <point x="243" y="77"/>
      <point x="261" y="77"/>
      <point x="257" y="74" type="curve" smooth="yes"/>
      <point x="190" y="14" type="line"/>
      <point x="180" y="26" type="line"/>
      <point x="247" y="86" type="line" smooth="yes"/>
      <point x="250" y="89"/>
      <point x="255" y="89"/>
      <point x="258" y="86" type="curve" smooth="yes"/>
      <point x="316" y="27" type="line"/>
    </contour>
  </outline>
</glyph>
<glyph name="quotesingle" format="2">
  <advance width="297"/>
  <unicode hex="0027"/>
  <outline>
    <contour>
      <point x="140" y="444" type="line"/>
      <point x="140" y="618" type="line"/>
      <point x="156" y="618" type="line"/>
      <point x="156" y="444" type="line"/>
    </contour>
    <contour>
      <point x="194" y="392" type="line"/>
      <point x="143" y="438" type="line" smooth="yes"/>
      <point x="140" y="441"/>
      <point x="156" y="441"/>
      <point x="153" y="438" type="curve" smooth="yes"/>
      <point x="103" y="392" type="line"/>
      <point x="93" y="404" type="line"/>
      <point x="143" y="450" type="line" smooth="yes"/>
      <point x="146" y="453"/>
      <point x="150" y="453"/>
      <point x="153" y="450" type="curve" smooth="yes"/>
      <point x="204" y="404" type="line"/>
    </contour>
    <contour>
      <point x="69" y="686" type="line"/>
      <point x="153" y="624" type="line" smooth="yes"/>
      <point x="156" y="622"/>
      <point x="140" y="622"/>
      <point x="143" y="624" type="curve" smooth="yes"/>
      <point x="228" y="686" type="line"/>
      <point x="238" y="674" type="line"/>
      <point x="153" y="612" type="line" smooth="yes"/>
      <point x="150" y="609"/>
      <point x="146" y="609"/>
      <point x="143" y="612" type="curve" smooth="yes"/>
      <point x="59" y="674" type="line"/>
    </contour>
  </outline>
</glyph>
<glyph name="asterisk" format="2">
  <advance width="614"/>
  <unicode hex="002A"/>
  <outline>
    <contour>
      <point x="393" y="609" type="line"/>
      <point x="302" y="450" type="line" smooth="yes"/>
      <point x="302" y="450"/>
      <point x="302" y="450"/>
      <point x="302" y="450" type="curve" smooth="yes"/>
      <point x="209" y="291" type="line"/>
      <point x="195" y="299" type="line"/>
      <point x="288" y="458" type="line" smooth="yes"/>
      <point x="288" y="458"/>
      <point x="288" y="458"/>
      <point x="288" y="458" type="curve" smooth="yes"/>
      <point x="379" y="617" type="line"/>
    </contour>
    <contour>
      <point x="479" y="446" type="line"/>
      <point x="295" y="446" type="line"/>
      <point x="295" y="446"/>
      <point x="295" y="446"/>
      <point x="295" y="446" type="curve"/>
      <point x="111" y="446" type="line"/>
      <point x="111" y="462" type="line"/>
      <point x="295" y="462" type="line"/>
      <point x="295" y="462"/>
      <point x="295" y="462"/>
      <point x="295" y="462" type="curve"/>
      <point x="479" y="462" type="line"/>
    </contour>
    <contour>
      <point x="43" y="393" type="line"/>
      <point x="105" y="459" type="line" smooth="yes"/>
      <point x="108" y="463"/>
      <point x="108" y="445"/>
      <point x="105" y="449" type="curve" smooth="yes"/>
      <point x="43" y="515" type="line"/>
      <point x="55" y="525" type="line"/>
      <point x="117" y="459" type="line" smooth="yes"/>
      <point x="120" y="456"/>
      <point x="120" y="452"/>
      <point x="117" y="449" type="curve" smooth="yes"/>
      <point x="55" y="383" type="line"/>
    </contour>
    <contour>
      <point x="547" y="515" type="line"/>
      <point x="485" y="449" type="line" smooth="yes"/>
      <point x="482" y="445"/>
      <point x="482" y="463"/>
      <point x="485" y="459" type="curve" smooth="yes"/>
      <point x="547" y="393" type="line"/>
      <point x="535" y="383" type="line"/>
      <point x="473" y="449" type="line" smooth="yes"/>
      <point x="470" y="452"/>
      <point x="470" y="456"/>
      <point x="473" y="459" type="curve" smooth="yes"/>
      <point x="535" y="525" type="line"/>
    </contour>
    <contour>
      <point x="220" y="206" type="line"/>
      <point x="194" y="293" type="line" smooth="yes"/>
      <point x="193" y="297"/>
      <point x="208" y="288"/>
      <point x="204" y="287" type="curve" smooth="yes"/>
      <point x="116" y="266" type="line"/>
      <point x="112" y="282" type="line"/>
      <point x="200" y="303" type="line" smooth="yes"/>
      <point x="204" y="304"/>
      <point x="208" y="301"/>
      <point x="210" y="297" type="curve" smooth="yes"/>
      <point x="236" y="210" type="line"/>
    </contour>
    <contour>
      <point x="368" y="702" type="line"/>
      <point x="394" y="615" type="line" smooth="yes"/>
      <point x="395" y="611"/>
      <point x="380" y="620"/>
      <point x="384" y="621" type="curve" smooth="yes"/>
      <point x="472" y="642" type="line"/>
      <point x="476" y="626" type="line"/>
      <point x="388" y="605" type="line" smooth="yes"/>
      <point x="384" y="604"/>
      <point x="380" y="607"/>
      <point x="378" y="611" type="curve" smooth="yes"/>
      <point x="352" y="698" type="line"/>
    </contour>
    <contour>
      <point x="381" y="291" type="line"/>
      <point x="288" y="450" type="line" smooth="yes"/>
      <point x="288" y="450"/>
      <point x="288" y="450"/>
      <point x="288" y="450" type="curve" smooth="yes"/>
      <point x="197" y="609" type="line"/>
      <point x="211" y="617" type="line"/>
      <point x="302" y="458" type="line" smooth="yes"/>
      <point x="302" y="458"/>
      <point x="302" y="458"/>
      <point x="302" y="458" type="curve" smooth="yes"/>
      <point x="395" y="299" type="line"/>
    </contour>
    <contour>
      <point x="474" y="266" type="line"/>
      <point x="386" y="287" type="line" smooth="yes"/>
      <point x="382" y="288"/>
      <point x="397" y="297"/>
      <point x="396" y="293" type="curve" smooth="yes"/>
      <point x="370" y="206" type="line"/>
      <point x="354" y="210" type="line"/>
      <point x="380" y="297" type="line" smooth="yes"/>
      <point x="382" y="301"/>
      <point x="386" y="304"/>
      <point x="390" y="303" type="curve" smooth="yes"/>
      <point x="478" y="282" type="line"/>
    </contour>
    <contour>
      <point x="118" y="642" type="line"/>
      <point x="206" y="621" type="line" smooth="yes"/>
      <point x="210" y="620"/>
      <point x="195" y="611"/>
      <point x="196" y="615" type="curve" smooth="yes"/>
      <point x="222" y="702" type="line"/>
      <point x="238" y="698" type="line"/>
      <point x="212" y="611" type="line" smooth="yes"/>
      <point x="210" y="607"/>
      <point x="206" y="604"/>
      <point x="202" y="605" type="curve" smooth="yes"/>
      <point x="114" y="626" type="line"/>
    </contour>
    <contour>
      <point x="196" y="521" type="line"/>
      <point x="299" y="461" type="line" smooth="yes"/>
      <point x="299" y="461"/>
      <point x="299" y="461"/>
      <point x="299" y="461" type="curve" smooth="yes"/>
      <point x="404" y="401" type="line"/>
      <point x="396" y="387" type="line"/>
      <point x="291" y="447" type="line" smooth="yes"/>
      <point x="291" y="447"/>
      <point x="291" y="447"/>
      <point x="291" y="447" type="curve" smooth="yes"/>
      <point x="188" y="507" type="line"/>
    </contour>
    <contour>
      <point x="186" y="401" type="line"/>
      <point x="291" y="461" type="line" smooth="yes"/>
      <point x="291" y="461"/>
      <point x="291" y="461"/>
      <point x="291" y="461" type="curve" smooth="yes"/>
      <point x="394" y="521" type="line"/>
      <point x="402" y="507" type="line"/>
      <point x="299" y="447" type="line" smooth="yes"/>
      <point x="299" y="447"/>
      <point x="299" y="447"/>
      <point x="299" y="447" type="curve" smooth="yes"/>
      <point x="194" y="387" type="line"/>
    </contour>
    <contour>
      <point x="303" y="576" type="line"/>
      <point x="303" y="454" type="line"/>
      <point x="303" y="454"/>
      <point x="303" y="454"/>
      <point x="303" y="454" type="curve"/>
      <point x="303" y="336" type="line"/>
      <point x="287" y="336" type="line"/>
      <point x="287" y="454" type="line"/>
      <point x="287" y="454"/>
      <point x="287" y="454"/>
      <point x="287" y="454" type="curve"/>
      <point x="287" y="576" type="line"/>
    </contour>
  </outline>
</glyph>
<glyph name="plus" format="2">
  <advance width="540"/>
  <unicode hex="002B"/>
  <outline>
    <contour>
      <point x="438" y="302" type="line"/>
      <point x="102" y="302" type="line"/>
      <point x="102" y="318" type="line"/>
      <point x="438" y="318" type="line"/>
    </contour>
    <contour>
      <point x="276" y="482" type="line"/>
      <point x="276" y="136" type="line"/>
      <point x="260" y="136" type="line"/>
      <point x="260" y="482" type="line"/>
    </contour>
    <contour>
      <point x="34" y="253" type="line"/>
      <point x="96" y="316" type="line" smooth="yes"/>
      <point x="99" y="319"/>
      <point x="99" y="301"/>
      <point x="96" y="304" type="curve" smooth="yes"/>
      <point x="34" y="368" type="line"/>
      <point x="46" y="380" type="line"/>
      <point x="108" y="316" type="line" smooth="yes"/>
      <point x="111" y="312"/>
      <point x="111" y="307"/>
      <point x="108" y="304" type="curve" smooth="yes"/>
      <point x="46" y="241" type="line"/>
    </contour>
    <contour>
      <point x="506" y="368" type="line"/>
      <point x="444" y="304" type="line" smooth="yes"/>
      <point x="441" y="301"/>
      <point x="441" y="319"/>
      <point x="444" y="316" type="curve" smooth="yes"/>
      <point x="506" y="253" type="line"/>
      <point x="494" y="241" type="line"/>
      <point x="432" y="304" type="line" smooth="yes"/>
      <point x="429" y="307"/>
      <point x="429" y="312"/>
      <point x="432" y="316" type="curve" smooth="yes"/>
      <point x="494" y="380" type="line"/>
    </contour>
    <contour>
      <point x="209" y="550" type="line"/>
      <point x="274" y="488" type="line" smooth="yes"/>
      <point x="277" y="485"/>
      <point x="259" y="485"/>
      <point x="263" y="488" type="curve" smooth="yes"/>
      <point x="329" y="550" type="line"/>
      <point x="339" y="538" type="line"/>
      <point x="273" y="476" type="line" smooth="yes"/>
      <point x="270" y="473"/>
      <point x="266" y="473"/>
      <point x="262" y="476" type="curve" smooth="yes"/>
      <point x="197" y="538" type="line"/>
    </contour>
    <contour>
      <point x="329" y="68" type="line"/>
      <point x="263" y="130" type="line" smooth="yes"/>
      <point x="259" y="133"/>
      <point x="277" y="133"/>
      <point x="274" y="130" type="curve" smooth="yes"/>
      <point x="209" y="68" type="line"/>
      <point x="197" y="80" type="line"/>
      <point x="262" y="142" type="line" smooth="yes"/>
      <point x="266" y="145"/>
      <point x="270" y="145"/>
      <point x="273" y="142" type="curve" smooth="yes"/>
      <point x="339" y="80" type="line"/>
    </contour>
    <contour>
      <point x="197" y="253" type="line"/>
      <point x="262" y="316" type="line" smooth="yes"/>
      <point x="262" y="316"/>
      <point x="262" y="316"/>
      <point x="262" y="316" type="curve" smooth="yes"/>
      <point x="328" y="380" type="line"/>
      <point x="340" y="368" type="line"/>
      <point x="274" y="304" type="line" smooth="yes"/>
      <point x="274" y="304"/>
      <point x="274" y="304"/>
      <point x="274" y="304" type="curve" smooth="yes"/>
      <point x="209" y="241" type="line"/>
    </contour>
    <contour>
      <point x="209" y="380" type="line"/>
      <point x="274" y="316" type="line" smooth="yes"/>
      <point x="274" y="316"/>
      <point x="273" y="316"/>
      <point x="274" y="316" type="curve" smooth="yes"/>
      <point x="340" y="253" type="line"/>
      <point x="328" y="241" type="line"/>
      <point x="262" y="304" type="line" smooth="yes"/>
      <point x="262" y="304"/>
      <point x="262" y="304"/>
      <point x="262" y="304" type="curve" smooth="yes"/>
      <point x="197" y="368" type="line"/>
    </contour>
  </outline>
</glyph>
<glyph name="period" format="2">
  <advance width="271"/>
  <unicode hex="002E"/>
  <outline>
    <contour>
      <point x="61" y="167" type="line"/>
      <point x="141" y="87" type="line"/>
      <point x="141" y="87"/>
      <point x="141" y="87"/>
      <point x="141" y="87" type="curve"/>
      <point x="222" y="6" type="line"/>
      <point x="210" y="-6" type="line"/>
      <point x="129" y="75" type="line"/>
      <point x="129" y="75"/>
      <point x="129" y="75"/>
      <point x="129" y="75" type="curve"/>
      <point x="49" y="155" type="line"/>
    </contour>
    <contour>
      <point x="49" y="6" type="line"/>
      <point x="129" y="87" type="line" smooth="yes"/>
      <point x="129" y="87"/>
      <point x="129" y="87"/>
      <point x="129" y="87" type="curve" smooth="yes"/>
      <point x="210" y="167" type="line"/>
      <point x="222" y="155" type="line"/>
      <point x="141" y="75" type="line" smooth="yes"/>
      <point x="141" y="75"/>
      <point x="141" y="75"/>
      <point x="141" y="75" type="curve" smooth="yes"/>
      <point x="61" y="-6" type="line"/>
    </contour>
  </outline>
</glyph>
<glyph name="two" format="2">
  <advance width="519"/>
  <unicode hex="0032"/>
  <outline>
    <contour>
      <point x="109" y="617" type="line"/>
      <point x="147" y="629"/>
      <point x="186" y="636"/>
      <point x="224" y="636" type="curve"/>
      <point x="224" y="636"/>
      <point x="224" y="636"/>
      <point x="224" y="636" type="curve"/>
      <point x="335" y="636"/>
      <point x="402" y="582"/>
      <point x="402" y="494" type="curve"/>
      <point x="402" y="494"/>
      <point x="402" y="494"/>
      <point x="402" y="494" type="curve"/>
      <point x="402" y="415"/>
      <point x="352" y="359"/>
      <point x="292" y="297" type="curve" smooth="yes"/>
      <point x="292" y="297"/>
      <point x="292" y="297"/>
      <point x="292" y="297" type="curve" smooth="yes"/>
      <point x="230" y="235"/>
      <point x="158" y="167"/>
      <point x="121" y="62" type="curve" smooth="yes"/>
      <point x="119" y="57"/>
      <point x="108" y="73"/>
      <point x="114" y="73" type="curve" smooth="yes"/>
      <point x="173" y="69"/>
      <point x="311" y="71"/>
      <point x="396" y="78" type="curve"/>
      <point x="398" y="62" type="line"/>
      <point x="311" y="55"/>
      <point x="173" y="53"/>
      <point x="112" y="57" type="curve" smooth="yes"/>
      <point x="107" y="57"/>
      <point x="104" y="63"/>
      <point x="105" y="68" type="curve" smooth="yes"/>
      <point x="144" y="175"/>
      <point x="218" y="245"/>
      <point x="280" y="309" type="curve" smooth="yes"/>
      <point x="280" y="309"/>
      <point x="280" y="309"/>
      <point x="280" y="309" type="curve" smooth="yes"/>
      <point x="338" y="367"/>
      <point x="386" y="419"/>
      <point x="386" y="494" type="curve"/>
      <point x="386" y="494"/>
      <point x="386" y="494"/>
      <point x="386" y="494" type="curve"/>
      <point x="386" y="574"/>
      <point x="325" y="620"/>
      <point x="224" y="620" type="curve"/>
      <point x="224" y="620"/>
      <point x="224" y="620"/>
      <point x="224" y="620" type="curve"/>
      <point x="188" y="620"/>
      <point x="151" y="613"/>
      <point x="113" y="601" type="curve"/>
    </contour>
    <contour>
      <point x="42" y="504" type="line"/>
      <point x="104" y="613" type="line" smooth="yes"/>
      <point x="106" y="616"/>
      <point x="109" y="601"/>
      <point x="106" y="603" type="curve" smooth="yes"/>
      <point x="44" y="658" type="line"/>
      <point x="54" y="670" type="line"/>
      <point x="116" y="615" type="line" smooth="yes"/>
      <point x="119" y="612"/>
      <point x="120" y="608"/>
      <point x="118" y="605" type="curve" smooth="yes"/>
      <point x="56" y="496" type="line"/>
    </contour>
    <contour>
      <point x="485" y="161" type="line"/>
      <point x="403" y="65" type="line" smooth="yes"/>
      <point x="400" y="62"/>
      <point x="400" y="78"/>
      <point x="403" y="75" type="curve" smooth="yes"/>
      <point x="465" y="5" type="line"/>
      <point x="453" y="-5" type="line"/>
      <point x="391" y="65" type="line" smooth="yes"/>
      <point x="388" y="68"/>
      <point x="388" y="72"/>
      <point x="391" y="75" type="curve" smooth="yes"/>
      <point x="473" y="171" type="line"/>
    </contour>
    <contour>
      <point x="22" y="6" type="line"/>
      <point x="108" y="71" type="line" smooth="yes"/>
      <point x="108" y="72"/>
      <point x="109" y="72"/>
      <point x="109" y="72" type="curve" smooth="yes"/>
      <point x="210" y="132" type="line"/>
      <point x="218" y="118" type="line"/>
      <point x="117" y="58" type="line" smooth="yes"/>
      <point x="117" y="58"/>
      <point x="118" y="59"/>
      <point x="118" y="59" type="curve" smooth="yes"/>
      <point x="32" y="-6" type="line"/>
    </contour>
  </outline>
</glyph>
<glyph name="three" format="2">
  <advance width="523"/>
  <unicode hex="0033"/>
  <outline>
    <contour>
      <point x="128" y="616" type="line"/>
      <point x="192" y="622"/>
      <point x="270" y="625"/>
      <point x="380" y="625" type="curve" smooth="yes"/>
      <point x="386" y="625"/>
      <point x="390" y="618"/>
      <point x="387" y="612" type="curve" smooth="yes"/>
      <point x="213" y="361" type="line" smooth="yes"/>
      <point x="209" y="356"/>
      <point x="200" y="374"/>
      <point x="207" y="374" type="curve" smooth="yes"/>
      <point x="355" y="365"/>
      <point x="426" y="297"/>
      <point x="426" y="204" type="curve"/>
      <point x="426" y="204"/>
      <point x="426" y="204"/>
      <point x="426" y="204" type="curve"/>
      <point x="426" y="103"/>
      <point x="340" y="40"/>
      <point x="221" y="40" type="curve"/>
      <point x="221" y="40"/>
      <point x="221" y="40"/>
      <point x="221" y="40" type="curve"/>
      <point x="186" y="40"/>
      <point x="151" y="47"/>
      <point x="117" y="59" type="curve"/>
      <point x="123" y="75" type="line"/>
      <point x="155" y="63"/>
      <point x="188" y="56"/>
      <point x="221" y="56" type="curve"/>
      <point x="221" y="56"/>
      <point x="221" y="56"/>
      <point x="221" y="56" type="curve"/>
      <point x="330" y="56"/>
      <point x="410" y="111"/>
      <point x="410" y="204" type="curve"/>
      <point x="410" y="204"/>
      <point x="410" y="204"/>
      <point x="410" y="204" type="curve"/>
      <point x="410" y="291"/>
      <point x="343" y="349"/>
      <point x="205" y="358" type="curve" smooth="yes"/>
      <point x="199" y="358"/>
      <point x="196" y="365"/>
      <point x="199" y="371" type="curve" smooth="yes"/>
      <point x="373" y="622" type="line" smooth="yes"/>
      <point x="377" y="627"/>
      <point x="386" y="609"/>
      <point x="380" y="609" type="curve" smooth="yes"/>
      <point x="270" y="609"/>
      <point x="194" y="606"/>
      <point x="130" y="600" type="curve"/>
    </contour>
    <contour>
      <point x="61" y="529" type="line"/>
      <point x="123" y="613" type="line" smooth="yes"/>
      <point x="125" y="616"/>
      <point x="125" y="600"/>
      <point x="123" y="603" type="curve" smooth="yes"/>
      <point x="61" y="675" type="line"/>
      <point x="73" y="685" type="line"/>
      <point x="135" y="613" type="line" smooth="yes"/>
      <point x="137" y="610"/>
      <point x="138" y="606"/>
      <point x="135" y="603" type="curve" smooth="yes"/>
      <point x="73" y="519" type="line"/>
    </contour>
    <contour>
      <point x="53" y="20" type="line"/>
      <point x="115" y="73" type="line" smooth="yes"/>
      <point x="118" y="76"/>
      <point x="115" y="60"/>
      <point x="113" y="63" type="curve" smooth="yes"/>
      <point x="51" y="173" type="line"/>
      <point x="65" y="181" type="line"/>
      <point x="127" y="71" type="line" smooth="yes"/>
      <point x="129" y="68"/>
      <point x="128" y="63"/>
      <point x="125" y="61" type="curve" smooth="yes"/>
      <point x="63" y="8" type="line"/>
    </contour>
    <contour>
      <point x="259" y="560" type="line"/>
      <point x="376" y="624" type="line" smooth="yes"/>
      <point x="376" y="624"/>
      <point x="376" y="624"/>
      <point x="376" y="624" type="curve" smooth="yes"/>
      <point x="494" y="687" type="line"/>
      <point x="502" y="673" type="line"/>
      <point x="384" y="610" type="line" smooth="yes"/>
      <point x="384" y="610"/>
      <point x="384" y="610"/>
      <point x="384" y="610" type="curve" smooth="yes"/>
      <point x="267" y="546" type="line"/>
    </contour>
    <contour>
      <point x="91" y="319" type="line"/>
      <point x="203" y="373" type="line" smooth="yes"/>
      <point x="203" y="373"/>
      <point x="203" y="373"/>
      <point x="203" y="373" type="curve" smooth="yes"/>
      <point x="310" y="421" type="line"/>
      <point x="316" y="407" type="line"/>
      <point x="209" y="359" type="line" smooth="yes"/>
      <point x="209" y="359"/>
      <point x="210" y="359"/>
      <point x="209" y="359" type="curve" smooth="yes"/>
      <point x="97" y="305" type="line"/>
    </contour>
  </outline>
</glyph>
<glyph name="four" format="2">
  <advance width="579"/>
  <unicode hex="0034"/>
  <outline>
    <contour>
      <point x="482" y="-7" type="line"/>
      <point x="385" y="55" type="line" smooth="yes"/>
      <point x="382" y="57"/>
      <point x="396" y="57"/>
      <point x="393" y="55" type="curve" smooth="yes"/>
      <point x="296" y="-7" type="line"/>
      <point x="288" y="7" type="line"/>
      <point x="385" y="69" type="line" smooth="yes"/>
      <point x="387" y="70"/>
      <point x="391" y="70"/>
      <point x="393" y="69" type="curve" smooth="yes"/>
      <point x="490" y="7" type="line"/>
    </contour>
    <contour>
      <point x="492" y="204" type="line"/>
      <point x="95" y="204" type="line" smooth="yes"/>
      <point x="89" y="204"/>
      <point x="85" y="210"/>
      <point x="88" y="216" type="curve" smooth="yes"/>
      <point x="299" y="622" type="line" smooth="yes"/>
      <point x="300" y="624"/>
      <point x="303" y="626"/>
      <point x="306" y="626" type="curve" smooth="yes"/>
      <point x="389" y="626" type="line" smooth="yes"/>
      <point x="393" y="626"/>
      <point x="397" y="622"/>
      <point x="397" y="618" type="curve" smooth="yes"/>
      <point x="397" y="62" type="line"/>
      <point x="381" y="62" type="line"/>
      <point x="381" y="618" type="line" smooth="yes"/>
      <point x="381" y="622"/>
      <point x="393" y="610"/>
      <point x="389" y="610" type="curve" smooth="yes"/>
      <point x="306" y="610" type="line" smooth="yes"/>
      <point x="303" y="610"/>
      <point x="314" y="617"/>
      <point x="313" y="614" type="curve" smooth="yes"/>
      <point x="102" y="208" type="line" smooth="yes"/>
      <point x="99" y="203"/>
      <point x="89" y="220"/>
      <point x="95" y="220" type="curve" smooth="yes"/>
      <point x="492" y="220" type="line"/>
    </contour>
    <contour>
      <point x="280" y="684" type="line"/>
      <point x="313" y="622" type="line" smooth="yes"/>
      <point x="314" y="621"/>
      <point x="314" y="620"/>
      <point x="314" y="619" type="curve" smooth="yes"/>
      <point x="325" y="510" type="line" smooth="yes"/>
      <point x="326" y="502"/>
      <point x="306" y="507"/>
      <point x="310" y="513" type="curve" smooth="yes"/>
      <point x="382" y="622" type="line" smooth="yes"/>
      <point x="383" y="623"/>
      <point x="384" y="624"/>
      <point x="385" y="625" type="curve" smooth="yes"/>
      <point x="482" y="687" type="line"/>
      <point x="490" y="673" type="line"/>
      <point x="393" y="611" type="line" smooth="yes"/>
      <point x="392" y="611"/>
      <point x="396" y="615"/>
      <point x="396" y="614" type="curve" smooth="yes"/>
      <point x="324" y="505" type="line" smooth="yes"/>
      <point x="320" y="498"/>
      <point x="310" y="501"/>
      <point x="309" y="508" type="curve" smooth="yes"/>
      <point x="298" y="617" type="line" smooth="yes"/>
      <point x="298" y="618"/>
      <point x="299" y="613"/>
      <point x="299" y="614" type="curve" smooth="yes"/>
      <point x="266" y="676" type="line"/>
    </contour>
    <contour>
      <point x="-9" y="162" type="line"/>
      <point x="91" y="219" type="line"/>
      <point x="91" y="219"/>
      <point x="91" y="219"/>
      <point x="91" y="219" type="curve"/>
      <point x="191" y="276" type="line"/>
      <point x="199" y="262" type="line"/>
      <point x="99" y="205" type="line"/>
      <point x="99" y="205"/>
      <point x="99" y="205"/>
      <point x="99" y="205" type="curve"/>
      <point x="-1" y="148" type="line"/>
    </contour>
    <contour>
      <point x="560" y="286" type="line"/>
      <point x="498" y="207" type="line" smooth="yes"/>
      <point x="496" y="204"/>
      <point x="496" y="220"/>
      <point x="498" y="217" type="curve" smooth="yes"/>
      <point x="560" y="139" type="line"/>
      <point x="548" y="129" type="line"/>
      <point x="486" y="207" type="line" smooth="yes"/>
      <point x="483" y="210"/>
      <point x="483" y="214"/>
      <point x="486" y="217" type="curve" smooth="yes"/>
      <point x="548" y="296" type="line"/>
    </contour>
    <contour>
      <point x="324" y="275" type="line"/>
      <point x="394" y="218" type="line" smooth="yes"/>
      <point x="394" y="218"/>
      <point x="394" y="218"/>
      <point x="394" y="218" type="curve" smooth="yes"/>
      <point x="467" y="159" type="line"/>
      <point x="457" y="147" type="line"/>
      <point x="384" y="206" type="line" smooth="yes"/>
      <point x="384" y="206"/>
      <point x="384" y="206"/>
      <point x="384" y="206" type="curve" smooth="yes"/>
      <point x="314" y="263" type="line"/>
    </contour>
    <contour>
      <point x="311" y="161" type="line"/>
      <point x="384" y="218" type="line" smooth="yes"/>
      <point x="384" y="218"/>
      <point x="384" y="218"/>
      <point x="384" y="218" type="curve" smooth="yes"/>
      <point x="454" y="277" type="line"/>
      <point x="464" y="265" type="line"/>
      <point x="394" y="206" type="line" smooth="yes"/>
      <point x="394" y="206"/>
      <point x="394" y="206"/>
      <point x="394" y="206" type="curve" smooth="yes"/>
      <point x="321" y="149" type="line"/>
    </contour>
  </outline>
</glyph>
<glyph name="colon" format="2">
  <advance width="271"/>
  <unicode hex="003A"/>
  <outline>
    <contour>
      <point x="61" y="167" type="line"/>
      <point x="141" y="87" type="line"/>
      <point x="141" y="87"/>
      <point x="141" y="87"/>
      <point x="141" y="87" type="curve"/>
      <point x="222" y="6" type="line"/>
      <point x="210" y="-6" type="line"/>
      <point x="129" y="75" type="line"/>
      <point x="129" y="75"/>
      <point x="129" y="75"/>
      <point x="129" y="75" type="curve"/>
      <point x="49" y="155" type="line"/>
    </contour>
    <contour>
      <point x="49" y="6" type="line"/>
      <point x="129" y="87" type="line" smooth="yes"/>
      <point x="129" y="87"/>
      <point x="129" y="87"/>
      <point x="129" y="87" type="curve" smooth="yes"/>
      <point x="210" y="167" type="line"/>
      <point x="222" y="155" type="line"/>
      <point x="141" y="75" type="line" smooth="yes"/>
      <point x="141" y="75"/>
      <point x="141" y="75"/>
      <point x="141" y="75" type="curve" smooth="yes"/>
      <point x="61" y="-6" type="line"/>
    </contour>
    <contour>
      <point x="61" y="529" type="line"/>
      <point x="141" y="449" type="line"/>
      <point x="141" y="449"/>
      <point x="141" y="449"/>
      <point x="141" y="449" type="curve"/>
      <point x="222" y="368" type="line"/>
      <point x="210" y="356" type="line"/>
      <point x="129" y="437" type="line"/>
      <point x="129" y="437"/>
      <point x="129" y="437"/>
      <point x="129" y="437" type="curve"/>
      <point x="49" y="517" type="line"/>
    </contour>
    <contour>
      <point x="49" y="368" type="line"/>
      <point x="129" y="449" type="line" smooth="yes"/>
      <point x="129" y="449"/>
      <point x="129" y="449"/>
      <point x="129" y="449" type="curve" smooth="yes"/>
      <point x="210" y="529" type="line"/>
      <point x="222" y="517" type="line"/>
      <point x="141" y="437" type="line" smooth="yes"/>
      <point x="141" y="437"/>
      <point x="141" y="437"/>
      <point x="141" y="437" type="curve" smooth="yes"/>
      <point x="61" y="356" type="line"/>
    </contour>
  </outline>
</glyph>
<glyph name="A" format="2">
  <advance width="670"/>
  <unicode hex="0041"/>
  <anchor x="675" y="0" name="ogonek"/>
  <anchor x="334" y="0" name="below"/>
  <anchor x="334" y="680.0" name="above"/>
  <outline>
    <contour>
      <point x="105" y="73" type="line"/>
      <point x="154" y="211" type="line" smooth="yes"/>
      <point x="154" y="211"/>
      <point x="154" y="211"/>
      <point x="154" y="211" type="curve" smooth="yes"/>
      <point x="296" y="603" type="line" smooth="yes"/>
      <point x="298" y="606"/>
      <point x="301" y="608"/>
      <point x="304" y="608" type="curve" smooth="yes"/>
      <point x="360" y="608" type="line" smooth="yes"/>
      <point x="363" y="608"/>
      <point x="366" y="606"/>
      <point x="368" y="603" type="curve" smooth="yes"/>
      <point x="511" y="211" type="line" smooth="yes"/>
      <point x="511" y="211"/>
      <point x="511" y="211"/>
      <point x="511" y="211" type="curve" smooth="yes"/>
      <point x="558" y="73" type="line"/>
      <point x="542" y="67" type="line"/>
      <point x="495" y="205" type="line" smooth="yes"/>
      <point x="495" y="205"/>
      <point x="496" y="205"/>
      <point x="495" y="205" type="curve" smooth="yes"/>
      <point x="352" y="597" type="line" smooth="yes"/>
      <point x="351" y="600"/>
      <point x="363" y="592"/>
      <point x="360" y="592" type="curve" smooth="yes"/>
      <point x="304" y="592" type="line" smooth="yes"/>
      <point x="301" y="592"/>
      <point x="313" y="600"/>
      <point x="312" y="597" type="curve" smooth="yes"/>
      <point x="170" y="205" type="line" smooth="yes"/>
      <point x="170" y="205"/>
      <point x="170" y="205"/>
      <point x="170" y="205" type="curve" smooth="yes"/>
      <point x="121" y="67" type="line"/>
    </contour>
    <contour>
      <point x="503" y="200" type="line"/>
      <point x="162" y="200" type="line"/>
      <point x="162" y="216" type="line"/>
      <point x="503" y="216" type="line"/>
    </contour>
    <contour>
      <point x="265" y="684" type="line"/>
      <point x="311" y="604" type="line" smooth="yes"/>
      <point x="311" y="603"/>
      <point x="312" y="602"/>
      <point x="312" y="602" type="curve" smooth="yes"/>
      <point x="336" y="485" type="line" smooth="yes"/>
      <point x="338" y="476"/>
      <point x="318" y="477"/>
      <point x="320" y="485" type="curve" smooth="yes"/>
      <point x="352" y="602" type="line" smooth="yes"/>
      <point x="353" y="603"/>
      <point x="353" y="604"/>
      <point x="353" y="604" type="curve" smooth="yes"/>
      <point x="405" y="684" type="line"/>
      <point x="419" y="676" type="line"/>
      <point x="367" y="596" type="line" smooth="yes"/>
      <point x="366" y="595"/>
      <point x="368" y="599"/>
      <point x="368" y="598" type="curve" smooth="yes"/>
      <point x="336" y="481" type="line" smooth="yes"/>
      <point x="333" y="473"/>
      <point x="322" y="473"/>
      <point x="320" y="481" type="curve" smooth="yes"/>
      <point x="296" y="598" type="line" smooth="yes"/>
      <point x="296" y="599"/>
      <point x="297" y="595"/>
      <point x="297" y="596" type="curve" smooth="yes"/>
      <point x="251" y="676" type="line"/>
    </contour>
    <contour>
      <point x="256" y="264" type="line"/>
      <point x="167" y="201" type="line" smooth="yes"/>
      <point x="163" y="199"/>
      <point x="166" y="216"/>
      <point x="168" y="213" type="curve" smooth="yes"/>
      <point x="216" y="151" type="line"/>
      <point x="204" y="141" type="line"/>
      <point x="156" y="203" type="line" smooth="yes"/>
      <point x="153" y="207"/>
      <point x="154" y="212"/>
      <point x="157" y="215" type="curve" smooth="yes"/>
      <point x="246" y="278" type="line"/>
    </contour>
    <contour>
      <point x="409" y="278" type="line"/>
      <point x="507" y="215" type="line" smooth="yes"/>
      <point x="512" y="212"/>
      <point x="512" y="206"/>
      <point x="509" y="203" type="curve" smooth="yes"/>
      <point x="452" y="141" type="line"/>
      <point x="440" y="151" type="line"/>
      <point x="497" y="213" type="line" smooth="yes"/>
      <point x="500" y="217"/>
      <point x="503" y="199"/>
      <point x="499" y="201" type="curve" smooth="yes"/>
      <point x="401" y="264" type="line"/>
    </contour>
    <contour>
      <point x="195" y="-6" type="line"/>
      <point x="108" y="64" type="line" smooth="yes"/>
      <point x="105" y="66"/>
      <point x="120" y="65"/>
      <point x="117" y="63" type="curve" smooth="yes"/>
      <point x="-1" y="-7" type="line"/>
      <point x="-9" y="7" type="line"/>
      <point x="109" y="77" type="line" smooth="yes"/>
      <point x="112" y="79"/>
      <point x="115" y="78"/>
      <point x="118" y="76" type="curve" smooth="yes"/>
      <point x="205" y="6" type="line"/>
    </contour>
    <contour>
      <point x="671" y="-7" type="line"/>
      <point x="546" y="63" type="line" smooth="yes"/>
      <point x="543" y="65"/>
      <point x="557" y="65"/>
      <point x="555" y="64" type="curve" smooth="yes"/>
      <point x="461" y="-6" type="line"/>
      <point x="451" y="6" type="line"/>
      <point x="545" y="76" type="line" smooth="yes"/>
      <point x="548" y="78"/>
      <point x="551" y="79"/>
      <point x="554" y="77" type="curve" smooth="yes"/>
      <point x="679" y="7" type="line"/>
    </contour>
  </outline>
</glyph>
<glyph name="D" format="2">
  <advance width="691"/>
  <unicode hex="0044"/>
  <anchor x="304" y="1" name="below"/>
  <anchor x="314" y="680.0" name="above"/>
  <outline>
    <contour>
      <point x="164" y="62" type="line" smooth="yes"/>
      <point x="164" y="58"/>
      <point x="152" y="70"/>
      <point x="156" y="70" type="curve" smooth="yes"/>
      <point x="306" y="70" type="line"/>
      <point x="306" y="70"/>
      <point x="306" y="70"/>
      <point x="306" y="70" type="curve"/>
      <point x="463" y="70"/>
      <point x="570" y="177"/>
      <point x="570" y="341" type="curve"/>
      <point x="570" y="341"/>
      <point x="570" y="341"/>
      <point x="570" y="341" type="curve"/>
      <point x="570" y="504"/>
      <point x="463" y="610"/>
      <point x="306" y="610" type="curve"/>
      <point x="306" y="610"/>
      <point x="306" y="610"/>
      <point x="306" y="610" type="curve"/>
      <point x="156" y="610" type="line" smooth="yes"/>
      <point x="152" y="610"/>
      <point x="164" y="622"/>
      <point x="164" y="618" type="curve" smooth="yes"/>
    </contour>
    <contour>
      <point x="236" y="119" type="line"/>
      <point x="161" y="56" type="line" smooth="yes"/>
      <point x="161" y="56"/>
      <point x="161" y="55"/>
      <point x="160" y="55" type="curve" smooth="yes"/>
      <point x="61" y="-7" type="line"/>
      <point x="53" y="7" type="line"/>
      <point x="152" y="69" type="line" smooth="yes"/>
      <point x="152" y="69"/>
      <point x="151" y="68"/>
      <point x="151" y="68" type="curve" smooth="yes"/>
      <point x="226" y="131" type="line"/>
    </contour>
    <contour>
      <point x="61" y="687" type="line"/>
      <point x="160" y="625" type="line" smooth="yes"/>
      <point x="161" y="625"/>
      <point x="161" y="624"/>
      <point x="161" y="624" type="curve" smooth="yes"/>
      <point x="236" y="561" type="line"/>
      <point x="226" y="549" type="line"/>
      <point x="151" y="612" type="line" smooth="yes"/>
      <point x="151" y="612"/>
      <point x="152" y="611"/>
      <point x="152" y="611" type="curve" smooth="yes"/>
      <point x="53" y="673" type="line"/>
    </contour>
    <contour>
      <point x="148" y="62" type="curve" smooth="yes"/>
      <point x="148" y="618" type="line" smooth="yes"/>
      <point x="148" y="622"/>
      <point x="152" y="626"/>
      <point x="156" y="626" type="curve" smooth="yes"/>
      <point x="306" y="626" type="line"/>
      <point x="306" y="626"/>
      <point x="306" y="626"/>
      <point x="306" y="626" type="curve"/>
      <point x="471" y="626"/>
      <point x="586" y="514"/>
      <point x="586" y="341" type="curve"/>
      <point x="586" y="341"/>
      <point x="586" y="341"/>
      <point x="586" y="341" type="curve"/>
      <point x="586" y="167"/>
      <point x="471" y="54"/>
      <point x="306" y="54" type="curve"/>
      <point x="306" y="54"/>
      <point x="306" y="54"/>
      <point x="306" y="54" type="curve"/>
      <point x="156" y="54" type="line" smooth="yes"/>
      <point x="152" y="54"/>
      <point x="148" y="58"/>
    </contour>
  </outline>
</glyph>
<glyph name="E" format="2">
  <advance width="549"/>
  <unicode hex="0045"/>
  <anchor x="494" y="0" name="ogonek"/>
  <anchor x="276" y="0" name="below"/>
  <anchor x="276" y="680.0" name="above"/>
  <outline>
    <contour>
      <point x="413" y="603" type="line"/>
      <point x="343" y="608"/>
      <point x="225" y="612"/>
      <point x="156" y="610" type="curve" smooth="yes"/>
      <point x="152" y="610"/>
      <point x="164" y="622"/>
      <point x="164" y="618" type="curve" smooth="yes"/>
      <point x="164" y="62" type="line" smooth="yes"/>
      <point x="164" y="58"/>
      <point x="152" y="70"/>
      <point x="156" y="70" type="curve" smooth="yes"/>
      <point x="227" y="68"/>
      <point x="341" y="71"/>
      <point x="411" y="77" type="curve"/>
      <point x="413" y="61" type="line"/>
      <point x="341" y="55"/>
      <point x="227" y="52"/>
      <point x="156" y="54" type="curve" smooth="yes"/>
      <point x="151" y="54"/>
      <point x="148" y="58"/>
      <point x="148" y="62" type="curve" smooth="yes"/>
      <point x="148" y="618" type="line" smooth="yes"/>
      <point x="148" y="622"/>
      <point x="151" y="626"/>
      <point x="156" y="626" type="curve" smooth="yes"/>
      <point x="225" y="628"/>
      <point x="343" y="624"/>
      <point x="415" y="619" type="curve"/>
    </contour>
    <contour>
      <point x="387" y="342" type="line"/>
      <point x="156" y="342" type="line"/>
      <point x="156" y="358" type="line"/>
      <point x="387" y="358" type="line"/>
    </contour>
    <contour>
      <point x="236" y="119" type="line"/>
      <point x="161" y="56" type="line" smooth="yes"/>
      <point x="161" y="56"/>
      <point x="161" y="55"/>
      <point x="160" y="55" type="curve" smooth="yes"/>
      <point x="61" y="-7" type="line"/>
      <point x="53" y="7" type="line"/>
      <point x="152" y="69" type="line" smooth="yes"/>
      <point x="152" y="69"/>
      <point x="151" y="68"/>
      <point x="151" y="68" type="curve" smooth="yes"/>
      <point x="226" y="131" type="line"/>
    </contour>
    <contour>
      <point x="61" y="687" type="line"/>
      <point x="160" y="625" type="line" smooth="yes"/>
      <point x="161" y="625"/>
      <point x="161" y="624"/>
      <point x="161" y="624" type="curve" smooth="yes"/>
      <point x="236" y="561" type="line"/>
      <point x="226" y="549" type="line"/>
      <point x="151" y="612" type="line" smooth="yes"/>
      <point x="151" y="612"/>
      <point x="152" y="611"/>
      <point x="152" y="611" type="curve" smooth="yes"/>
      <point x="53" y="673" type="line"/>
    </contour>
    <contour>
      <point x="482" y="675" type="line"/>
      <point x="420" y="606" type="line" smooth="yes"/>
      <point x="417" y="603"/>
      <point x="418" y="619"/>
      <point x="421" y="616" type="curve" smooth="yes"/>
      <point x="483" y="529" type="line"/>
      <point x="469" y="519" type="line"/>
      <point x="407" y="606" type="line" smooth="yes"/>
      <point x="405" y="609"/>
      <point x="406" y="614"/>
      <point x="408" y="616" type="curve" smooth="yes"/>
      <point x="470" y="685" type="line"/>
    </contour>
    <contour>
      <point x="500" y="161" type="line"/>
      <point x="418" y="64" type="line" smooth="yes"/>
      <point x="416" y="61"/>
      <point x="415" y="77"/>
      <point x="418" y="74" type="curve" smooth="yes"/>
      <point x="480" y="5" type="line"/>
      <point x="468" y="-5" type="line"/>
      <point x="406" y="64" type="line" smooth="yes"/>
      <point x="403" y="67"/>
      <point x="403" y="71"/>
      <point x="406" y="74" type="curve" smooth="yes"/>
      <point x="488" y="171" type="line"/>
    </contour>
    <contour>
      <point x="455" y="427" type="line"/>
      <point x="393" y="345" type="line" smooth="yes"/>
      <point x="391" y="342"/>
      <point x="391" y="358"/>
      <point x="393" y="355" type="curve" smooth="yes"/>
      <point x="455" y="274" type="line"/>
      <point x="443" y="264" type="line"/>
      <point x="381" y="345" type="line" smooth="yes"/>
      <point x="378" y="348"/>
      <point x="378" y="352"/>
      <point x="381" y="355" type="curve" smooth="yes"/>
      <point x="443" y="437" type="line"/>
    </contour>
    <contour>
      <point x="232" y="404" type="line"/>
      <point x="161" y="344" type="line" smooth="yes"/>
      <point x="157" y="341"/>
      <point x="157" y="359"/>
      <point x="161" y="356" type="curve" smooth="yes"/>
      <point x="232" y="296" type="line"/>
      <point x="222" y="284" type="line"/>
      <point x="151" y="344" type="line" smooth="yes"/>
      <point x="147" y="347"/>
      <point x="147" y="353"/>
      <point x="151" y="356" type="curve" smooth="yes"/>
      <point x="222" y="416" type="line"/>
    </contour>
  </outline>
</glyph>
<glyph name="G" format="2">
  <advance width="670"/>
  <unicode hex="0047"/>
  <anchor x="363" y="-2" name="below"/>
  <anchor x="373" y="681.0" name="above"/>
  <outline>
    <contour>
      <point x="597" y="646" type="line"/>
      <point x="535" y="593" type="line" smooth="yes"/>
      <point x="532" y="590"/>
      <point x="535" y="606"/>
      <point x="537" y="603" type="curve" smooth="yes"/>
      <point x="599" y="488" type="line"/>
      <point x="585" y="480" type="line"/>
      <point x="523" y="595" type="line" smooth="yes"/>
      <point x="521" y="599"/>
      <point x="522" y="603"/>
      <point x="525" y="605" type="curve" smooth="yes"/>
      <point x="587" y="658" type="line"/>
    </contour>
    <contour>
      <point x="446" y="357" type="line"/>
      <point x="540" y="295" type="line" smooth="yes"/>
      <point x="543" y="293"/>
      <point x="529" y="292"/>
      <point x="531" y="294" type="curve" smooth="yes"/>
      <point x="615" y="356" type="line"/>
      <point x="625" y="344" type="line"/>
      <point x="541" y="282" type="line" smooth="yes"/>
      <point x="538" y="280"/>
      <point x="534" y="279"/>
      <point x="532" y="281" type="curve" smooth="yes"/>
      <point x="438" y="343" type="line"/>
    </contour>
    <contour>
      <point x="527" y="592" type="line"/>
      <point x="483" y="610"/>
      <point x="430" y="620"/>
      <point x="386" y="620" type="curve"/>
      <point x="386" y="620"/>
      <point x="386" y="620"/>
      <point x="386" y="620" type="curve"/>
      <point x="224" y="620"/>
      <point x="121" y="506"/>
      <point x="121" y="338" type="curve"/>
      <point x="121" y="338"/>
      <point x="121" y="338"/>
      <point x="121" y="338" type="curve"/>
      <point x="121" y="175"/>
      <point x="220" y="58"/>
      <point x="380" y="58" type="curve"/>
      <point x="380" y="58"/>
      <point x="380" y="58"/>
      <point x="380" y="58" type="curve"/>
      <point x="433" y="58"/>
      <point x="486" y="70"/>
      <point x="537" y="92" type="curve" smooth="yes"/>
      <point x="540" y="94"/>
      <point x="532" y="82"/>
      <point x="532" y="85" type="curve" smooth="yes"/>
      <point x="531" y="189"/>
      <point x="530" y="249"/>
      <point x="528" y="288" type="curve"/>
      <point x="544" y="288" type="line"/>
      <point x="546" y="249"/>
      <point x="547" y="189"/>
      <point x="548" y="85" type="curve" smooth="yes"/>
      <point x="548" y="82"/>
      <point x="546" y="79"/>
      <point x="543" y="78" type="curve" smooth="yes"/>
      <point x="490" y="54"/>
      <point x="435" y="42"/>
      <point x="380" y="42" type="curve"/>
      <point x="380" y="42"/>
      <point x="380" y="42"/>
      <point x="380" y="42" type="curve"/>
      <point x="212" y="42"/>
      <point x="105" y="165"/>
      <point x="105" y="338" type="curve"/>
      <point x="105" y="338"/>
      <point x="105" y="338"/>
      <point x="105" y="338" type="curve"/>
      <point x="105" y="516"/>
      <point x="216" y="636"/>
      <point x="386" y="636" type="curve"/>
      <point x="386" y="636"/>
      <point x="386" y="636"/>
      <point x="386" y="636" type="curve"/>
      <point x="432" y="636"/>
      <point x="487" y="626"/>
      <point x="533" y="606" type="curve"/>
    </contour>
    <contour>
      <point x="475" y="134" type="line"/>
      <point x="544" y="92" type="line" smooth="yes"/>
      <point x="544" y="92"/>
      <point x="544" y="92"/>
      <point x="544" y="92" type="curve" smooth="yes"/>
      <point x="612" y="47" type="line"/>
      <point x="604" y="33" type="line"/>
      <point x="536" y="78" type="line" smooth="yes"/>
      <point x="536" y="78"/>
      <point x="536" y="78"/>
      <point x="536" y="78" type="curve" smooth="yes"/>
      <point x="467" y="120" type="line"/>
    </contour>
  </outline>
</glyph>
<glyph name="I" format="2">
  <advance width="319"/>
  <unicode hex="0049"/>
  <anchor x="160" y="0" name="below"/>
  <anchor x="160" y="680.0" name="above"/>
  <outline>
    <contour>
      <point x="168" y="618" type="line"/>
      <point x="168" y="62" type="line"/>
      <point x="152" y="62" type="line"/>
      <point x="152" y="618" type="line"/>
    </contour>
    <contour>
      <point x="254" y="-7" type="line"/>
      <point x="156" y="55" type="line" smooth="yes"/>
      <point x="153" y="57"/>
      <point x="167" y="57"/>
      <point x="164" y="55" type="curve" smooth="yes"/>
      <point x="65" y="-7" type="line"/>
      <point x="57" y="7" type="line"/>
      <point x="156" y="69" type="line" smooth="yes"/>
      <point x="158" y="70"/>
      <point x="162" y="70"/>
      <point x="164" y="69" type="curve" smooth="yes"/>
      <point x="262" y="7" type="line"/>
    </contour>
    <contour>
      <point x="65" y="687" type="line"/>
      <point x="164" y="625" type="line" smooth="yes"/>
      <point x="167" y="623"/>
      <point x="153" y="623"/>
      <point x="156" y="625" type="curve" smooth="yes"/>
      <point x="254" y="687" type="line"/>
      <point x="262" y="673" type="line"/>
      <point x="164" y="611" type="line" smooth="yes"/>
      <point x="162" y="610"/>
      <point x="158" y="610"/>
      <point x="156" y="611" type="curve" smooth="yes"/>
      <point x="57" y="673" type="line"/>
    </contour>
  </outline>
</glyph>
<glyph name="J" format="2">
  <advance width="467"/>
  <unicode hex="004A"/>
  <outline>
    <contour>
      <point x="227" y="687" type="line"/>
      <point x="326" y="625" type="line" smooth="yes"/>
      <point x="329" y="623"/>
      <point x="315" y="623"/>
      <point x="318" y="625" type="curve" smooth="yes"/>
      <point x="416" y="687" type="line"/>
      <point x="424" y="673" type="line"/>
      <point x="326" y="611" type="line" smooth="yes"/>
      <point x="324" y="610"/>
      <point x="320" y="610"/>
      <point x="318" y="611" type="curve" smooth="yes"/>
      <point x="219" y="673" type="line"/>
    </contour>
    <contour>
      <point x="330" y="618" type="line"/>
      <point x="330" y="234" type="line"/>
      <point x="330" y="234"/>
      <point x="330" y="234"/>
      <point x="330" y="234" type="curve"/>
      <point x="330" y="119"/>
      <point x="266" y="47"/>
      <point x="159" y="46" type="curve" smooth="yes"/>
      <point x="159" y="46"/>
      <point x="159" y="46"/>
      <point x="159" y="46" type="curve" smooth="yes"/>
      <point x="134" y="46"/>
      <point x="107" y="51"/>
      <point x="79" y="60" type="curve"/>
      <point x="85" y="76" type="line"/>
      <point x="111" y="67"/>
      <point x="136" y="62"/>
      <point x="159" y="62" type="curve" smooth="yes"/>
      <point x="159" y="62"/>
      <point x="159" y="62"/>
      <point x="159" y="62" type="curve" smooth="yes"/>
      <point x="258" y="63"/>
      <point x="314" y="129"/>
      <point x="314" y="234" type="curve"/>
      <point x="314" y="234"/>
      <point x="314" y="234"/>
      <point x="314" y="234" type="curve"/>
      <point x="314" y="618" type="line"/>
    </contour>
    <contour>
      <point x="15" y="21" type="line"/>
      <point x="77" y="74" type="line" smooth="yes"/>
      <point x="80" y="77"/>
      <point x="77" y="61"/>
      <point x="75" y="64" type="curve" smooth="yes"/>
      <point x="13" y="182" type="line"/>
      <point x="27" y="190" type="line"/>
      <point x="89" y="72" type="line" smooth="yes"/>
      <point x="91" y="68"/>
      <point x="90" y="64"/>
      <point x="87" y="62" type="curve" smooth="yes"/>
      <point x="25" y="9" type="line"/>
    </contour>
  </outline>
</glyph>
<glyph name="K" format="2">
  <advance width="651"/>
  <unicode hex="004B"/>
  <anchor x="342" y="0" name="below"/>
  <anchor x="342" y="680.0" name="above"/>
  <outline>
    <contour>
      <point x="157" y="618" type="line"/>
      <point x="157" y="341" type="line"/>
      <point x="157" y="341"/>
      <point x="157" y="341"/>
      <point x="157" y="341" type="curve"/>
      <point x="157" y="62" type="line"/>
      <point x="141" y="62" type="line"/>
      <point x="141" y="341" type="line"/>
      <point x="141" y="341"/>
      <point x="141" y="341"/>
      <point x="141" y="341" type="curve"/>
      <point x="141" y="618" type="line"/>
    </contour>
    <contour>
      <point x="495" y="613" type="line"/>
      <point x="289" y="393" type="line" smooth="yes"/>
      <point x="289" y="393"/>
      <point x="289" y="393"/>
      <point x="289" y="393" type="curve" smooth="yes"/>
      <point x="243" y="344"/>
      <point x="215" y="336"/>
      <point x="149" y="333" type="curve" smooth="yes"/>
      <point x="139" y="333"/>
      <point x="138" y="348"/>
      <point x="149" y="349" type="curve" smooth="yes"/>
      <point x="215" y="352"/>
      <point x="245" y="343"/>
      <point x="283" y="301" type="curve" smooth="yes"/>
      <point x="283" y="301"/>
      <point x="283" y="301"/>
      <point x="283" y="301" type="curve" smooth="yes"/>
      <point x="495" y="67" type="line"/>
      <point x="483" y="57" type="line"/>
      <point x="271" y="291" type="line" smooth="yes"/>
      <point x="271" y="291"/>
      <point x="271" y="291"/>
      <point x="271" y="291" type="curve" smooth="yes"/>
      <point x="237" y="329"/>
      <point x="211" y="336"/>
      <point x="149" y="333" type="curve" smooth="yes"/>
      <point x="139" y="333"/>
      <point x="138" y="348"/>
      <point x="149" y="349" type="curve" smooth="yes"/>
      <point x="211" y="352"/>
      <point x="235" y="358"/>
      <point x="277" y="403" type="curve" smooth="yes"/>
      <point x="277" y="403"/>
      <point x="277" y="403"/>
      <point x="277" y="403" type="curve" smooth="yes"/>
      <point x="483" y="623" type="line"/>
    </contour>
    <contour>
      <point x="226" y="412" type="line"/>
      <point x="155" y="336" type="line" smooth="yes"/>
      <point x="152" y="333"/>
      <point x="152" y="349"/>
      <point x="155" y="346" type="curve" smooth="yes"/>
      <point x="226" y="266" type="line"/>
      <point x="214" y="256" type="line"/>
      <point x="143" y="336" type="line" smooth="yes"/>
      <point x="140" y="339"/>
      <point x="140" y="343"/>
      <point x="143" y="346" type="curve" smooth="yes"/>
      <point x="214" y="422" type="line"/>
    </contour>
    <contour>
      <point x="243" y="-7" type="line"/>
      <point x="145" y="55" type="line" smooth="yes"/>
      <point x="142" y="57"/>
      <point x="156" y="57"/>
      <point x="153" y="55" type="curve" smooth="yes"/>
      <point x="54" y="-7" type="line"/>
      <point x="46" y="7" type="line"/>
      <point x="145" y="69" type="line" smooth="yes"/>
      <point x="147" y="70"/>
      <point x="151" y="70"/>
      <point x="153" y="69" type="curve" smooth="yes"/>
      <point x="251" y="7" type="line"/>
    </contour>
    <contour>
      <point x="54" y="687" type="line"/>
      <point x="153" y="625" type="line" smooth="yes"/>
      <point x="156" y="623"/>
      <point x="142" y="623"/>
      <point x="145" y="625" type="curve" smooth="yes"/>
      <point x="243" y="687" type="line"/>
      <point x="251" y="673" type="line"/>
      <point x="153" y="611" type="line" smooth="yes"/>
      <point x="151" y="610"/>
      <point x="147" y="610"/>
      <point x="145" y="611" type="curve" smooth="yes"/>
      <point x="46" y="673" type="line"/>
    </contour>
    <contour>
      <point x="658" y="-8" type="line"/>
      <point x="486" y="54" type="line" smooth="yes"/>
      <point x="483" y="56"/>
      <point x="497" y="59"/>
      <point x="495" y="56" type="curve" smooth="yes"/>
      <point x="434" y="-6" type="line"/>
      <point x="422" y="6" type="line"/>
      <point x="483" y="68" type="line" smooth="yes"/>
      <point x="485" y="70"/>
      <point x="489" y="71"/>
      <point x="492" y="70" type="curve" smooth="yes"/>
      <point x="664" y="8" type="line"/>
    </contour>
    <contour>
      <point x="446" y="685" type="line"/>
      <point x="495" y="623" type="line" smooth="yes"/>
      <point x="497" y="620"/>
      <point x="483" y="624"/>
      <point x="486" y="625" type="curve" smooth="yes"/>
      <point x="650" y="687" type="line"/>
      <point x="656" y="673" type="line"/>
      <point x="492" y="611" type="line" smooth="yes"/>
      <point x="489" y="609"/>
      <point x="485" y="610"/>
      <point x="483" y="613" type="curve" smooth="yes"/>
      <point x="434" y="675" type="line"/>
    </contour>
    <contour>
      <point x="149" y="349" type="line"/>
      <point x="207" y="351"/>
      <point x="263" y="354"/>
      <point x="317" y="356" type="curve"/>
      <point x="317" y="340" type="line"/>
      <point x="259" y="338"/>
      <point x="203" y="335"/>
      <point x="149" y="333" type="curve"/>
    </contour>
  </outline>
</glyph>
<glyph name="L" format="2">
  <advance width="504"/>
  <unicode hex="004C"/>
  <anchor x="258" y="0" name="below"/>
  <anchor x="189" y="680.0" name="above"/>
  <anchor x="273" y="537" name="right"/>
  <outline>
    <contour>
      <point x="160" y="59" type="line"/>
      <point x="61" y="-7" type="line"/>
      <point x="53" y="7" type="line"/>
      <point x="152" y="73" type="line"/>
    </contour>
    <contour>
      <point x="236" y="126" type="line"/>
      <point x="161" y="60" type="line"/>
      <point x="151" y="72" type="line"/>
      <point x="226" y="138" type="line"/>
    </contour>
    <contour>
      <point x="61" y="687" type="line"/>
      <point x="160" y="625" type="line" smooth="yes"/>
      <point x="163" y="623"/>
      <point x="149" y="623"/>
      <point x="152" y="625" type="curve" smooth="yes"/>
      <point x="250" y="687" type="line"/>
      <point x="258" y="673" type="line"/>
      <point x="160" y="611" type="line" smooth="yes"/>
      <point x="158" y="610"/>
      <point x="154" y="610"/>
      <point x="152" y="611" type="curve" smooth="yes"/>
      <point x="53" y="673" type="line"/>
    </contour>
    <contour>
      <point x="453" y="-5" type="line"/>
      <point x="391" y="69" type="line" smooth="yes"/>
      <point x="388" y="72"/>
      <point x="388" y="76"/>
      <point x="391" y="79" type="curve" smooth="yes"/>
      <point x="473" y="176" type="line"/>
      <point x="485" y="166" type="line"/>
      <point x="403" y="69" type="line" smooth="yes"/>
      <point x="401" y="66"/>
      <point x="401" y="82"/>
      <point x="403" y="79" type="curve" smooth="yes"/>
      <point x="465" y="5" type="line"/>
    </contour>
    <contour>
      <point x="164" y="618" type="line"/>
      <point x="164" y="66" type="line" smooth="yes"/>
      <point x="164" y="61"/>
      <point x="151" y="74"/>
      <point x="156" y="74" type="curve" smooth="yes"/>
      <point x="397" y="82" type="line"/>
      <point x="397" y="66" type="line"/>
      <point x="156" y="58" type="line" smooth="yes"/>
      <point x="152" y="58"/>
      <point x="148" y="61"/>
      <point x="148" y="66" type="curve" smooth="yes"/>
      <point x="148" y="618" type="line"/>
    </contour>
  </outline>
</glyph>
<glyph name="M" format="2">
  <advance width="864"/>
  <unicode hex="004D"/>
  <anchor x="429" y="0" name="below"/>
  <anchor x="432" y="680.0" name="above"/>
  <outline>
    <contour>
      <point x="236" y="-7" type="line"/>
      <point x="144" y="55" type="line" smooth="yes"/>
      <point x="141" y="57"/>
      <point x="155" y="57"/>
      <point x="153" y="55" type="curve" smooth="yes"/>
      <point x="62" y="-7" type="line"/>
      <point x="52" y="7" type="line"/>
      <point x="143" y="69" type="line" smooth="yes"/>
      <point x="146" y="70"/>
      <point x="150" y="70"/>
      <point x="152" y="69" type="curve" smooth="yes"/>
      <point x="244" y="7" type="line"/>
    </contour>
    <contour>
      <point x="803" y="-7" type="line"/>
      <point x="709" y="55" type="line" smooth="yes"/>
      <point x="706" y="57"/>
      <point x="720" y="57"/>
      <point x="717" y="55" type="curve" smooth="yes"/>
      <point x="623" y="-7" type="line"/>
      <point x="615" y="7" type="line"/>
      <point x="709" y="69" type="line" smooth="yes"/>
      <point x="711" y="70"/>
      <point x="715" y="70"/>
      <point x="717" y="69" type="curve" smooth="yes"/>
      <point x="811" y="7" type="line"/>
    </contour>
    <contour>
      <point x="207" y="500" type="line"/>
      <point x="141" y="614" type="line" smooth="yes"/>
      <point x="140" y="615"/>
      <point x="144" y="611"/>
      <point x="143" y="611" type="curve" smooth="yes"/>
      <point x="52" y="673" type="line"/>
      <point x="62" y="687" type="line"/>
      <point x="153" y="625" type="line" smooth="yes"/>
      <point x="153" y="624"/>
      <point x="154" y="623"/>
      <point x="155" y="622" type="curve" smooth="yes"/>
      <point x="221" y="508" type="line"/>
    </contour>
    <contour>
      <point x="811" y="673" type="line"/>
      <point x="717" y="611" type="line" smooth="yes"/>
      <point x="716" y="611"/>
      <point x="720" y="615"/>
      <point x="720" y="614" type="curve" smooth="yes"/>
      <point x="652" y="505" type="line"/>
      <point x="638" y="513" type="line"/>
      <point x="706" y="622" type="line" smooth="yes"/>
      <point x="707" y="623"/>
      <point x="708" y="624"/>
      <point x="709" y="625" type="curve" smooth="yes"/>
      <point x="803" y="687" type="line"/>
    </contour>
    <contour>
      <point x="140" y="62" type="line"/>
      <point x="140" y="618" type="line" smooth="yes"/>
      <point x="140" y="622"/>
      <point x="144" y="626"/>
      <point x="148" y="626" type="curve" smooth="yes"/>
      <point x="245" y="626" type="line" smooth="yes"/>
      <point x="248" y="626"/>
      <point x="251" y="624"/>
      <point x="253" y="621" type="curve" smooth="yes"/>
      <point x="438" y="71" type="line" smooth="yes"/>
      <point x="440" y="63"/>
      <point x="420" y="63"/>
      <point x="422" y="71" type="curve" smooth="yes"/>
      <point x="612" y="621" type="line" smooth="yes"/>
      <point x="614" y="624"/>
      <point x="617" y="626"/>
      <point x="620" y="626" type="curve" smooth="yes"/>
      <point x="713" y="626" type="line" smooth="yes"/>
      <point x="717" y="626"/>
      <point x="721" y="622"/>
      <point x="721" y="618" type="curve" smooth="yes"/>
      <point x="721" y="62" type="line"/>
      <point x="705" y="62" type="line"/>
      <point x="705" y="618" type="line" smooth="yes"/>
      <point x="705" y="622"/>
      <point x="717" y="610"/>
      <point x="713" y="610" type="curve" smooth="yes"/>
      <point x="620" y="610" type="line" smooth="yes"/>
      <point x="617" y="610"/>
      <point x="629" y="619"/>
      <point x="628" y="615" type="curve" smooth="yes"/>
      <point x="438" y="65" type="line" smooth="yes"/>
      <point x="435" y="58"/>
      <point x="425" y="58"/>
      <point x="422" y="65" type="curve" smooth="yes"/>
      <point x="237" y="615" type="line" smooth="yes"/>
      <point x="236" y="619"/>
      <point x="248" y="610"/>
      <point x="245" y="610" type="curve" smooth="yes"/>
      <point x="148" y="610" type="line" smooth="yes"/>
      <point x="144" y="610"/>
      <point x="156" y="622"/>
      <point x="156" y="618" type="curve" smooth="yes"/>
      <point x="156" y="62" type="line"/>
    </contour>
    <contour>
      <point x="322" y="674" type="line"/>
      <point x="250" y="612" type="line" smooth="yes"/>
      <point x="249" y="611"/>
      <point x="253" y="617"/>
      <point x="253" y="616" type="curve" smooth="yes"/>
      <point x="222" y="502" type="line"/>
      <point x="206" y="506" type="line"/>
      <point x="237" y="620" type="line" smooth="yes"/>
      <point x="238" y="622"/>
      <point x="239" y="623"/>
      <point x="240" y="624" type="curve" smooth="yes"/>
      <point x="312" y="686" type="line"/>
    </contour>
    <contour>
      <point x="637" y="507" type="line"/>
      <point x="612" y="616" type="line" smooth="yes"/>
      <point x="612" y="618"/>
      <point x="616" y="611"/>
      <point x="614" y="612" type="curve" smooth="yes"/>
      <point x="550" y="674" type="line"/>
      <point x="562" y="686" type="line"/>
      <point x="626" y="624" type="line" smooth="yes"/>
      <point x="627" y="623"/>
      <point x="627" y="621"/>
      <point x="628" y="620" type="curve" smooth="yes"/>
      <point x="653" y="511" type="line"/>
    </contour>
    <contour>
      <point x="460" y="-4" type="line"/>
      <point x="423" y="64" type="line" smooth="yes"/>
      <point x="420" y="70"/>
      <point x="440" y="69"/>
      <point x="437" y="64" type="curve" smooth="yes"/>
      <point x="393" y="-4" type="line"/>
      <point x="379" y="4" type="line"/>
      <point x="423" y="72" type="line" smooth="yes"/>
      <point x="427" y="77"/>
      <point x="434" y="77"/>
      <point x="437" y="72" type="curve" smooth="yes"/>
      <point x="474" y="4" type="line"/>
    </contour>
    <contour>
      <point x="443" y="250" type="line"/>
      <point x="438" y="68" type="line"/>
      <point x="422" y="68" type="line"/>
      <point x="427" y="250" type="line"/>
    </contour>
  </outline>
</glyph>
<glyph name="R" format="2">
  <advance width="643"/>
  <unicode hex="0052"/>
  <anchor x="345" y="0" name="below"/>
  <anchor x="283" y="680" name="above"/>
  <outline>
    <contour>
      <point x="148" y="62" type="line"/>
      <point x="148" y="307" type="line"/>
      <point x="148" y="307"/>
      <point x="148" y="307"/>
      <point x="148" y="307" type="curve"/>
      <point x="148" y="618" type="line" smooth="yes"/>
      <point x="148" y="622"/>
      <point x="152" y="626"/>
      <point x="156" y="626" type="curve" smooth="yes"/>
      <point x="317" y="626" type="line"/>
      <point x="317" y="626"/>
      <point x="317" y="626"/>
      <point x="317" y="626" type="curve"/>
      <point x="426" y="626"/>
      <point x="492" y="560"/>
      <point x="492" y="462" type="curve"/>
      <point x="492" y="462"/>
      <point x="492" y="462"/>
      <point x="492" y="462" type="curve"/>
      <point x="492" y="374"/>
      <point x="435" y="310"/>
      <point x="353" y="299" type="curve" smooth="yes"/>
      <point x="353" y="299"/>
      <point x="352" y="299"/>
      <point x="352" y="299" type="curve" smooth="yes"/>
      <point x="156" y="299" type="line"/>
      <point x="156" y="315" type="line"/>
      <point x="352" y="315" type="line" smooth="yes"/>
      <point x="352" y="315"/>
      <point x="351" y="315"/>
      <point x="351" y="315" type="curve" smooth="yes"/>
      <point x="425" y="324"/>
      <point x="476" y="382"/>
      <point x="476" y="462" type="curve"/>
      <point x="476" y="462"/>
      <point x="476" y="462"/>
      <point x="476" y="462" type="curve"/>
      <point x="476" y="552"/>
      <point x="416" y="610"/>
      <point x="317" y="610" type="curve"/>
      <point x="317" y="610"/>
      <point x="317" y="610"/>
      <point x="317" y="610" type="curve"/>
      <point x="156" y="610" type="line" smooth="yes"/>
      <point x="152" y="610"/>
      <point x="164" y="622"/>
      <point x="164" y="618" type="curve" smooth="yes"/>
      <point x="164" y="307" type="line"/>
      <point x="164" y="307"/>
      <point x="164" y="307"/>
      <point x="164" y="307" type="curve"/>
      <point x="164" y="62" type="line"/>
    </contour>
    <contour>
      <point x="359" y="311" type="line"/>
      <point x="520" y="66" type="line"/>
      <point x="506" y="58" type="line"/>
      <point x="345" y="303" type="line"/>
    </contour>
    <contour>
      <point x="232" y="361" type="line"/>
      <point x="161" y="301" type="line" smooth="yes"/>
      <point x="157" y="298"/>
      <point x="157" y="316"/>
      <point x="161" y="313" type="curve" smooth="yes"/>
      <point x="233" y="253" type="line"/>
      <point x="223" y="241" type="line"/>
      <point x="151" y="301" type="line" smooth="yes"/>
      <point x="147" y="304"/>
      <point x="147" y="310"/>
      <point x="151" y="313" type="curve" smooth="yes"/>
      <point x="222" y="373" type="line"/>
    </contour>
    <contour>
      <point x="250" y="-7" type="line"/>
      <point x="152" y="55" type="line" smooth="yes"/>
      <point x="149" y="57"/>
      <point x="163" y="57"/>
      <point x="160" y="55" type="curve" smooth="yes"/>
      <point x="61" y="-7" type="line"/>
      <point x="53" y="7" type="line"/>
      <point x="152" y="69" type="line" smooth="yes"/>
      <point x="154" y="70"/>
      <point x="158" y="70"/>
      <point x="160" y="69" type="curve" smooth="yes"/>
      <point x="258" y="7" type="line"/>
    </contour>
    <contour>
      <point x="61" y="687" type="line"/>
      <point x="160" y="625" type="line" smooth="yes"/>
      <point x="161" y="625"/>
      <point x="161" y="624"/>
      <point x="161" y="624" type="curve" smooth="yes"/>
      <point x="236" y="561" type="line"/>
      <point x="226" y="549" type="line"/>
      <point x="151" y="612" type="line" smooth="yes"/>
      <point x="151" y="612"/>
      <point x="152" y="611"/>
      <point x="152" y="611" type="curve" smooth="yes"/>
      <point x="53" y="673" type="line"/>
    </contour>
    <contour>
      <point x="308" y="251" type="line"/>
      <point x="345" y="311" type="line" smooth="yes"/>
      <point x="347" y="314"/>
      <point x="351" y="316"/>
      <point x="354" y="315" type="curve" smooth="yes"/>
      <point x="455" y="285" type="line"/>
      <point x="451" y="269" type="line"/>
      <point x="350" y="299" type="line" smooth="yes"/>
      <point x="346" y="300"/>
      <point x="361" y="306"/>
      <point x="359" y="303" type="curve" smooth="yes"/>
      <point x="322" y="243" type="line"/>
    </contour>
    <contour>
      <point x="660" y="-7" type="line"/>
      <point x="510" y="55" type="line" smooth="yes"/>
      <point x="507" y="56"/>
      <point x="521" y="58"/>
      <point x="518" y="56" type="curve" smooth="yes"/>
      <point x="447" y="-6" type="line"/>
      <point x="437" y="6" type="line"/>
      <point x="508" y="68" type="line" smooth="yes"/>
      <point x="510" y="70"/>
      <point x="513" y="71"/>
      <point x="516" y="69" type="curve" smooth="yes"/>
      <point x="666" y="7" type="line"/>
    </contour>
  </outline>
</glyph>
<glyph name="T" format="2">
  <advance width="549"/>
  <unicode hex="0054"/>
  <anchor x="274" y="0" name="below"/>
  <anchor x="274" y="680.0" name="above"/>
  <outline>
    <contour>
      <point x="462" y="608" type="line"/>
      <point x="274" y="608" type="line"/>
      <point x="274" y="608"/>
      <point x="274" y="608"/>
      <point x="274" y="608" type="curve"/>
      <point x="87" y="608" type="line"/>
      <point x="87" y="624" type="line"/>
      <point x="274" y="624" type="line"/>
      <point x="274" y="624"/>
      <point x="274" y="624"/>
      <point x="274" y="624" type="curve"/>
      <point x="462" y="624" type="line"/>
    </contour>
    <contour>
      <point x="282" y="616" type="line"/>
      <point x="282" y="62" type="line"/>
      <point x="266" y="62" type="line"/>
      <point x="266" y="616" type="line"/>
    </contour>
    <contour>
      <point x="369" y="-7" type="line"/>
      <point x="270" y="55" type="line" smooth="yes"/>
      <point x="267" y="57"/>
      <point x="281" y="57"/>
      <point x="278" y="55" type="curve" smooth="yes"/>
      <point x="180" y="-7" type="line"/>
      <point x="172" y="7" type="line"/>
      <point x="270" y="69" type="line" smooth="yes"/>
      <point x="272" y="70"/>
      <point x="276" y="70"/>
      <point x="278" y="69" type="curve" smooth="yes"/>
      <point x="377" y="7" type="line"/>
    </contour>
    <contour>
      <point x="530" y="674" type="line"/>
      <point x="468" y="610" type="line" smooth="yes"/>
      <point x="465" y="608"/>
      <point x="467" y="624"/>
      <point x="469" y="620" type="curve" smooth="yes"/>
      <point x="531" y="528" type="line"/>
      <point x="517" y="520" type="line"/>
      <point x="455" y="612" type="line" smooth="yes"/>
      <point x="453" y="615"/>
      <point x="454" y="619"/>
      <point x="456" y="622" type="curve" smooth="yes"/>
      <point x="518" y="686" type="line"/>
    </contour>
    <contour>
      <point x="18" y="528" type="line"/>
      <point x="80" y="620" type="line" smooth="yes"/>
      <point x="82" y="624"/>
      <point x="84" y="608"/>
      <point x="81" y="610" type="curve" smooth="yes"/>
      <point x="19" y="674" type="line"/>
      <point x="31" y="686" type="line"/>
      <point x="93" y="622" type="line" smooth="yes"/>
      <point x="95" y="619"/>
      <point x="96" y="615"/>
      <point x="94" y="612" type="curve" smooth="yes"/>
      <point x="32" y="520" type="line"/>
    </contour>
    <contour>
      <point x="195" y="559" type="line"/>
      <point x="269" y="622" type="line" smooth="yes"/>
      <point x="272" y="625"/>
      <point x="276" y="625"/>
      <point x="279" y="622" type="curve" smooth="yes"/>
      <point x="354" y="559" type="line"/>
      <point x="344" y="547" type="line"/>
      <point x="269" y="610" type="line" smooth="yes"/>
      <point x="266" y="612"/>
      <point x="282" y="612"/>
      <point x="279" y="610" type="curve" smooth="yes"/>
      <point x="205" y="547" type="line"/>
    </contour>
  </outline>
</glyph>
<glyph name="W" format="2">
  <advance width="914"/>
  <unicode hex="0057"/>
  <anchor x="458" y="0" name="below"/>
  <anchor x="458" y="680.0" name="above"/>
  <outline>
    <contour>
      <point x="337" y="-5" type="line"/>
      <point x="286" y="67" type="line" smooth="yes"/>
      <point x="283" y="72"/>
      <point x="302" y="71"/>
      <point x="299" y="67" type="curve" smooth="yes"/>
      <point x="238" y="-5" type="line"/>
      <point x="226" y="5" type="line"/>
      <point x="287" y="77" type="line" smooth="yes"/>
      <point x="290" y="81"/>
      <point x="297" y="81"/>
      <point x="300" y="77" type="curve" smooth="yes"/>
      <point x="351" y="5" type="line"/>
    </contour>
    <contour>
      <point x="9" y="687" type="line"/>
      <point x="128" y="625" type="line" smooth="yes"/>
      <point x="130" y="624"/>
      <point x="117" y="623"/>
      <point x="120" y="625" type="curve" smooth="yes"/>
      <point x="220" y="687" type="line"/>
      <point x="228" y="673" type="line"/>
      <point x="128" y="611" type="line" smooth="yes"/>
      <point x="126" y="610"/>
      <point x="123" y="610"/>
      <point x="120" y="611" type="curve" smooth="yes"/>
      <point x="1" y="673" type="line"/>
    </contour>
    <contour>
      <point x="676" y="-5" type="line"/>
      <point x="619" y="67" type="line" smooth="yes"/>
      <point x="616" y="71"/>
      <point x="634" y="71"/>
      <point x="631" y="67" type="curve" smooth="yes"/>
      <point x="574" y="-5" type="line"/>
      <point x="562" y="5" type="line"/>
      <point x="619" y="77" type="line" smooth="yes"/>
      <point x="622" y="81"/>
      <point x="628" y="81"/>
      <point x="631" y="77" type="curve" smooth="yes"/>
      <point x="688" y="5" type="line"/>
    </contour>
    <contour>
      <point x="399" y="686" type="line"/>
      <point x="468" y="614" type="line" smooth="yes"/>
      <point x="471" y="610"/>
      <point x="453" y="611"/>
      <point x="456" y="614" type="curve" smooth="yes"/>
      <point x="531" y="686" type="line"/>
      <point x="543" y="674" type="line"/>
      <point x="468" y="602" type="line" smooth="yes"/>
      <point x="464" y="599"/>
      <point x="459" y="599"/>
      <point x="456" y="602" type="curve" smooth="yes"/>
      <point x="387" y="674" type="line"/>
    </contour>
    <contour>
      <point x="706" y="687" type="line"/>
      <point x="801" y="625" type="line" smooth="yes"/>
      <point x="804" y="623"/>
      <point x="791" y="624"/>
      <point x="793" y="625" type="curve" smooth="yes"/>
      <point x="905" y="687" type="line"/>
      <point x="913" y="673" type="line"/>
      <point x="801" y="611" type="line" smooth="yes"/>
      <point x="798" y="610"/>
      <point x="795" y="610"/>
      <point x="793" y="611" type="curve" smooth="yes"/>
      <point x="698" y="673" type="line"/>
    </contour>
    <contour>
      <point x="805" y="616" type="line"/>
      <point x="633" y="70" type="line" smooth="yes"/>
      <point x="630" y="62"/>
      <point x="620" y="62"/>
      <point x="617" y="70" type="curve" smooth="yes"/>
      <point x="454" y="606" type="line" smooth="yes"/>
      <point x="452" y="613"/>
      <point x="472" y="613"/>
      <point x="470" y="606" type="curve" smooth="yes"/>
      <point x="301" y="70" type="line" smooth="yes"/>
      <point x="298" y="62"/>
      <point x="288" y="62"/>
      <point x="285" y="70" type="curve" smooth="yes"/>
      <point x="116" y="616" type="line"/>
      <point x="132" y="620" type="line"/>
      <point x="301" y="74" type="line" smooth="yes"/>
      <point x="303" y="67"/>
      <point x="283" y="67"/>
      <point x="285" y="74" type="curve" smooth="yes"/>
      <point x="454" y="610" type="line" smooth="yes"/>
      <point x="457" y="618"/>
      <point x="467" y="618"/>
      <point x="470" y="610" type="curve" smooth="yes"/>
      <point x="633" y="74" type="line" smooth="yes"/>
      <point x="635" y="67"/>
      <point x="615" y="67"/>
      <point x="617" y="74" type="curve" smooth="yes"/>
      <point x="789" y="620" type="line"/>
    </contour>
    <contour>
      <point x="307" y="286" type="line"/>
      <point x="301" y="72" type="line"/>
      <point x="285" y="72" type="line"/>
      <point x="291" y="286" type="line"/>
    </contour>
    <contour>
      <point x="636" y="288" type="line"/>
      <point x="633" y="72" type="line"/>
      <point x="617" y="72" type="line"/>
      <point x="620" y="288" type="line"/>
    </contour>
    <contour>
      <point x="470" y="608" type="line"/>
      <point x="465" y="390" type="line"/>
      <point x="449" y="390" type="line"/>
      <point x="454" y="608" type="line"/>
    </contour>
  </outline>
</glyph>
<glyph name="bracketright" format="2">
  <advance width="457"/>
  <unicode hex="005D"/>
  <outline>
    <contour>
      <point x="20" y="822" type="line"/>
      <point x="81" y="772"/>
      <point x="173" y="740"/>
      <point x="273" y="734" type="curve" smooth="yes"/>
      <point x="278" y="734"/>
      <point x="281" y="730"/>
      <point x="281" y="726" type="curve" smooth="yes"/>
      <point x="281" y="-44" type="line" smooth="yes"/>
      <point x="281" y="-48"/>
      <point x="278" y="-52"/>
      <point x="273" y="-52" type="curve" smooth="yes"/>
      <point x="173" y="-58"/>
      <point x="81" y="-90"/>
      <point x="20" y="-140" type="curve"/>
      <point x="10" y="-128" type="line"/>
      <point x="73" y="-76"/>
      <point x="169" y="-42"/>
      <point x="273" y="-36" type="curve" smooth="yes"/>
      <point x="277" y="-36"/>
      <point x="265" y="-48"/>
      <point x="265" y="-44" type="curve" smooth="yes"/>
      <point x="265" y="726" type="line" smooth="yes"/>
      <point x="265" y="730"/>
      <point x="277" y="718"/>
      <point x="273" y="718" type="curve" smooth="yes"/>
      <point x="169" y="724"/>
      <point x="73" y="758"/>
      <point x="10" y="810" type="curve"/>
    </contour>
    <contour>
      <point x="367" y="-121" type="line"/>
      <point x="268" y="-51" type="line" smooth="yes"/>
      <point x="268" y="-50"/>
      <point x="268" y="-50"/>
      <point x="268" y="-50" type="curve" smooth="yes"/>
      <point x="193" y="12" type="line"/>
      <point x="203" y="24" type="line"/>
      <point x="278" y="-38" type="line" smooth="yes"/>
      <point x="278" y="-38"/>
      <point x="277" y="-37"/>
      <point x="278" y="-37" type="curve" smooth="yes"/>
      <point x="377" y="-107" type="line"/>
    </contour>
    <contour>
      <point x="193" y="670" type="line"/>
      <point x="268" y="732" type="line" smooth="yes"/>
      <point x="268" y="732"/>
      <point x="268" y="732"/>
      <point x="268" y="733" type="curve" smooth="yes"/>
      <point x="367" y="803" type="line"/>
      <point x="377" y="789" type="line"/>
      <point x="278" y="719" type="line" smooth="yes"/>
      <point x="277" y="719"/>
      <point x="278" y="720"/>
      <point x="278" y="720" type="curve" smooth="yes"/>
      <point x="203" y="658" type="line"/>
    </contour>
  </outline>
</glyph>
<glyph name="b" format="2">
  <advance width="534"/>
  <unicode hex="0062"/>
  <outline>
    <contour>
      <point x="146" y="50" type="line" smooth="yes"/>
      <point x="142" y="50"/>
      <point x="138" y="54"/>
      <point x="138" y="58" type="curve" smooth="yes"/>
      <point x="138" y="298" type="line"/>
      <point x="138" y="298"/>
      <point x="138" y="298"/>
      <point x="138" y="298" type="curve"/>
      <point x="138" y="522" type="line" smooth="yes"/>
      <point x="138" y="526"/>
      <point x="142" y="530"/>
      <point x="146" y="530" type="curve" smooth="yes"/>
      <point x="277" y="530" type="line"/>
      <point x="277" y="530"/>
      <point x="277" y="530"/>
      <point x="277" y="530" type="curve"/>
      <point x="365" y="530"/>
      <point x="420" y="482"/>
      <point x="420" y="413" type="curve"/>
      <point x="420" y="413"/>
      <point x="420" y="413"/>
      <point x="420" y="413" type="curve"/>
      <point x="420" y="338"/>
      <point x="359" y="290"/>
      <point x="270" y="290" type="curve" smooth="yes"/>
      <point x="259" y="290"/>
      <point x="259" y="306"/>
      <point x="270" y="306" type="curve" smooth="yes"/>
      <point x="372" y="306"/>
      <point x="440" y="255"/>
      <point x="440" y="176" type="curve"/>
      <point x="440" y="176"/>
      <point x="440" y="176"/>
      <point x="440" y="176" type="curve"/>
      <point x="440" y="102"/>
      <point x="380" y="50"/>
      <point x="294" y="50" type="curve"/>
      <point x="294" y="50"/>
      <point x="294" y="50"/>
      <point x="294" y="50" type="curve"/>
    </contour>
    <contour>
      <point x="146" y="66" type="curve" smooth="yes"/>
      <point x="294" y="66" type="line"/>
      <point x="294" y="66"/>
      <point x="294" y="66"/>
      <point x="294" y="66" type="curve"/>
      <point x="370" y="66"/>
      <point x="424" y="110"/>
      <point x="424" y="176" type="curve"/>
      <point x="424" y="176"/>
      <point x="424" y="176"/>
      <point x="424" y="176" type="curve"/>
      <point x="424" y="247"/>
      <point x="362" y="290"/>
      <point x="270" y="290" type="curve" smooth="yes"/>
      <point x="259" y="290"/>
      <point x="259" y="306"/>
      <point x="270" y="306" type="curve" smooth="yes"/>
      <point x="349" y="306"/>
      <point x="404" y="346"/>
      <point x="404" y="413" type="curve"/>
      <point x="404" y="413"/>
      <point x="404" y="413"/>
      <point x="404" y="413" type="curve"/>
      <point x="404" y="474"/>
      <point x="355" y="514"/>
      <point x="277" y="514" type="curve"/>
      <point x="277" y="514"/>
      <point x="277" y="514"/>
      <point x="277" y="514" type="curve"/>
      <point x="146" y="514" type="line" smooth="yes"/>
      <point x="142" y="514"/>
      <point x="154" y="526"/>
      <point x="154" y="522" type="curve" smooth="yes"/>
      <point x="154" y="298" type="line"/>
      <point x="154" y="298"/>
      <point x="154" y="298"/>
      <point x="154" y="298" type="curve"/>
      <point x="154" y="58" type="line" smooth="yes"/>
      <point x="154" y="54"/>
      <point x="142" y="66"/>
    </contour>
    <contour>
      <point x="223" y="110" type="line"/>
      <point x="151" y="52" type="line" smooth="yes"/>
      <point x="151" y="52"/>
      <point x="150" y="51"/>
      <point x="150" y="51" type="curve" smooth="yes"/>
      <point x="54" y="-7" type="line"/>
      <point x="46" y="7" type="line"/>
      <point x="142" y="65" type="line" smooth="yes"/>
      <point x="142" y="65"/>
      <point x="141" y="64"/>
      <point x="141" y="64" type="curve" smooth="yes"/>
      <point x="213" y="122" type="line"/>
    </contour>
    <contour>
      <point x="54" y="587" type="line"/>
      <point x="150" y="529" type="line" smooth="yes"/>
      <point x="150" y="529"/>
      <point x="151" y="528"/>
      <point x="151" y="528" type="curve" smooth="yes"/>
      <point x="223" y="470" type="line"/>
      <point x="213" y="458" type="line"/>
      <point x="141" y="516" type="line" smooth="yes"/>
      <point x="141" y="516"/>
      <point x="142" y="515"/>
      <point x="142" y="515" type="curve" smooth="yes"/>
      <point x="46" y="573" type="line"/>
    </contour>
    <contour>
      <point x="219" y="346" type="line"/>
      <point x="151" y="292" type="line" smooth="yes"/>
      <point x="147" y="289"/>
      <point x="147" y="307"/>
      <point x="151" y="304" type="curve" smooth="yes"/>
      <point x="219" y="249" type="line"/>
      <point x="209" y="237" type="line"/>
      <point x="141" y="292" type="line" smooth="yes"/>
      <point x="137" y="295"/>
      <point x="137" y="301"/>
      <point x="141" y="304" type="curve" smooth="yes"/>
      <point x="209" y="358" type="line"/>
    </contour>
    <contour>
      <point x="146" y="306" type="line"/>
      <point x="196" y="306"/>
      <point x="236" y="306"/>
      <point x="270" y="306" type="curve" smooth="yes"/>
      <point x="270" y="306"/>
      <point x="270" y="306"/>
      <point x="270" y="306" type="curve" smooth="yes"/>
      <point x="330" y="308"/>
      <point x="380" y="310"/>
      <point x="425" y="312" type="curve"/>
      <point x="425" y="296" type="line"/>
      <point x="365" y="294"/>
      <point x="315" y="292"/>
      <point x="270" y="290" type="curve" smooth="yes"/>
      <point x="270" y="290"/>
      <point x="270" y="290"/>
      <point x="270" y="290" type="curve" smooth="yes"/>
      <point x="220" y="290"/>
      <point x="180" y="290"/>
      <point x="146" y="290" type="curve"/>
    </contour>
  </outline>
</glyph>
<glyph name="c" format="2">
  <advance width="541"/>
  <unicode hex="0063"/>
  <anchor x="307" y="-3" name="below"/>
  <anchor x="307" y="583.0" name="above"/>
  <outline>
    <contour>
      <point x="421" y="502" type="line"/>
      <point x="391" y="514"/>
      <point x="357" y="523"/>
      <point x="322" y="523" type="curve"/>
      <point x="322" y="523"/>
      <point x="322" y="523"/>
      <point x="322" y="523" type="curve"/>
      <point x="194" y="523"/>
      <point x="110" y="429"/>
      <point x="110" y="289" type="curve"/>
      <point x="110" y="289"/>
      <point x="110" y="289"/>
      <point x="110" y="289" type="curve"/>
      <point x="110" y="149"/>
      <point x="194" y="58"/>
      <point x="322" y="58" type="curve"/>
      <point x="322" y="58"/>
      <point x="322" y="58"/>
      <point x="322" y="58" type="curve"/>
      <point x="358" y="58"/>
      <point x="391" y="66"/>
      <point x="421" y="77" type="curve"/>
      <point x="427" y="63" type="line"/>
      <point x="395" y="50"/>
      <point x="360" y="42"/>
      <point x="322" y="42" type="curve"/>
      <point x="322" y="42"/>
      <point x="322" y="42"/>
      <point x="322" y="42" type="curve"/>
      <point x="186" y="42"/>
      <point x="94" y="139"/>
      <point x="94" y="289" type="curve"/>
      <point x="94" y="289"/>
      <point x="94" y="289"/>
      <point x="94" y="289" type="curve"/>
      <point x="94" y="439"/>
      <point x="186" y="539"/>
      <point x="322" y="539" type="curve"/>
      <point x="322" y="539"/>
      <point x="322" y="539"/>
      <point x="322" y="539" type="curve"/>
      <point x="359" y="539"/>
      <point x="395" y="530"/>
      <point x="427" y="516" type="curve"/>
    </contour>
    <contour>
      <point x="491" y="552" type="line"/>
      <point x="429" y="503" type="line" smooth="yes"/>
      <point x="426" y="500"/>
      <point x="429" y="516"/>
      <point x="431" y="513" type="curve" smooth="yes"/>
      <point x="493" y="400" type="line"/>
      <point x="479" y="392" type="line"/>
      <point x="417" y="505" type="line" smooth="yes"/>
      <point x="415" y="509"/>
      <point x="416" y="513"/>
      <point x="419" y="515" type="curve" smooth="yes"/>
      <point x="481" y="564" type="line"/>
    </contour>
    <contour>
      <point x="493" y="180" type="line"/>
      <point x="431" y="66" type="line" smooth="yes"/>
      <point x="429" y="63"/>
      <point x="426" y="79"/>
      <point x="429" y="76" type="curve" smooth="yes"/>
      <point x="491" y="28" type="line"/>
      <point x="481" y="16" type="line"/>
      <point x="419" y="64" type="line" smooth="yes"/>
      <point x="416" y="66"/>
      <point x="415" y="70"/>
      <point x="417" y="74" type="curve" smooth="yes"/>
      <point x="479" y="188" type="line"/>
    </contour>
  </outline>
</glyph>
<glyph name="f" format="2">
  <advance width="463"/>
  <unicode hex="0066"/>
  <outline>
    <contour>
      <point x="138" y="62" type="line"/>
      <point x="138" y="282" type="line"/>
      <point x="138" y="282"/>
      <point x="138" y="282"/>
      <point x="138" y="282" type="curve"/>
      <point x="138" y="520" type="line" smooth="yes"/>
      <point x="138" y="524"/>
      <point x="142" y="528"/>
      <point x="146" y="528" type="curve" smooth="yes"/>
      <point x="219" y="529"/>
      <point x="304" y="526"/>
      <point x="362" y="522" type="curve"/>
      <point x="360" y="506" type="line"/>
      <point x="304" y="510"/>
      <point x="219" y="513"/>
      <point x="146" y="512" type="curve" smooth="yes"/>
      <point x="142" y="512"/>
      <point x="154" y="524"/>
      <point x="154" y="520" type="curve" smooth="yes"/>
      <point x="154" y="282" type="line"/>
      <point x="154" y="282"/>
      <point x="154" y="282"/>
      <point x="154" y="282" type="curve"/>
      <point x="154" y="62" type="line"/>
    </contour>
    <contour>
      <point x="334" y="274" type="line"/>
      <point x="146" y="274" type="line"/>
      <point x="146" y="290" type="line"/>
      <point x="334" y="290" type="line"/>
    </contour>
    <contour>
      <point x="429" y="575" type="line"/>
      <point x="367" y="509" type="line" smooth="yes"/>
      <point x="364" y="506"/>
      <point x="365" y="522"/>
      <point x="367" y="519" type="curve" smooth="yes"/>
      <point x="429" y="435" type="line"/>
      <point x="417" y="425" type="line"/>
      <point x="355" y="509" type="line" smooth="yes"/>
      <point x="352" y="512"/>
      <point x="353" y="517"/>
      <point x="355" y="519" type="curve" smooth="yes"/>
      <point x="417" y="585" type="line"/>
    </contour>
    <contour>
      <point x="402" y="355" type="line"/>
      <point x="340" y="277" type="line" smooth="yes"/>
      <point x="338" y="274"/>
      <point x="338" y="290"/>
      <point x="340" y="287" type="curve" smooth="yes"/>
      <point x="402" y="208" type="line"/>
      <point x="390" y="198" type="line"/>
      <point x="328" y="277" type="line" smooth="yes"/>
      <point x="325" y="280"/>
      <point x="325" y="284"/>
      <point x="328" y="287" type="curve" smooth="yes"/>
      <point x="390" y="365" type="line"/>
    </contour>
    <contour>
      <point x="54" y="587" type="line"/>
      <point x="150" y="527" type="line" smooth="yes"/>
      <point x="151" y="527"/>
      <point x="151" y="526"/>
      <point x="151" y="526" type="curve" smooth="yes"/>
      <point x="222" y="467" type="line"/>
      <point x="212" y="455" type="line"/>
      <point x="141" y="514" type="line" smooth="yes"/>
      <point x="141" y="514"/>
      <point x="142" y="513"/>
      <point x="142" y="513" type="curve" smooth="yes"/>
      <point x="46" y="573" type="line"/>
    </contour>
    <contour>
      <point x="219" y="332" type="line"/>
      <point x="151" y="276" type="line" smooth="yes"/>
      <point x="147" y="273"/>
      <point x="147" y="291"/>
      <point x="151" y="288" type="curve" smooth="yes"/>
      <point x="219" y="230" type="line"/>
      <point x="209" y="218" type="line"/>
      <point x="141" y="276" type="line" smooth="yes"/>
      <point x="137" y="279"/>
      <point x="137" y="285"/>
      <point x="141" y="288" type="curve" smooth="yes"/>
      <point x="209" y="344" type="line"/>
    </contour>
    <contour>
      <point x="237" y="-7" type="line"/>
      <point x="142" y="55" type="line" smooth="yes"/>
      <point x="139" y="57"/>
      <point x="153" y="57"/>
      <point x="150" y="55" type="curve" smooth="yes"/>
      <point x="54" y="-7" type="line"/>
      <point x="46" y="7" type="line"/>
      <point x="142" y="69" type="line" smooth="yes"/>
      <point x="144" y="70"/>
      <point x="148" y="70"/>
      <point x="150" y="69" type="curve" smooth="yes"/>
      <point x="245" y="7" type="line"/>
    </contour>
  </outline>
</glyph>
<glyph name="g" format="2">
  <advance width="592"/>
  <unicode hex="0067"/>
  <anchor x="326" y="-2" name="below"/>
  <anchor x="326" y="581.0" name="above"/>
  <outline>
    <contour>
      <point x="452" y="497" type="line"/>
      <point x="415" y="513"/>
      <point x="377" y="524"/>
      <point x="335" y="524" type="curve"/>
      <point x="335" y="524"/>
      <point x="335" y="524"/>
      <point x="335" y="524" type="curve"/>
      <point x="200" y="524"/>
      <point x="110" y="428"/>
      <point x="110" y="288" type="curve"/>
      <point x="110" y="288"/>
      <point x="110" y="288"/>
      <point x="110" y="288" type="curve"/>
      <point x="110" y="150"/>
      <point x="196" y="54"/>
      <point x="333" y="54" type="curve"/>
      <point x="333" y="54"/>
      <point x="333" y="54"/>
      <point x="333" y="54" type="curve"/>
      <point x="379" y="54"/>
      <point x="422" y="68"/>
      <point x="464" y="89" type="curve" smooth="yes"/>
      <point x="467" y="91"/>
      <point x="460" y="79"/>
      <point x="460" y="82" type="curve" smooth="yes"/>
      <point x="459" y="159"/>
      <point x="458" y="206"/>
      <point x="457" y="238" type="curve"/>
      <point x="473" y="238" type="line"/>
      <point x="474" y="206"/>
      <point x="475" y="159"/>
      <point x="476" y="82" type="curve" smooth="yes"/>
      <point x="476" y="79"/>
      <point x="474" y="76"/>
      <point x="472" y="75" type="curve" smooth="yes"/>
      <point x="426" y="52"/>
      <point x="381" y="38"/>
      <point x="333" y="38" type="curve"/>
      <point x="333" y="38"/>
      <point x="333" y="38"/>
      <point x="333" y="38" type="curve"/>
      <point x="188" y="38"/>
      <point x="94" y="142"/>
      <point x="94" y="288" type="curve"/>
      <point x="94" y="288"/>
      <point x="94" y="288"/>
      <point x="94" y="288" type="curve"/>
      <point x="94" y="438"/>
      <point x="192" y="540"/>
      <point x="335" y="540" type="curve"/>
      <point x="335" y="540"/>
      <point x="335" y="540"/>
      <point x="335" y="540" type="curve"/>
      <point x="379" y="540"/>
      <point x="419" y="529"/>
      <point x="458" y="511" type="curve"/>
    </contour>
    <contour>
      <point x="522" y="547" type="line"/>
      <point x="460" y="498" type="line" smooth="yes"/>
      <point x="457" y="495"/>
      <point x="460" y="511"/>
      <point x="462" y="508" type="curve" smooth="yes"/>
      <point x="524" y="394" type="line"/>
      <point x="510" y="386" type="line"/>
      <point x="448" y="500" type="line" smooth="yes"/>
      <point x="446" y="504"/>
      <point x="447" y="508"/>
      <point x="450" y="510" type="curve" smooth="yes"/>
      <point x="512" y="559" type="line"/>
    </contour>
    <contour>
      <point x="377" y="307" type="line"/>
      <point x="469" y="245" type="line" smooth="yes"/>
      <point x="472" y="243"/>
      <point x="457" y="242"/>
      <point x="460" y="244" type="curve" smooth="yes"/>
      <point x="540" y="306" type="line"/>
      <point x="550" y="294" type="line"/>
      <point x="470" y="232" type="line" smooth="yes"/>
      <point x="467" y="230"/>
      <point x="463" y="229"/>
      <point x="461" y="231" type="curve" smooth="yes"/>
      <point x="369" y="293" type="line"/>
    </contour>
    <contour>
      <point x="406" y="126" type="line"/>
      <point x="472" y="89" type="line" smooth="yes"/>
      <point x="472" y="89"/>
      <point x="472" y="89"/>
      <point x="472" y="89" type="curve" smooth="yes"/>
      <point x="537" y="47" type="line"/>
      <point x="529" y="33" type="line"/>
      <point x="464" y="75" type="line" smooth="yes"/>
      <point x="464" y="75"/>
      <point x="464" y="75"/>
      <point x="464" y="75" type="curve" smooth="yes"/>
      <point x="398" y="112" type="line"/>
    </contour>
  </outline>
</glyph>
<glyph name="h" format="2">
  <advance width="633"/>
  <unicode hex="0068"/>
  <outline>
    <contour>
      <point x="154" y="518" type="line"/>
      <point x="154" y="304" type="line"/>
      <point x="154" y="304"/>
      <point x="154" y="304"/>
      <point x="154" y="304" type="curve"/>
      <point x="154" y="62" type="line"/>
      <point x="138" y="62" type="line"/>
      <point x="138" y="304" type="line"/>
      <point x="138" y="304"/>
      <point x="138" y="304"/>
      <point x="138" y="304" type="curve"/>
      <point x="138" y="518" type="line"/>
    </contour>
    <contour>
      <point x="496" y="518" type="line"/>
      <point x="496" y="304" type="line"/>
      <point x="496" y="304"/>
      <point x="496" y="304"/>
      <point x="496" y="304" type="curve"/>
      <point x="496" y="62" type="line"/>
      <point x="480" y="62" type="line"/>
      <point x="480" y="304" type="line"/>
      <point x="480" y="304"/>
      <point x="480" y="304"/>
      <point x="480" y="304" type="curve"/>
      <point x="480" y="518" type="line"/>
    </contour>
    <contour>
      <point x="488" y="296" type="line"/>
      <point x="146" y="296" type="line"/>
      <point x="146" y="312" type="line"/>
      <point x="488" y="312" type="line"/>
    </contour>
    <contour>
      <point x="237" y="-7" type="line"/>
      <point x="142" y="55" type="line" smooth="yes"/>
      <point x="139" y="57"/>
      <point x="153" y="57"/>
      <point x="150" y="55" type="curve" smooth="yes"/>
      <point x="54" y="-7" type="line"/>
      <point x="46" y="7" type="line"/>
      <point x="142" y="69" type="line" smooth="yes"/>
      <point x="144" y="70"/>
      <point x="148" y="70"/>
      <point x="150" y="69" type="curve" smooth="yes"/>
      <point x="245" y="7" type="line"/>
    </contour>
    <contour>
      <point x="54" y="587" type="line"/>
      <point x="150" y="525" type="line" smooth="yes"/>
      <point x="153" y="523"/>
      <point x="139" y="523"/>
      <point x="142" y="525" type="curve" smooth="yes"/>
      <point x="237" y="587" type="line"/>
      <point x="245" y="573" type="line"/>
      <point x="150" y="511" type="line" smooth="yes"/>
      <point x="148" y="510"/>
      <point x="144" y="510"/>
      <point x="142" y="511" type="curve" smooth="yes"/>
      <point x="46" y="573" type="line"/>
    </contour>
    <contour>
      <point x="396" y="587" type="line"/>
      <point x="492" y="525" type="line" smooth="yes"/>
      <point x="495" y="523"/>
      <point x="481" y="523"/>
      <point x="484" y="525" type="curve" smooth="yes"/>
      <point x="579" y="587" type="line"/>
      <point x="587" y="573" type="line"/>
      <point x="492" y="511" type="line" smooth="yes"/>
      <point x="490" y="510"/>
      <point x="486" y="510"/>
      <point x="484" y="511" type="curve" smooth="yes"/>
      <point x="388" y="573" type="line"/>
    </contour>
    <contour>
      <point x="579" y="-7" type="line"/>
      <point x="484" y="55" type="line" smooth="yes"/>
      <point x="481" y="57"/>
      <point x="495" y="57"/>
      <point x="492" y="55" type="curve" smooth="yes"/>
      <point x="396" y="-7" type="line"/>
      <point x="388" y="7" type="line"/>
      <point x="484" y="69" type="line" smooth="yes"/>
      <point x="486" y="70"/>
      <point x="490" y="70"/>
      <point x="492" y="69" type="curve" smooth="yes"/>
      <point x="587" y="7" type="line"/>
    </contour>
    <contour>
      <point x="414" y="250" type="line"/>
      <point x="483" y="310" type="line" smooth="yes"/>
      <point x="486" y="313"/>
      <point x="486" y="295"/>
      <point x="483" y="298" type="curve" smooth="yes"/>
      <point x="414" y="359" type="line"/>
      <point x="424" y="371" type="line"/>
      <point x="493" y="310" type="line" smooth="yes"/>
      <point x="497" y="307"/>
      <point x="497" y="301"/>
      <point x="493" y="298" type="curve" smooth="yes"/>
      <point x="424" y="238" type="line"/>
    </contour>
    <contour>
      <point x="219" y="359" type="line"/>
      <point x="151" y="298" type="line" smooth="yes"/>
      <point x="148" y="295"/>
      <point x="148" y="313"/>
      <point x="151" y="310" type="curve" smooth="yes"/>
      <point x="219" y="250" type="line"/>
      <point x="209" y="238" type="line"/>
      <point x="141" y="298" type="line" smooth="yes"/>
      <point x="137" y="301"/>
      <point x="137" y="307"/>
      <point x="141" y="310" type="curve" smooth="yes"/>
      <point x="209" y="371" type="line"/>
    </contour>
  </outline>
</glyph>
<glyph name="k" format="2">
  <advance width="599"/>
  <unicode hex="006B"/>
  <anchor x="311" y="0" name="below"/>
  <anchor x="311" y="580.0" name="above"/>
  <outline>
    <contour>
      <point x="153" y="518" type="line"/>
      <point x="153" y="300" type="line"/>
      <point x="153" y="300"/>
      <point x="153" y="300"/>
      <point x="153" y="300" type="curve"/>
      <point x="153" y="62" type="line"/>
      <point x="137" y="62" type="line"/>
      <point x="137" y="300" type="line"/>
      <point x="137" y="300"/>
      <point x="137" y="300"/>
      <point x="137" y="300" type="curve"/>
      <point x="137" y="518" type="line"/>
    </contour>
    <contour>
      <point x="442" y="57" type="line"/>
      <point x="294" y="250" type="line" smooth="yes"/>
      <point x="294" y="250"/>
      <point x="294" y="250"/>
      <point x="294" y="250" type="curve" smooth="yes"/>
      <point x="262" y="291"/>
      <point x="245" y="295"/>
      <point x="145" y="292" type="curve" smooth="yes"/>
      <point x="135" y="292"/>
      <point x="134" y="308"/>
      <point x="145" y="308" type="curve" smooth="yes"/>
      <point x="246" y="311"/>
      <point x="256" y="316"/>
      <point x="297" y="362" type="curve" smooth="yes"/>
      <point x="297" y="362"/>
      <point x="297" y="362"/>
      <point x="297" y="362" type="curve" smooth="yes"/>
      <point x="437" y="523" type="line"/>
      <point x="449" y="513" type="line"/>
      <point x="309" y="352" type="line" smooth="yes"/>
      <point x="309" y="352"/>
      <point x="309" y="352"/>
      <point x="309" y="352" type="curve" smooth="yes"/>
      <point x="266" y="302"/>
      <point x="252" y="295"/>
      <point x="145" y="292" type="curve" smooth="yes"/>
      <point x="135" y="292"/>
      <point x="134" y="308"/>
      <point x="145" y="308" type="curve" smooth="yes"/>
      <point x="253" y="311"/>
      <point x="272" y="305"/>
      <point x="306" y="260" type="curve" smooth="yes"/>
      <point x="306" y="260"/>
      <point x="306" y="260"/>
      <point x="306" y="260" type="curve" smooth="yes"/>
      <point x="454" y="67" type="line"/>
    </contour>
    <contour>
      <point x="218" y="338" type="line"/>
      <point x="149" y="293" type="line" smooth="yes"/>
      <point x="144" y="290"/>
      <point x="144" y="310"/>
      <point x="149" y="307" type="curve" smooth="yes"/>
      <point x="218" y="265" type="line"/>
      <point x="210" y="251" type="line"/>
      <point x="141" y="293" type="line" smooth="yes"/>
      <point x="136" y="296"/>
      <point x="136" y="303"/>
      <point x="141" y="307" type="curve" smooth="yes"/>
      <point x="210" y="352" type="line"/>
    </contour>
    <contour>
      <point x="237" y="-7" type="line"/>
      <point x="141" y="55" type="line" smooth="yes"/>
      <point x="138" y="57"/>
      <point x="152" y="57"/>
      <point x="149" y="55" type="curve" smooth="yes"/>
      <point x="54" y="-7" type="line"/>
      <point x="46" y="7" type="line"/>
      <point x="141" y="69" type="line" smooth="yes"/>
      <point x="143" y="70"/>
      <point x="147" y="70"/>
      <point x="149" y="69" type="curve" smooth="yes"/>
      <point x="245" y="7" type="line"/>
    </contour>
    <contour>
      <point x="54" y="587" type="line"/>
      <point x="149" y="525" type="line" smooth="yes"/>
      <point x="152" y="523"/>
      <point x="138" y="523"/>
      <point x="141" y="525" type="curve" smooth="yes"/>
      <point x="237" y="587" type="line"/>
      <point x="245" y="573" type="line"/>
      <point x="149" y="511" type="line" smooth="yes"/>
      <point x="147" y="510"/>
      <point x="143" y="510"/>
      <point x="141" y="511" type="curve" smooth="yes"/>
      <point x="46" y="573" type="line"/>
    </contour>
    <contour>
      <point x="606" y="-7" type="line"/>
      <point x="445" y="55" type="line" smooth="yes"/>
      <point x="442" y="56"/>
      <point x="456" y="58"/>
      <point x="453" y="56" type="curve" smooth="yes"/>
      <point x="387" y="-6" type="line"/>
      <point x="377" y="6" type="line"/>
      <point x="443" y="68" type="line" smooth="yes"/>
      <point x="445" y="70"/>
      <point x="448" y="71"/>
      <point x="451" y="69" type="curve" smooth="yes"/>
      <point x="612" y="7" type="line"/>
    </contour>
    <contour>
      <point x="400" y="585" type="line"/>
      <point x="449" y="523" type="line" smooth="yes"/>
      <point x="451" y="520"/>
      <point x="437" y="524"/>
      <point x="440" y="525" type="curve" smooth="yes"/>
      <point x="598" y="587" type="line"/>
      <point x="604" y="573" type="line"/>
      <point x="446" y="511" type="line" smooth="yes"/>
      <point x="443" y="509"/>
      <point x="439" y="510"/>
      <point x="437" y="513" type="curve" smooth="yes"/>
      <point x="388" y="575" type="line"/>
    </contour>
    <contour>
      <point x="342" y="302" type="line"/>
      <point x="276" y="297"/>
      <point x="210" y="293"/>
      <point x="145" y="292" type="curve"/>
      <point x="145" y="308" type="line"/>
      <point x="210" y="309"/>
      <point x="276" y="313"/>
      <point x="340" y="318" type="curve"/>
    </contour>
  </outline>
</glyph>
<glyph name="l" format="2">
  <advance width="451"/>
  <unicode hex="006C"/>
  <outline>
    <contour>
      <point x="154" y="518" type="line"/>
      <point x="154" y="64" type="line" smooth="yes"/>
      <point x="154" y="60"/>
      <point x="142" y="72"/>
      <point x="146" y="72" type="curve" smooth="yes"/>
      <point x="243" y="70"/>
      <point x="312" y="72"/>
      <point x="353" y="76" type="curve"/>
      <point x="355" y="60" type="line"/>
      <point x="314" y="56"/>
      <point x="243" y="54"/>
      <point x="146" y="56" type="curve" smooth="yes"/>
      <point x="141" y="56"/>
      <point x="138" y="60"/>
      <point x="138" y="64" type="curve" smooth="yes"/>
      <point x="138" y="518" type="line"/>
    </contour>
    <contour>
      <point x="54" y="587" type="line"/>
      <point x="150" y="525" type="line" smooth="yes"/>
      <point x="153" y="523"/>
      <point x="139" y="523"/>
      <point x="142" y="525" type="curve" smooth="yes"/>
      <point x="237" y="587" type="line"/>
      <point x="245" y="573" type="line"/>
      <point x="150" y="511" type="line" smooth="yes"/>
      <point x="148" y="510"/>
      <point x="144" y="510"/>
      <point x="142" y="511" type="curve" smooth="yes"/>
      <point x="46" y="573" type="line"/>
    </contour>
    <contour>
      <point x="410" y="-5" type="line"/>
      <point x="348" y="63" type="line" smooth="yes"/>
      <point x="345" y="66"/>
      <point x="345" y="70"/>
      <point x="348" y="73" type="curve" smooth="yes"/>
      <point x="430" y="170" type="line"/>
      <point x="442" y="160" type="line"/>
      <point x="360" y="63" type="line" smooth="yes"/>
      <point x="358" y="60"/>
      <point x="357" y="76"/>
      <point x="360" y="73" type="curve" smooth="yes"/>
      <point x="422" y="5" type="line"/>
    </contour>
    <contour>
      <point x="46" y="7" type="line"/>
      <point x="142" y="71" type="line" smooth="yes"/>
      <point x="142" y="71"/>
      <point x="140" y="70"/>
      <point x="141" y="70" type="curve" smooth="yes"/>
      <point x="212" y="132" type="line"/>
      <point x="222" y="120" type="line"/>
      <point x="151" y="58" type="line" smooth="yes"/>
      <point x="151" y="58"/>
      <point x="151" y="58"/>
      <point x="150" y="57" type="curve" smooth="yes"/>
      <point x="54" y="-7" type="line"/>
    </contour>
  </outline>
</glyph>
<glyph name="m" format="2">
  <advance width="786"/>
  <unicode hex="006D"/>
  <outline>
    <contour>
      <point x="637" y="62" type="line"/>
      <point x="637" y="519" type="line" smooth="yes"/>
      <point x="637" y="523"/>
      <point x="649" y="511"/>
      <point x="645" y="511" type="curve" smooth="yes"/>
      <point x="557" y="511" type="line" smooth="yes"/>
      <point x="554" y="511"/>
      <point x="566" y="519"/>
      <point x="565" y="516" type="curve" smooth="yes"/>
      <point x="399" y="60" type="line" smooth="yes"/>
      <point x="396" y="53"/>
      <point x="386" y="53"/>
      <point x="383" y="60" type="curve" smooth="yes"/>
      <point x="222" y="516" type="line" smooth="yes"/>
      <point x="221" y="520"/>
      <point x="233" y="511"/>
      <point x="230" y="511" type="curve" smooth="yes"/>
      <point x="138" y="511" type="line" smooth="yes"/>
      <point x="134" y="511"/>
      <point x="146" y="523"/>
      <point x="146" y="519" type="curve" smooth="yes"/>
      <point x="146" y="62" type="line"/>
      <point x="130" y="62" type="line"/>
      <point x="130" y="519" type="line" smooth="yes"/>
      <point x="130" y="523"/>
      <point x="134" y="527"/>
      <point x="138" y="527" type="curve" smooth="yes"/>
      <point x="230" y="527" type="line" smooth="yes"/>
      <point x="233" y="527"/>
      <point x="236" y="525"/>
      <point x="238" y="522" type="curve" smooth="yes"/>
      <point x="399" y="66" type="line" smooth="yes"/>
      <point x="401" y="59"/>
      <point x="381" y="59"/>
      <point x="383" y="66" type="curve" smooth="yes"/>
      <point x="549" y="522" type="line" smooth="yes"/>
      <point x="551" y="525"/>
      <point x="554" y="527"/>
      <point x="557" y="527" type="curve" smooth="yes"/>
      <point x="645" y="527" type="line" smooth="yes"/>
      <point x="649" y="527"/>
      <point x="653" y="523"/>
      <point x="653" y="519" type="curve" smooth="yes"/>
      <point x="653" y="62" type="line"/>
    </contour>
    <contour>
      <point x="222" y="-7" type="line"/>
      <point x="133" y="55" type="line" smooth="yes"/>
      <point x="131" y="57"/>
      <point x="145" y="57"/>
      <point x="143" y="55" type="curve" smooth="yes"/>
      <point x="55" y="-7" type="line"/>
      <point x="45" y="7" type="line"/>
      <point x="133" y="69" type="line" smooth="yes"/>
      <point x="136" y="70"/>
      <point x="140" y="70"/>
      <point x="143" y="69" type="curve" smooth="yes"/>
      <point x="232" y="7" type="line"/>
    </contour>
    <contour>
      <point x="731" y="-7" type="line"/>
      <point x="640" y="55" type="line" smooth="yes"/>
      <point x="638" y="57"/>
      <point x="652" y="57"/>
      <point x="650" y="55" type="curve" smooth="yes"/>
      <point x="559" y="-7" type="line"/>
      <point x="549" y="7" type="line"/>
      <point x="640" y="69" type="line" smooth="yes"/>
      <point x="643" y="70"/>
      <point x="647" y="70"/>
      <point x="650" y="69" type="curve" smooth="yes"/>
      <point x="741" y="7" type="line"/>
    </contour>
    <contour>
      <point x="55" y="587" type="line"/>
      <point x="143" y="526" type="line" smooth="yes"/>
      <point x="144" y="525"/>
      <point x="144" y="524"/>
      <point x="145" y="523" type="curve" smooth="yes"/>
      <point x="208" y="416" type="line" smooth="yes"/>
      <point x="211" y="410"/>
      <point x="191" y="407"/>
      <point x="193" y="414" type="curve" smooth="yes"/>
      <point x="222" y="521" type="line" smooth="yes"/>
      <point x="223" y="523"/>
      <point x="223" y="524"/>
      <point x="225" y="525" type="curve" smooth="yes"/>
      <point x="291" y="586" type="line"/>
      <point x="301" y="574" type="line"/>
      <point x="235" y="513" type="line" smooth="yes"/>
      <point x="234" y="512"/>
      <point x="238" y="518"/>
      <point x="238" y="517" type="curve" smooth="yes"/>
      <point x="209" y="410" type="line" smooth="yes"/>
      <point x="207" y="403"/>
      <point x="198" y="402"/>
      <point x="194" y="408" type="curve" smooth="yes"/>
      <point x="131" y="515" type="line" smooth="yes"/>
      <point x="131" y="516"/>
      <point x="134" y="512"/>
      <point x="133" y="512" type="curve" smooth="yes"/>
      <point x="45" y="573" type="line"/>
    </contour>
    <contour>
      <point x="505" y="586" type="line"/>
      <point x="563" y="525" type="line" smooth="yes"/>
      <point x="564" y="523"/>
      <point x="564" y="522"/>
      <point x="565" y="521" type="curve" smooth="yes"/>
      <point x="588" y="419" type="line" smooth="yes"/>
      <point x="589" y="412"/>
      <point x="569" y="415"/>
      <point x="573" y="421" type="curve" smooth="yes"/>
      <point x="638" y="523" type="line" smooth="yes"/>
      <point x="639" y="524"/>
      <point x="640" y="525"/>
      <point x="641" y="526" type="curve" smooth="yes"/>
      <point x="732" y="587" type="line"/>
      <point x="740" y="573" type="line"/>
      <point x="649" y="512" type="line" smooth="yes"/>
      <point x="649" y="512"/>
      <point x="652" y="516"/>
      <point x="652" y="515" type="curve" smooth="yes"/>
      <point x="587" y="413" type="line" smooth="yes"/>
      <point x="583" y="407"/>
      <point x="574" y="408"/>
      <point x="572" y="415" type="curve" smooth="yes"/>
      <point x="549" y="517" type="line" smooth="yes"/>
      <point x="549" y="519"/>
      <point x="552" y="512"/>
      <point x="551" y="513" type="curve" smooth="yes"/>
      <point x="493" y="574" type="line"/>
    </contour>
    <contour>
      <point x="338" y="5" type="line"/>
      <point x="385" y="68" type="line" smooth="yes"/>
      <point x="388" y="72"/>
      <point x="395" y="72"/>
      <point x="398" y="67" type="curve" smooth="yes"/>
      <point x="436" y="4" type="line"/>
      <point x="422" y="-4" type="line"/>
      <point x="384" y="59" type="line" smooth="yes"/>
      <point x="381" y="64"/>
      <point x="401" y="63"/>
      <point x="397" y="58" type="curve" smooth="yes"/>
      <point x="350" y="-5" type="line"/>
    </contour>
    <contour>
      <point x="383" y="63" type="line"/>
      <point x="387" y="230" type="line"/>
      <point x="403" y="230" type="line"/>
      <point x="399" y="63" type="line"/>
    </contour>
  </outline>
</glyph>
<glyph name="q" format="2">
  <advance width="638"/>
  <unicode hex="0071"/>
  <outline>
    <contour>
      <point x="319" y="56" type="curve"/>
      <point x="319" y="56"/>
      <point x="319" y="56"/>
      <point x="319" y="56" type="curve"/>
      <point x="357" y="56"/>
      <point x="390" y="65"/>
      <point x="419" y="81" type="curve" smooth="yes"/>
      <point x="419" y="81"/>
      <point x="419" y="81"/>
      <point x="419" y="81" type="curve" smooth="yes"/>
      <point x="486" y="118"/>
      <point x="528" y="193"/>
      <point x="528" y="291" type="curve"/>
      <point x="528" y="291"/>
      <point x="528" y="291"/>
      <point x="528" y="291" type="curve"/>
      <point x="528" y="430"/>
      <point x="442" y="524"/>
      <point x="319" y="524" type="curve"/>
      <point x="319" y="524"/>
      <point x="319" y="524"/>
      <point x="319" y="524" type="curve"/>
      <point x="195" y="524"/>
      <point x="110" y="431"/>
      <point x="110" y="291" type="curve"/>
      <point x="110" y="291"/>
      <point x="110" y="291"/>
      <point x="110" y="291" type="curve"/>
      <point x="110" y="151"/>
      <point x="195" y="56"/>
    </contour>
    <contour>
      <point x="319" y="40" type="curve"/>
      <point x="187" y="40"/>
      <point x="94" y="141"/>
      <point x="94" y="291" type="curve"/>
      <point x="94" y="291"/>
      <point x="94" y="291"/>
      <point x="94" y="291" type="curve"/>
      <point x="94" y="441"/>
      <point x="187" y="540"/>
      <point x="319" y="540" type="curve"/>
      <point x="319" y="540"/>
      <point x="319" y="540"/>
      <point x="319" y="540" type="curve"/>
      <point x="450" y="540"/>
      <point x="544" y="440"/>
      <point x="544" y="291" type="curve"/>
      <point x="544" y="291"/>
      <point x="544" y="291"/>
      <point x="544" y="291" type="curve"/>
      <point x="544" y="187"/>
      <point x="498" y="106"/>
      <point x="427" y="67" type="curve" smooth="yes"/>
      <point x="427" y="67"/>
      <point x="427" y="67"/>
      <point x="427" y="67" type="curve" smooth="yes"/>
      <point x="396" y="49"/>
      <point x="359" y="40"/>
      <point x="319" y="40" type="curve"/>
      <point x="319" y="40"/>
      <point x="319" y="40"/>
    </contour>
    <contour>
      <point x="721" y="-69" type="line"/>
      <point x="614" y="-101"/>
      <point x="496" y="-68"/>
      <point x="416" y="70" type="curve"/>
      <point x="430" y="78" type="line"/>
      <point x="506" y="-52"/>
      <point x="616" y="-83"/>
      <point x="717" y="-53" type="curve"/>
    </contour>
    <contour>
      <point x="385" y="-1" type="line"/>
      <point x="416" y="77" type="line" smooth="yes"/>
      <point x="417" y="80"/>
      <point x="420" y="82"/>
      <point x="424" y="82" type="curve" smooth="yes"/>
      <point x="517" y="70" type="line"/>
      <point x="515" y="54" type="line"/>
      <point x="422" y="66" type="line" smooth="yes"/>
      <point x="418" y="67"/>
      <point x="432" y="74"/>
      <point x="430" y="71" type="curve" smooth="yes"/>
      <point x="399" y="-7" type="line"/>
    </contour>
  </outline>
</glyph>
<glyph name="r" format="2">
  <advance width="574"/>
  <unicode hex="0072"/>
  <anchor x="311" y="0" name="below"/>
  <anchor x="273" y="580" name="above"/>
  <outline>
    <contour>
      <point x="138" y="62" type="line"/>
      <point x="138" y="260" type="line"/>
      <point x="138" y="260"/>
      <point x="138" y="260"/>
      <point x="138" y="260" type="curve"/>
      <point x="138" y="520" type="line" smooth="yes"/>
      <point x="138" y="524"/>
      <point x="142" y="528"/>
      <point x="146" y="528" type="curve" smooth="yes"/>
      <point x="277" y="528" type="line"/>
      <point x="277" y="528"/>
      <point x="277" y="528"/>
      <point x="277" y="528" type="curve"/>
      <point x="381" y="528"/>
      <point x="444" y="472"/>
      <point x="444" y="390" type="curve"/>
      <point x="444" y="390"/>
      <point x="444" y="390"/>
      <point x="444" y="390" type="curve"/>
      <point x="444" y="318"/>
      <point x="395" y="265"/>
      <point x="322" y="252" type="curve" smooth="yes"/>
      <point x="322" y="252"/>
      <point x="321" y="252"/>
      <point x="321" y="252" type="curve" smooth="yes"/>
      <point x="146" y="252" type="line"/>
      <point x="146" y="268" type="line"/>
      <point x="321" y="268" type="line" smooth="yes"/>
      <point x="321" y="268"/>
      <point x="319" y="268"/>
      <point x="320" y="268" type="curve" smooth="yes"/>
      <point x="385" y="279"/>
      <point x="428" y="326"/>
      <point x="428" y="390" type="curve"/>
      <point x="428" y="390"/>
      <point x="428" y="390"/>
      <point x="428" y="390" type="curve"/>
      <point x="428" y="464"/>
      <point x="371" y="512"/>
      <point x="277" y="512" type="curve"/>
      <point x="277" y="512"/>
      <point x="277" y="512"/>
      <point x="277" y="512" type="curve"/>
      <point x="146" y="512" type="line" smooth="yes"/>
      <point x="142" y="512"/>
      <point x="154" y="524"/>
      <point x="154" y="520" type="curve" smooth="yes"/>
      <point x="154" y="260" type="line"/>
      <point x="154" y="260"/>
      <point x="154" y="260"/>
      <point x="154" y="260" type="curve"/>
      <point x="154" y="62" type="line"/>
    </contour>
    <contour>
      <point x="328" y="264" type="line"/>
      <point x="456" y="66" type="line"/>
      <point x="442" y="58" type="line"/>
      <point x="314" y="256" type="line"/>
    </contour>
    <contour>
      <point x="237" y="-7" type="line"/>
      <point x="142" y="55" type="line" smooth="yes"/>
      <point x="139" y="57"/>
      <point x="153" y="57"/>
      <point x="150" y="55" type="curve" smooth="yes"/>
      <point x="54" y="-7" type="line"/>
      <point x="46" y="7" type="line"/>
      <point x="142" y="69" type="line" smooth="yes"/>
      <point x="144" y="70"/>
      <point x="148" y="70"/>
      <point x="150" y="69" type="curve" smooth="yes"/>
      <point x="245" y="7" type="line"/>
    </contour>
    <contour>
      <point x="596" y="-7" type="line"/>
      <point x="446" y="55" type="line" smooth="yes"/>
      <point x="443" y="56"/>
      <point x="457" y="58"/>
      <point x="454" y="56" type="curve" smooth="yes"/>
      <point x="384" y="-6" type="line"/>
      <point x="374" y="6" type="line"/>
      <point x="444" y="68" type="line" smooth="yes"/>
      <point x="446" y="70"/>
      <point x="449" y="71"/>
      <point x="452" y="69" type="curve" smooth="yes"/>
      <point x="602" y="7" type="line"/>
    </contour>
    <contour>
      <point x="54" y="587" type="line"/>
      <point x="150" y="527" type="line" smooth="yes"/>
      <point x="151" y="527"/>
      <point x="151" y="526"/>
      <point x="151" y="526" type="curve" smooth="yes"/>
      <point x="222" y="467" type="line"/>
      <point x="212" y="455" type="line"/>
      <point x="141" y="514" type="line" smooth="yes"/>
      <point x="141" y="514"/>
      <point x="142" y="513"/>
      <point x="142" y="513" type="curve" smooth="yes"/>
      <point x="46" y="573" type="line"/>
    </contour>
    <contour>
      <point x="219" y="311" type="line"/>
      <point x="151" y="254" type="line" smooth="yes"/>
      <point x="147" y="251"/>
      <point x="147" y="269"/>
      <point x="151" y="266" type="curve" smooth="yes"/>
      <point x="220" y="209" type="line"/>
      <point x="210" y="197" type="line"/>
      <point x="141" y="254" type="line" smooth="yes"/>
      <point x="137" y="257"/>
      <point x="137" y="263"/>
      <point x="141" y="266" type="curve" smooth="yes"/>
      <point x="209" y="323" type="line"/>
    </contour>
    <contour>
      <point x="275" y="208" type="line"/>
      <point x="314" y="265" type="line" smooth="yes"/>
      <point x="316" y="267"/>
      <point x="320" y="269"/>
      <point x="323" y="268" type="curve" smooth="yes"/>
      <point x="417" y="241" type="line"/>
      <point x="413" y="225" type="line"/>
      <point x="319" y="252" type="line" smooth="yes"/>
      <point x="315" y="253"/>
      <point x="330" y="258"/>
      <point x="328" y="255" type="curve" smooth="yes"/>
      <point x="289" y="198" type="line"/>
    </contour>
  </outline>
</glyph>
<glyph name="s" format="2">
  <advance width="495"/>
  <unicode hex="0073"/>
  <anchor x="246" y="-2" name="below"/>
  <anchor x="255" y="582.0" name="above"/>
  <outline>
    <contour>
      <point x="117" y="77" type="line"/>
      <point x="155" y="63"/>
      <point x="193" y="55"/>
      <point x="228" y="55" type="curve"/>
      <point x="228" y="55"/>
      <point x="228" y="55"/>
      <point x="228" y="55" type="curve"/>
      <point x="321" y="55"/>
      <point x="383" y="96"/>
      <point x="383" y="164" type="curve"/>
      <point x="383" y="164"/>
      <point x="383" y="164"/>
      <point x="383" y="164" type="curve"/>
      <point x="383" y="230"/>
      <point x="316" y="257"/>
      <point x="253" y="283" type="curve" smooth="yes"/>
      <point x="253" y="283"/>
      <point x="253" y="283"/>
      <point x="253" y="283" type="curve" smooth="yes"/>
      <point x="183" y="311"/>
      <point x="113" y="342"/>
      <point x="113" y="418" type="curve"/>
      <point x="113" y="418"/>
      <point x="113" y="418"/>
      <point x="113" y="418" type="curve"/>
      <point x="113" y="490"/>
      <point x="176" y="539"/>
      <point x="276" y="539" type="curve"/>
      <point x="276" y="539"/>
      <point x="276" y="539"/>
      <point x="276" y="539" type="curve"/>
      <point x="308" y="539"/>
      <point x="342" y="532"/>
      <point x="375" y="521" type="curve"/>
      <point x="369" y="505" type="line"/>
      <point x="338" y="516"/>
      <point x="306" y="523"/>
      <point x="276" y="523" type="curve"/>
      <point x="276" y="523"/>
      <point x="276" y="523"/>
      <point x="276" y="523" type="curve"/>
      <point x="186" y="523"/>
      <point x="129" y="482"/>
      <point x="129" y="418" type="curve"/>
      <point x="129" y="418"/>
      <point x="129" y="418"/>
      <point x="129" y="418" type="curve"/>
      <point x="129" y="350"/>
      <point x="197" y="323"/>
      <point x="259" y="297" type="curve" smooth="yes"/>
      <point x="259" y="297"/>
      <point x="259" y="297"/>
      <point x="259" y="297" type="curve" smooth="yes"/>
      <point x="330" y="269"/>
      <point x="399" y="238"/>
      <point x="399" y="164" type="curve"/>
      <point x="399" y="164"/>
      <point x="399" y="164"/>
      <point x="399" y="164" type="curve"/>
      <point x="399" y="88"/>
      <point x="331" y="39"/>
      <point x="228" y="39" type="curve"/>
      <point x="228" y="39"/>
      <point x="228" y="39"/>
      <point x="228" y="39" type="curve"/>
      <point x="191" y="39"/>
      <point x="151" y="47"/>
      <point x="111" y="61" type="curve"/>
    </contour>
    <contour>
      <point x="439" y="558" type="line"/>
      <point x="377" y="507" type="line" smooth="yes"/>
      <point x="374" y="504"/>
      <point x="377" y="520"/>
      <point x="379" y="517" type="curve" smooth="yes"/>
      <point x="441" y="410" type="line"/>
      <point x="427" y="402" type="line"/>
      <point x="365" y="509" type="line" smooth="yes"/>
      <point x="363" y="512"/>
      <point x="364" y="517"/>
      <point x="367" y="519" type="curve" smooth="yes"/>
      <point x="429" y="570" type="line"/>
    </contour>
    <contour>
      <point x="47" y="21" type="line"/>
      <point x="109" y="75" type="line" smooth="yes"/>
      <point x="112" y="78"/>
      <point x="109" y="62"/>
      <point x="107" y="65" type="curve" smooth="yes"/>
      <point x="45" y="171" type="line"/>
      <point x="59" y="179" type="line"/>
      <point x="121" y="73" type="line" smooth="yes"/>
      <point x="123" y="70"/>
      <point x="122" y="65"/>
      <point x="119" y="63" type="curve" smooth="yes"/>
      <point x="57" y="9" type="line"/>
    </contour>
  </outline>
</glyph>
<glyph name="t" format="2">
  <advance width="513"/>
  <unicode hex="0074"/>
  <anchor x="256" y="0" name="below"/>
  <anchor x="256" y="580.0" name="above"/>
  <outline>
    <contour>
      <point x="430" y="506" type="line"/>
      <point x="390" y="510"/>
      <point x="336" y="512"/>
      <point x="256" y="512" type="curve"/>
      <point x="256" y="512"/>
      <point x="256" y="512"/>
      <point x="256" y="512" type="curve"/>
      <point x="177" y="512"/>
      <point x="123" y="510"/>
      <point x="83" y="506" type="curve"/>
      <point x="81" y="522" type="line"/>
      <point x="121" y="526"/>
      <point x="177" y="528"/>
      <point x="256" y="528" type="curve"/>
      <point x="256" y="528"/>
      <point x="256" y="528"/>
      <point x="256" y="528" type="curve"/>
      <point x="336" y="528"/>
      <point x="392" y="526"/>
      <point x="432" y="522" type="curve"/>
    </contour>
    <contour>
      <point x="264" y="520" type="line"/>
      <point x="264" y="62" type="line"/>
      <point x="248" y="62" type="line"/>
      <point x="248" y="520" type="line"/>
    </contour>
    <contour>
      <point x="348" y="-7" type="line"/>
      <point x="252" y="55" type="line" smooth="yes"/>
      <point x="249" y="57"/>
      <point x="263" y="57"/>
      <point x="260" y="55" type="curve" smooth="yes"/>
      <point x="165" y="-7" type="line"/>
      <point x="157" y="7" type="line"/>
      <point x="252" y="69" type="line" smooth="yes"/>
      <point x="254" y="70"/>
      <point x="258" y="70"/>
      <point x="260" y="69" type="curve" smooth="yes"/>
      <point x="356" y="7" type="line"/>
    </contour>
    <contour>
      <point x="499" y="575" type="line"/>
      <point x="437" y="509" type="line" smooth="yes"/>
      <point x="434" y="506"/>
      <point x="435" y="522"/>
      <point x="437" y="519" type="curve" smooth="yes"/>
      <point x="499" y="435" type="line"/>
      <point x="487" y="425" type="line"/>
      <point x="425" y="509" type="line" smooth="yes"/>
      <point x="422" y="512"/>
      <point x="423" y="517"/>
      <point x="425" y="519" type="curve" smooth="yes"/>
      <point x="487" y="585" type="line"/>
    </contour>
    <contour>
      <point x="14" y="435" type="line"/>
      <point x="76" y="519" type="line" smooth="yes"/>
      <point x="78" y="522"/>
      <point x="79" y="506"/>
      <point x="76" y="509" type="curve" smooth="yes"/>
      <point x="14" y="575" type="line"/>
      <point x="26" y="585" type="line"/>
      <point x="88" y="519" type="line" smooth="yes"/>
      <point x="90" y="517"/>
      <point x="91" y="512"/>
      <point x="88" y="509" type="curve" smooth="yes"/>
      <point x="26" y="425" type="line"/>
    </contour>
    <contour>
      <point x="180" y="465" type="line"/>
      <point x="251" y="526" type="line" smooth="yes"/>
      <point x="254" y="529"/>
      <point x="258" y="529"/>
      <point x="261" y="526" type="curve" smooth="yes"/>
      <point x="333" y="465" type="line"/>
      <point x="323" y="453" type="line"/>
      <point x="251" y="514" type="line" smooth="yes"/>
      <point x="248" y="516"/>
      <point x="264" y="516"/>
      <point x="261" y="514" type="curve" smooth="yes"/>
      <point x="190" y="453" type="line"/>
    </contour>
  </outline>
</glyph>
<glyph name="v" format="2">
  <advance width="604"/>
  <unicode hex="0076"/>
  <outline>
    <contour>
      <point x="410" y="586" type="line"/>
      <point x="493" y="516" type="line" smooth="yes"/>
      <point x="496" y="514"/>
      <point x="481" y="515"/>
      <point x="484" y="517" type="curve" smooth="yes"/>
      <point x="600" y="587" type="line"/>
      <point x="608" y="573" type="line"/>
      <point x="492" y="503" type="line" smooth="yes"/>
      <point x="489" y="501"/>
      <point x="485" y="502"/>
      <point x="483" y="504" type="curve" smooth="yes"/>
      <point x="400" y="574" type="line"/>
    </contour>
    <contour>
      <point x="4" y="587" type="line"/>
      <point x="127" y="517" type="line" smooth="yes"/>
      <point x="130" y="515"/>
      <point x="116" y="514"/>
      <point x="118" y="516" type="curve" smooth="yes"/>
      <point x="208" y="586" type="line"/>
      <point x="218" y="574" type="line"/>
      <point x="128" y="504" type="line" smooth="yes"/>
      <point x="125" y="502"/>
      <point x="122" y="501"/>
      <point x="119" y="503" type="curve" smooth="yes"/>
      <point x="-4" y="573" type="line"/>
    </contour>
    <contour>
      <point x="131" y="512" type="line"/>
      <point x="143" y="469"/>
      <point x="166" y="402"/>
      <point x="210" y="284" type="curve" smooth="yes"/>
      <point x="210" y="284"/>
      <point x="210" y="284"/>
      <point x="210" y="284" type="curve" smooth="yes"/>
      <point x="233" y="227"/>
      <point x="260" y="152"/>
      <point x="280" y="93" type="curve" smooth="yes"/>
      <point x="281" y="89"/>
      <point x="269" y="98"/>
      <point x="272" y="98" type="curve" smooth="yes"/>
      <point x="338" y="98" type="line" smooth="yes"/>
      <point x="341" y="98"/>
      <point x="329" y="89"/>
      <point x="330" y="93" type="curve" smooth="yes"/>
      <point x="350" y="151"/>
      <point x="378" y="227"/>
      <point x="401" y="284" type="curve" smooth="yes"/>
      <point x="401" y="284"/>
      <point x="401" y="284"/>
      <point x="401" y="284" type="curve" smooth="yes"/>
      <point x="445" y="404"/>
      <point x="468" y="470"/>
      <point x="480" y="512" type="curve"/>
      <point x="496" y="508" type="line"/>
      <point x="484" y="466"/>
      <point x="461" y="399"/>
      <point x="415" y="278" type="curve" smooth="yes"/>
      <point x="415" y="278"/>
      <point x="415" y="278"/>
      <point x="415" y="278" type="curve" smooth="yes"/>
      <point x="394" y="221"/>
      <point x="366" y="145"/>
      <point x="346" y="87" type="curve" smooth="yes"/>
      <point x="344" y="84"/>
      <point x="341" y="82"/>
      <point x="338" y="82" type="curve" smooth="yes"/>
      <point x="272" y="82" type="line" smooth="yes"/>
      <point x="269" y="82"/>
      <point x="266" y="84"/>
      <point x="264" y="87" type="curve" smooth="yes"/>
      <point x="244" y="146"/>
      <point x="217" y="221"/>
      <point x="196" y="278" type="curve" smooth="yes"/>
      <point x="196" y="278"/>
      <point x="196" y="278"/>
      <point x="196" y="278" type="curve" smooth="yes"/>
      <point x="150" y="397"/>
      <point x="127" y="465"/>
      <point x="115" y="508" type="curve"/>
    </contour>
    <contour>
      <point x="220" y="4" type="line"/>
      <point x="265" y="94" type="line" smooth="yes"/>
      <point x="265" y="94"/>
      <point x="264" y="93"/>
      <point x="265" y="93" type="curve" smooth="yes"/>
      <point x="302" y="189" type="line" smooth="yes"/>
      <point x="304" y="196"/>
      <point x="314" y="196"/>
      <point x="317" y="188" type="curve" smooth="yes"/>
      <point x="346" y="92" type="line" smooth="yes"/>
      <point x="346" y="92"/>
      <point x="345" y="93"/>
      <point x="345" y="93" type="curve" smooth="yes"/>
      <point x="384" y="3" type="line"/>
      <point x="370" y="-3" type="line"/>
      <point x="331" y="87" type="line" smooth="yes"/>
      <point x="331" y="87"/>
      <point x="330" y="87"/>
      <point x="330" y="88" type="curve" smooth="yes"/>
      <point x="301" y="184" type="line" smooth="yes"/>
      <point x="299" y="191"/>
      <point x="319" y="190"/>
      <point x="316" y="183" type="curve" smooth="yes"/>
      <point x="279" y="87" type="line" smooth="yes"/>
      <point x="279" y="87"/>
      <point x="279" y="87"/>
      <point x="279" y="86" type="curve" smooth="yes"/>
      <point x="234" y="-4" type="line"/>
    </contour>
  </outline>
</glyph>
<glyph name="w" format="2">
  <advance width="795"/>
  <unicode hex="0077"/>
  <anchor x="398" y="0" name="below"/>
  <anchor x="398" y="580.0" name="above"/>
  <outline>
    <contour>
      <point x="693" y="516" type="line"/>
      <point x="552" y="49" type="line" smooth="yes"/>
      <point x="549" y="41"/>
      <point x="539" y="41"/>
      <point x="536" y="49" type="curve" smooth="yes"/>
      <point x="393" y="509" type="line" smooth="yes"/>
      <point x="391" y="516"/>
      <point x="411" y="516"/>
      <point x="409" y="509" type="curve" smooth="yes"/>
      <point x="265" y="49" type="line" smooth="yes"/>
      <point x="262" y="41"/>
      <point x="252" y="41"/>
      <point x="249" y="49" type="curve" smooth="yes"/>
      <point x="105" y="516" type="line"/>
      <point x="121" y="520" type="line"/>
      <point x="265" y="53" type="line" smooth="yes"/>
      <point x="267" y="46"/>
      <point x="247" y="46"/>
      <point x="249" y="53" type="curve" smooth="yes"/>
      <point x="393" y="513" type="line" smooth="yes"/>
      <point x="396" y="521"/>
      <point x="406" y="521"/>
      <point x="409" y="513" type="curve" smooth="yes"/>
      <point x="552" y="53" type="line" smooth="yes"/>
      <point x="554" y="46"/>
      <point x="534" y="46"/>
      <point x="536" y="53" type="curve" smooth="yes"/>
      <point x="677" y="520" type="line"/>
    </contour>
    <contour>
      <point x="9" y="587" type="line"/>
      <point x="117" y="525" type="line" smooth="yes"/>
      <point x="120" y="523"/>
      <point x="106" y="523"/>
      <point x="109" y="525" type="curve" smooth="yes"/>
      <point x="201" y="587" type="line"/>
      <point x="209" y="573" type="line"/>
      <point x="117" y="511" type="line" smooth="yes"/>
      <point x="115" y="510"/>
      <point x="112" y="510"/>
      <point x="109" y="511" type="curve" smooth="yes"/>
      <point x="1" y="573" type="line"/>
    </contour>
    <contour>
      <point x="604" y="586" type="line"/>
      <point x="690" y="524" type="line" smooth="yes"/>
      <point x="692" y="523"/>
      <point x="678" y="523"/>
      <point x="681" y="525" type="curve" smooth="yes"/>
      <point x="786" y="587" type="line"/>
      <point x="794" y="573" type="line"/>
      <point x="689" y="511" type="line" smooth="yes"/>
      <point x="686" y="509"/>
      <point x="683" y="510"/>
      <point x="680" y="512" type="curve" smooth="yes"/>
      <point x="594" y="574" type="line"/>
    </contour>
    <contour>
      <point x="349" y="585" type="line"/>
      <point x="407" y="516" type="line" smooth="yes"/>
      <point x="410" y="512"/>
      <point x="392" y="513"/>
      <point x="395" y="516" type="curve" smooth="yes"/>
      <point x="456" y="585" type="line"/>
      <point x="468" y="575" type="line"/>
      <point x="407" y="506" type="line" smooth="yes"/>
      <point x="404" y="502"/>
      <point x="398" y="502"/>
      <point x="395" y="506" type="curve" smooth="yes"/>
      <point x="337" y="575" type="line"/>
    </contour>
    <contour>
      <point x="390" y="316" type="line"/>
      <point x="393" y="511" type="line"/>
      <point x="409" y="511" type="line"/>
      <point x="406" y="316" type="line"/>
    </contour>
    <contour>
      <point x="193" y="6" type="line"/>
      <point x="252" y="57" type="line" smooth="yes"/>
      <point x="255" y="60"/>
      <point x="260" y="60"/>
      <point x="263" y="57" type="curve" smooth="yes"/>
      <point x="312" y="6" type="line"/>
      <point x="300" y="-6" type="line"/>
      <point x="251" y="45" type="line" smooth="yes"/>
      <point x="248" y="49"/>
      <point x="265" y="48"/>
      <point x="262" y="45" type="curve" smooth="yes"/>
      <point x="203" y="-6" type="line"/>
    </contour>
    <contour>
      <point x="484" y="6" type="line"/>
      <point x="539" y="57" type="line" smooth="yes"/>
      <point x="542" y="60"/>
      <point x="546" y="60"/>
      <point x="550" y="57" type="curve" smooth="yes"/>
      <point x="603" y="6" type="line"/>
      <point x="591" y="-6" type="line"/>
      <point x="538" y="45" type="line" smooth="yes"/>
      <point x="535" y="48"/>
      <point x="553" y="48"/>
      <point x="549" y="45" type="curve" smooth="yes"/>
      <point x="494" y="-6" type="line"/>
    </contour>
    <contour>
      <point x="270" y="266" type="line"/>
      <point x="265" y="51" type="line"/>
      <point x="249" y="51" type="line"/>
      <point x="254" y="266" type="line"/>
    </contour>
    <contour>
      <point x="553" y="271" type="line"/>
      <point x="552" y="51" type="line"/>
      <point x="536" y="51" type="line"/>
      <point x="537" y="271" type="line"/>
    </contour>
  </outline>
</glyph>
<glyph name="y" format="2">
  <advance width="563"/>
  <unicode hex="0079"/>
  <outline>
    <contour>
      <point x="130" y="522" type="line"/>
      <point x="295" y="232" type="line" smooth="yes"/>
      <point x="298" y="227"/>
      <point x="278" y="226"/>
      <point x="281" y="232" type="curve" smooth="yes"/>
      <point x="442" y="522" type="line"/>
      <point x="456" y="514" type="line"/>
      <point x="295" y="224" type="line" smooth="yes"/>
      <point x="292" y="219"/>
      <point x="284" y="219"/>
      <point x="281" y="224" type="curve" smooth="yes"/>
      <point x="116" y="514" type="line"/>
    </contour>
    <contour>
      <point x="297" y="348" type="line"/>
      <point x="296" y="228" type="line" smooth="yes"/>
      <point x="296" y="228"/>
      <point x="296" y="228"/>
      <point x="296" y="228" type="curve" smooth="yes"/>
      <point x="296" y="62" type="line"/>
      <point x="280" y="62" type="line"/>
      <point x="280" y="228" type="line" smooth="yes"/>
      <point x="280" y="228"/>
      <point x="280" y="228"/>
      <point x="280" y="228" type="curve" smooth="yes"/>
      <point x="281" y="348" type="line"/>
    </contour>
    <contour>
      <point x="379" y="-7" type="line"/>
      <point x="284" y="55" type="line" smooth="yes"/>
      <point x="281" y="57"/>
      <point x="295" y="57"/>
      <point x="292" y="55" type="curve" smooth="yes"/>
      <point x="197" y="-7" type="line"/>
      <point x="189" y="7" type="line"/>
      <point x="284" y="69" type="line" smooth="yes"/>
      <point x="286" y="70"/>
      <point x="290" y="70"/>
      <point x="292" y="69" type="curve" smooth="yes"/>
      <point x="387" y="7" type="line"/>
    </contour>
    <contour>
      <point x="-2" y="587" type="line"/>
      <point x="126" y="525" type="line" smooth="yes"/>
      <point x="129" y="524"/>
      <point x="115" y="522"/>
      <point x="118" y="524" type="curve" smooth="yes"/>
      <point x="191" y="586" type="line"/>
      <point x="201" y="574" type="line"/>
      <point x="128" y="512" type="line" smooth="yes"/>
      <point x="126" y="510"/>
      <point x="122" y="509"/>
      <point x="120" y="511" type="curve" smooth="yes"/>
      <point x="-8" y="573" type="line"/>
    </contour>
    <contour>
      <point x="387" y="586" type="line"/>
      <point x="454" y="524" type="line" smooth="yes"/>
      <point x="457" y="522"/>
      <point x="442" y="524"/>
      <point x="445" y="525" type="curve" smooth="yes"/>
      <point x="564" y="587" type="line"/>
      <point x="572" y="573" type="line"/>
      <point x="453" y="511" type="line" smooth="yes"/>
      <point x="450" y="509"/>
      <point x="446" y="510"/>
      <point x="444" y="512" type="curve" smooth="yes"/>
      <point x="377" y="574" type="line"/>
    </contour>
    <contour>
      <point x="216" y="240" type="line"/>
      <point x="288" y="236" type="line" smooth="yes"/>
      <point x="289" y="236"/>
      <point x="287" y="236"/>
      <point x="288" y="236" type="curve" smooth="yes"/>
      <point x="360" y="240" type="line"/>
      <point x="360" y="224" type="line"/>
      <point x="288" y="220" type="line" smooth="yes"/>
      <point x="288" y="220"/>
      <point x="288" y="220"/>
      <point x="288" y="220" type="curve" smooth="yes"/>
      <point x="216" y="224" type="line"/>
    </contour>
  </outline>
</glyph>
<glyph name="cent" format="2">
  <advance width="469"/>
  <unicode hex="00A2"/>
  <outline>
    <contour>
      <point x="278" y="623" type="line"/>
      <point x="271" y="509" type="line"/>
      <point x="255" y="509" type="line"/>
      <point x="262" y="623" type="line"/>
    </contour>
    <contour>
      <point x="355" y="491" type="line"/>
      <point x="325" y="501"/>
      <point x="291" y="504"/>
      <point x="264" y="501" type="curve" smooth="yes"/>
      <point x="264" y="501"/>
      <point x="264" y="501"/>
      <point x="264" y="501" type="curve" smooth="yes"/>
      <point x="170" y="490"/>
      <point x="109" y="419"/>
      <point x="109" y="313" type="curve"/>
      <point x="109" y="313"/>
      <point x="109" y="313"/>
      <point x="109" y="313" type="curve"/>
      <point x="109" y="215"/>
      <point x="161" y="147"/>
      <point x="244" y="129" type="curve" smooth="yes"/>
      <point x="244" y="129"/>
      <point x="244" y="129"/>
      <point x="244" y="129" type="curve" smooth="yes"/>
      <point x="278" y="121"/>
      <point x="319" y="123"/>
      <point x="355" y="135" type="curve"/>
      <point x="359" y="119" type="line"/>
      <point x="321" y="107"/>
      <point x="278" y="105"/>
      <point x="240" y="113" type="curve" smooth="yes"/>
      <point x="240" y="113"/>
      <point x="240" y="113"/>
      <point x="240" y="113" type="curve" smooth="yes"/>
      <point x="151" y="133"/>
      <point x="93" y="207"/>
      <point x="93" y="313" type="curve"/>
      <point x="93" y="313"/>
      <point x="93" y="313"/>
      <point x="93" y="313" type="curve"/>
      <point x="93" y="427"/>
      <point x="160" y="504"/>
      <point x="262" y="517" type="curve" smooth="yes"/>
      <point x="262" y="517"/>
      <point x="262" y="517"/>
      <point x="262" y="517" type="curve" smooth="yes"/>
      <point x="291" y="520"/>
      <point x="327" y="517"/>
      <point x="359" y="507" type="curve"/>
    </contour>
    <contour>
      <point x="250" y="121" type="line"/>
      <point x="243" y="7" type="line"/>
      <point x="227" y="7" type="line"/>
      <point x="234" y="121" type="line"/>
    </contour>
    <contour>
      <point x="424" y="535" type="line"/>
      <point x="362" y="492" type="line" smooth="yes"/>
      <point x="358" y="490"/>
      <point x="362" y="507"/>
      <point x="364" y="503" type="curve" smooth="yes"/>
      <point x="426" y="404" type="line"/>
      <point x="412" y="396" type="line"/>
      <point x="350" y="495" type="line" smooth="yes"/>
      <point x="348" y="498"/>
      <point x="349" y="503"/>
      <point x="352" y="506" type="curve" smooth="yes"/>
      <point x="414" y="549" type="line"/>
    </contour>
    <contour>
      <point x="426" y="222" type="line"/>
      <point x="364" y="123" type="line" smooth="yes"/>
      <point x="362" y="119"/>
      <point x="358" y="136"/>
      <point x="362" y="134" type="curve" smooth="yes"/>
      <point x="424" y="91" type="line"/>
      <point x="414" y="77" type="line"/>
      <point x="352" y="120" type="line" smooth="yes"/>
      <point x="349" y="123"/>
      <point x="348" y="128"/>
      <point x="350" y="131" type="curve" smooth="yes"/>
      <point x="412" y="230" type="line"/>
    </contour>
    <contour>
      <point x="217" y="686" type="line"/>
      <point x="276" y="629" type="line" smooth="yes"/>
      <point x="279" y="626"/>
      <point x="262" y="626"/>
      <point x="265" y="629" type="curve" smooth="yes"/>
      <point x="331" y="686" type="line"/>
      <point x="341" y="674" type="line"/>
      <point x="275" y="617" type="line" smooth="yes"/>
      <point x="272" y="614"/>
      <point x="267" y="614"/>
      <point x="264" y="617" type="curve" smooth="yes"/>
      <point x="205" y="674" type="line"/>
    </contour>
    <contour>
      <point x="208" y="562" type="line"/>
      <point x="268" y="515" type="line" smooth="yes"/>
      <point x="271" y="513"/>
      <point x="255" y="513"/>
      <point x="258" y="515" type="curve" smooth="yes"/>
      <point x="324" y="571" type="line"/>
      <point x="334" y="559" type="line"/>
      <point x="268" y="503" type="line" smooth="yes"/>
      <point x="265" y="500"/>
      <point x="261" y="500"/>
      <point x="258" y="503" type="curve" smooth="yes"/>
      <point x="198" y="550" type="line"/>
    </contour>
    <contour>
      <point x="288" y="-56" type="line"/>
      <point x="229" y="1" type="line" smooth="yes"/>
      <point x="226" y="4"/>
      <point x="243" y="4"/>
      <point x="240" y="1" type="curve" smooth="yes"/>
      <point x="174" y="-56" type="line"/>
      <point x="164" y="-44" type="line"/>
      <point x="230" y="13" type="line" smooth="yes"/>
      <point x="233" y="16"/>
      <point x="238" y="16"/>
      <point x="241" y="13" type="curve" smooth="yes"/>
      <point x="300" y="-44" type="line"/>
    </contour>
    <contour>
      <point x="295" y="53" type="line"/>
      <point x="236" y="115" type="line" smooth="yes"/>
      <point x="234" y="118"/>
      <point x="249" y="116"/>
      <point x="246" y="114" type="curve" smooth="yes"/>
      <point x="181" y="73" type="line"/>
      <point x="173" y="87" type="line"/>
      <point x="238" y="128" type="line" smooth="yes"/>
      <point x="241" y="130"/>
      <point x="245" y="129"/>
      <point x="248" y="127" type="curve" smooth="yes"/>
      <point x="307" y="65" type="line"/>
    </contour>
  </outline>
</glyph>
<glyph name="currency" format="2">
  <advance width="646"/>
  <unicode hex="00A4"/>
  <outline>
    <contour>
      <point x="450" y="470" type="curve"/>
      <point x="450" y="470"/>
      <point x="450" y="470"/>
      <point x="450" y="470" type="curve"/>
      <point x="511" y="409"/>
      <point x="511" y="281"/>
      <point x="451" y="218" type="curve" smooth="yes"/>
      <point x="451" y="218"/>
      <point x="451" y="218"/>
      <point x="451" y="218" type="curve" smooth="yes"/>
      <point x="389" y="154"/>
      <point x="261" y="155"/>
      <point x="197" y="218" type="curve"/>
      <point x="197" y="218"/>
      <point x="197" y="218"/>
      <point x="197" y="218" type="curve"/>
      <point x="136" y="279"/>
      <point x="136" y="407"/>
      <point x="196" y="470" type="curve" smooth="yes"/>
      <point x="196" y="470"/>
      <point x="196" y="470"/>
      <point x="196" y="470" type="curve" smooth="yes"/>
      <point x="258" y="534"/>
      <point x="386" y="533"/>
    </contour>
    <contour>
      <point x="123" y="555" type="line"/>
      <point x="208" y="470" type="line"/>
      <point x="196" y="458" type="line"/>
      <point x="111" y="543" type="line"/>
    </contour>
    <contour>
      <point x="438" y="470" type="line"/>
      <point x="523" y="555" type="line"/>
      <point x="535" y="543" type="line"/>
      <point x="450" y="458" type="line"/>
    </contour>
    <contour>
      <point x="22" y="556" type="line"/>
      <point x="117" y="557" type="line" smooth="yes"/>
      <point x="121" y="557"/>
      <point x="109" y="545"/>
      <point x="109" y="549" type="curve" smooth="yes"/>
      <point x="110" y="644" type="line"/>
      <point x="126" y="644" type="line"/>
      <point x="125" y="549" type="line" smooth="yes"/>
      <point x="125" y="545"/>
      <point x="121" y="541"/>
      <point x="117" y="541" type="curve" smooth="yes"/>
      <point x="22" y="540" type="line"/>
    </contour>
    <contour>
      <point x="536" y="644" type="line"/>
      <point x="537" y="549" type="line" smooth="yes"/>
      <point x="537" y="545"/>
      <point x="525" y="557"/>
      <point x="529" y="557" type="curve" smooth="yes"/>
      <point x="624" y="556" type="line"/>
      <point x="624" y="540" type="line"/>
      <point x="529" y="541" type="line" smooth="yes"/>
      <point x="525" y="541"/>
      <point x="521" y="545"/>
      <point x="521" y="549" type="curve" smooth="yes"/>
      <point x="520" y="644" type="line"/>
    </contour>
    <contour>
      <point x="115" y="461" type="line"/>
      <point x="201" y="472" type="line" smooth="yes"/>
      <point x="205" y="472"/>
      <point x="194" y="461"/>
      <point x="194" y="465" type="curve" smooth="yes"/>
      <point x="205" y="551" type="line"/>
      <point x="221" y="549" type="line"/>
      <point x="210" y="463" type="line" smooth="yes"/>
      <point x="209" y="459"/>
      <point x="207" y="457"/>
      <point x="203" y="456" type="curve" smooth="yes"/>
      <point x="117" y="445" type="line"/>
    </contour>
    <contour>
      <point x="441" y="550" type="line"/>
      <point x="452" y="465" type="line" smooth="yes"/>
      <point x="452" y="461"/>
      <point x="441" y="472"/>
      <point x="445" y="472" type="curve" smooth="yes"/>
      <point x="530" y="461" type="line"/>
      <point x="528" y="445" type="line"/>
      <point x="443" y="456" type="line" smooth="yes"/>
      <point x="439" y="457"/>
      <point x="437" y="459"/>
      <point x="436" y="463" type="curve" smooth="yes"/>
      <point x="425" y="548" type="line"/>
    </contour>
    <contour>
      <point x="438" y="458" type="curve"/>
      <point x="382" y="515"/>
      <point x="264" y="516"/>
      <point x="208" y="458" type="curve" smooth="yes"/>
      <point x="208" y="458"/>
      <point x="208" y="458"/>
      <point x="208" y="458" type="curve" smooth="yes"/>
      <point x="154" y="403"/>
      <point x="154" y="285"/>
      <point x="209" y="230" type="curve"/>
      <point x="209" y="230"/>
      <point x="209" y="230"/>
      <point x="209" y="230" type="curve"/>
      <point x="265" y="173"/>
      <point x="383" y="172"/>
      <point x="439" y="230" type="curve" smooth="yes"/>
      <point x="439" y="230"/>
      <point x="439" y="230"/>
      <point x="439" y="230" type="curve" smooth="yes"/>
      <point x="493" y="285"/>
      <point x="493" y="403"/>
      <point x="438" y="458" type="curve"/>
      <point x="438" y="458"/>
      <point x="438" y="458"/>
    </contour>
    <contour>
      <point x="524" y="133" type="line"/>
      <point x="439" y="218" type="line"/>
      <point x="451" y="230" type="line"/>
      <point x="536" y="145" type="line"/>
    </contour>
    <contour>
      <point x="209" y="218" type="line"/>
      <point x="124" y="133" type="line"/>
      <point x="112" y="145" type="line"/>
      <point x="197" y="230" type="line"/>
    </contour>
    <contour>
      <point x="625" y="132" type="line"/>
      <point x="530" y="131" type="line" smooth="yes"/>
      <point x="526" y="131"/>
      <point x="538" y="143"/>
      <point x="538" y="139" type="curve" smooth="yes"/>
      <point x="537" y="44" type="line"/>
      <point x="521" y="44" type="line"/>
      <point x="522" y="139" type="line" smooth="yes"/>
      <point x="522" y="143"/>
      <point x="526" y="147"/>
      <point x="530" y="147" type="curve" smooth="yes"/>
      <point x="625" y="148" type="line"/>
    </contour>
    <contour>
      <point x="111" y="44" type="line"/>
      <point x="110" y="139" type="line" smooth="yes"/>
      <point x="110" y="143"/>
      <point x="122" y="131"/>
      <point x="118" y="131" type="curve" smooth="yes"/>
      <point x="23" y="132" type="line"/>
      <point x="23" y="148" type="line"/>
      <point x="118" y="147" type="line" smooth="yes"/>
      <point x="122" y="147"/>
      <point x="126" y="143"/>
      <point x="126" y="139" type="curve" smooth="yes"/>
      <point x="127" y="44" type="line"/>
    </contour>
    <contour>
      <point x="532" y="227" type="line"/>
      <point x="446" y="216" type="line" smooth="yes"/>
      <point x="442" y="216"/>
      <point x="453" y="227"/>
      <point x="453" y="223" type="curve" smooth="yes"/>
      <point x="442" y="137" type="line"/>
      <point x="426" y="139" type="line"/>
      <point x="437" y="225" type="line" smooth="yes"/>
      <point x="438" y="229"/>
      <point x="440" y="231"/>
      <point x="444" y="232" type="curve" smooth="yes"/>
      <point x="530" y="243" type="line"/>
    </contour>
    <contour>
      <point x="206" y="138" type="line"/>
      <point x="195" y="223" type="line" smooth="yes"/>
      <point x="195" y="227"/>
      <point x="206" y="216"/>
      <point x="202" y="216" type="curve" smooth="yes"/>
      <point x="117" y="227" type="line"/>
      <point x="119" y="243" type="line"/>
      <point x="204" y="232" type="line" smooth="yes"/>
      <point x="208" y="231"/>
      <point x="210" y="229"/>
      <point x="211" y="225" type="curve" smooth="yes"/>
      <point x="222" y="140" type="line"/>
    </contour>
  </outline>
</glyph>
<glyph name="copyright" format="2">
  <advance width="812"/>
  <unicode hex="00A9"/>
  <outline>
    <contour>
      <point x="406" y="27" type="curve"/>
      <point x="406" y="27"/>
      <point x="406" y="27"/>
      <point x="406" y="27" type="curve"/>
      <point x="224" y="27"/>
      <point x="92" y="160"/>
      <point x="92" y="340" type="curve"/>
      <point x="92" y="340"/>
      <point x="92" y="340"/>
      <point x="92" y="340" type="curve"/>
      <point x="92" y="520"/>
      <point x="224" y="653"/>
      <point x="406" y="653" type="curve"/>
      <point x="406" y="653"/>
      <point x="406" y="653"/>
      <point x="406" y="653" type="curve"/>
      <point x="588" y="653"/>
      <point x="720" y="520"/>
      <point x="720" y="340" type="curve"/>
      <point x="720" y="340"/>
      <point x="720" y="340"/>
      <point x="720" y="340" type="curve"/>
      <point x="720" y="160"/>
      <point x="588" y="27"/>
    </contour>
    <contour>
      <point x="469" y="204" type="line"/>
      <point x="374" y="186"/>
      <point x="296" y="242"/>
      <point x="296" y="340" type="curve"/>
      <point x="296" y="340"/>
      <point x="296" y="340"/>
      <point x="296" y="340" type="curve"/>
      <point x="296" y="438"/>
      <point x="379" y="497"/>
      <point x="470" y="476" type="curve"/>
      <point x="466" y="460" type="line"/>
      <point x="385" y="479"/>
      <point x="312" y="428"/>
      <point x="312" y="340" type="curve"/>
      <point x="312" y="340"/>
      <point x="312" y="340"/>
      <point x="312" y="340" type="curve"/>
      <point x="312" y="252"/>
      <point x="380" y="204"/>
      <point x="467" y="220" type="curve"/>
    </contour>
    <contour>
      <point x="406" y="43" type="curve"/>
      <point x="580" y="43"/>
      <point x="704" y="168"/>
      <point x="704" y="340" type="curve"/>
      <point x="704" y="340"/>
      <point x="704" y="340"/>
      <point x="704" y="340" type="curve"/>
      <point x="704" y="512"/>
      <point x="580" y="637"/>
      <point x="406" y="637" type="curve"/>
      <point x="406" y="637"/>
      <point x="406" y="637"/>
      <point x="406" y="637" type="curve"/>
      <point x="232" y="637"/>
      <point x="108" y="512"/>
      <point x="108" y="340" type="curve"/>
      <point x="108" y="340"/>
      <point x="108" y="340"/>
      <point x="108" y="340" type="curve"/>
      <point x="108" y="168"/>
      <point x="232" y="43"/>
      <point x="406" y="43" type="curve"/>
      <point x="406" y="43"/>
      <point x="406" y="43"/>
    </contour>
    <contour>
      <point x="524" y="493" type="line"/>
      <point x="472" y="461" type="line" smooth="yes"/>
      <point x="468" y="459"/>
      <point x="472" y="476"/>
      <point x="474" y="473" type="curve" smooth="yes"/>
      <point x="526" y="401" type="line"/>
      <point x="514" y="391" type="line"/>
      <point x="462" y="463" type="line" smooth="yes"/>
      <point x="459" y="467"/>
      <point x="460" y="472"/>
      <point x="464" y="475" type="curve" smooth="yes"/>
      <point x="516" y="507" type="line"/>
    </contour>
    <contour>
      <point x="527" y="280" type="line"/>
      <point x="475" y="207" type="line" smooth="yes"/>
      <point x="472" y="204"/>
      <point x="468" y="221"/>
      <point x="472" y="219" type="curve" smooth="yes"/>
      <point x="524" y="187" type="line"/>
      <point x="516" y="173" type="line"/>
      <point x="464" y="205" type="line" smooth="yes"/>
      <point x="460" y="208"/>
      <point x="459" y="213"/>
      <point x="461" y="217" type="curve" smooth="yes"/>
      <point x="513" y="290" type="line"/>
    </contour>
  </outline>
</glyph>
<glyph name="ordfeminine" format="2">
  <advance width="495"/>
  <unicode hex="00AA"/>
  <outline>
    <contour>
      <point x="388" y="486" type="curve"/>
      <point x="388" y="486"/>
      <point x="388" y="486"/>
      <point x="388" y="486" type="curve"/>
      <point x="388" y="391"/>
      <point x="323" y="324"/>
      <point x="241" y="324" type="curve"/>
      <point x="241" y="324"/>
      <point x="241" y="324"/>
      <point x="241" y="324" type="curve"/>
      <point x="159" y="324"/>
      <point x="98" y="390"/>
      <point x="98" y="488" type="curve"/>
      <point x="98" y="488"/>
      <point x="98" y="488"/>
      <point x="98" y="488" type="curve"/>
      <point x="98" y="587"/>
      <point x="160" y="652"/>
      <point x="244" y="652" type="curve"/>
      <point x="244" y="652"/>
      <point x="244" y="652"/>
      <point x="244" y="652" type="curve"/>
      <point x="324" y="652"/>
      <point x="388" y="585"/>
    </contour>
    <contour>
      <point x="387" y="160" type="line"/>
      <point x="118" y="160" type="line"/>
      <point x="118" y="176" type="line"/>
      <point x="387" y="176" type="line"/>
    </contour>
    <contour>
      <point x="60" y="118" type="line"/>
      <point x="112" y="173" type="line" smooth="yes"/>
      <point x="115" y="177"/>
      <point x="115" y="159"/>
      <point x="112" y="162" type="curve" smooth="yes"/>
      <point x="60" y="216" type="line"/>
      <point x="72" y="228" type="line"/>
      <point x="124" y="174" type="line" smooth="yes"/>
      <point x="127" y="170"/>
      <point x="127" y="166"/>
      <point x="124" y="163" type="curve" smooth="yes"/>
      <point x="72" y="108" type="line"/>
    </contour>
    <contour>
      <point x="445" y="216" type="line"/>
      <point x="393" y="162" type="line" smooth="yes"/>
      <point x="390" y="159"/>
      <point x="390" y="177"/>
      <point x="393" y="173" type="curve" smooth="yes"/>
      <point x="445" y="118" type="line"/>
      <point x="433" y="108" type="line"/>
      <point x="381" y="163" type="line" smooth="yes"/>
      <point x="378" y="166"/>
      <point x="378" y="170"/>
      <point x="381" y="174" type="curve" smooth="yes"/>
      <point x="433" y="228" type="line"/>
    </contour>
    <contour>
      <point x="372" y="486" type="curve"/>
      <point x="372" y="575"/>
      <point x="316" y="636"/>
      <point x="244" y="636" type="curve"/>
      <point x="244" y="636"/>
      <point x="244" y="636"/>
      <point x="244" y="636" type="curve"/>
      <point x="168" y="636"/>
      <point x="114" y="577"/>
      <point x="114" y="488" type="curve"/>
      <point x="114" y="488"/>
      <point x="114" y="488"/>
      <point x="114" y="488" type="curve"/>
      <point x="114" y="400"/>
      <point x="167" y="340"/>
      <point x="241" y="340" type="curve"/>
      <point x="241" y="340"/>
      <point x="241" y="340"/>
      <point x="241" y="340" type="curve"/>
      <point x="315" y="340"/>
      <point x="372" y="401"/>
      <point x="372" y="486" type="curve"/>
      <point x="372" y="486"/>
      <point x="372" y="486"/>
    </contour>
    <contour>
      <point x="388" y="638" type="line"/>
      <point x="388" y="337" type="line"/>
      <point x="372" y="337" type="line"/>
      <point x="372" y="638" type="line"/>
    </contour>
    <contour>
      <point x="434" y="288" type="line"/>
      <point x="375" y="330" type="line" smooth="yes"/>
      <point x="373" y="332"/>
      <point x="387" y="332"/>
      <point x="385" y="330" type="curve" smooth="yes"/>
      <point x="325" y="288" type="line"/>
      <point x="315" y="302" type="line"/>
      <point x="375" y="344" type="line" smooth="yes"/>
      <point x="378" y="345"/>
      <point x="382" y="345"/>
      <point x="385" y="344" type="curve" smooth="yes"/>
      <point x="444" y="302" type="line"/>
    </contour>
    <contour>
      <point x="325" y="687" type="line"/>
      <point x="385" y="645" type="line" smooth="yes"/>
      <point x="387" y="643"/>
      <point x="373" y="643"/>
      <point x="375" y="645" type="curve" smooth="yes"/>
      <point x="434" y="687" type="line"/>
      <point x="444" y="673" type="line"/>
      <point x="385" y="631" type="line" smooth="yes"/>
      <point x="382" y="630"/>
      <point x="378" y="630"/>
      <point x="375" y="631" type="curve" smooth="yes"/>
      <point x="315" y="673" type="line"/>
    </contour>
  </outline>
</glyph>
<glyph name="logicalnot" format="2">
  <advance width="490"/>
  <unicode hex="00AC"/>
  <outline>
    <contour>
      <point x="102" y="390" type="line"/>
      <point x="386" y="390" type="line" smooth="yes"/>
      <point x="390" y="390"/>
      <point x="394" y="386"/>
      <point x="394" y="382" type="curve" smooth="yes"/>
      <point x="394" y="236" type="line"/>
      <point x="378" y="236" type="line"/>
      <point x="378" y="382" type="line" smooth="yes"/>
      <point x="378" y="386"/>
      <point x="390" y="374"/>
      <point x="386" y="374" type="curve" smooth="yes"/>
      <point x="102" y="374" type="line"/>
    </contour>
    <contour>
      <point x="34" y="325" type="line"/>
      <point x="96" y="388" type="line" smooth="yes"/>
      <point x="99" y="391"/>
      <point x="99" y="373"/>
      <point x="96" y="376" type="curve" smooth="yes"/>
      <point x="34" y="440" type="line"/>
      <point x="46" y="452" type="line"/>
      <point x="108" y="388" type="line" smooth="yes"/>
      <point x="111" y="384"/>
      <point x="111" y="379"/>
      <point x="108" y="376" type="curve" smooth="yes"/>
      <point x="46" y="313" type="line"/>
    </contour>
    <contour>
      <point x="444" y="168" type="line"/>
      <point x="380" y="230" type="line" smooth="yes"/>
      <point x="377" y="233"/>
      <point x="395" y="233"/>
      <point x="392" y="230" type="curve" smooth="yes"/>
      <point x="327" y="168" type="line"/>
      <point x="315" y="180" type="line"/>
      <point x="380" y="242" type="line" smooth="yes"/>
      <point x="384" y="245"/>
      <point x="388" y="245"/>
      <point x="392" y="242" type="curve" smooth="yes"/>
      <point x="456" y="180" type="line"/>
    </contour>
    <contour>
      <point x="315" y="325" type="line"/>
      <point x="380" y="388" type="line" smooth="yes"/>
      <point x="380" y="388"/>
      <point x="380" y="388"/>
      <point x="380" y="388" type="curve" smooth="yes"/>
      <point x="444" y="452" type="line"/>
      <point x="456" y="440" type="line"/>
      <point x="392" y="376" type="line" smooth="yes"/>
      <point x="392" y="376"/>
      <point x="392" y="376"/>
      <point x="392" y="376" type="curve" smooth="yes"/>
      <point x="327" y="313" type="line"/>
    </contour>
  </outline>
</glyph>
<glyph name="degree" format="2">
  <advance width="532"/>
  <unicode hex="00B0"/>
  <outline>
    <contour>
      <point x="265" y="312" type="curve"/>
      <point x="265" y="312"/>
      <point x="265" y="312"/>
      <point x="265" y="312" type="curve"/>
      <point x="354" y="312"/>
      <point x="416" y="377"/>
      <point x="416" y="471" type="curve"/>
      <point x="416" y="471"/>
      <point x="416" y="471"/>
      <point x="416" y="471" type="curve"/>
      <point x="416" y="565"/>
      <point x="354" y="630"/>
      <point x="265" y="630" type="curve"/>
      <point x="265" y="630"/>
      <point x="265" y="630"/>
      <point x="265" y="630" type="curve"/>
      <point x="176" y="630"/>
      <point x="117" y="565"/>
      <point x="117" y="471" type="curve"/>
      <point x="117" y="471"/>
      <point x="117" y="471"/>
      <point x="117" y="471" type="curve"/>
      <point x="117" y="377"/>
      <point x="176" y="312"/>
    </contour>
    <contour>
      <point x="265" y="296" type="curve"/>
      <point x="168" y="296"/>
      <point x="101" y="367"/>
      <point x="101" y="471" type="curve"/>
      <point x="101" y="471"/>
      <point x="101" y="471"/>
      <point x="101" y="471" type="curve"/>
      <point x="101" y="575"/>
      <point x="168" y="646"/>
      <point x="265" y="646" type="curve"/>
      <point x="265" y="646"/>
      <point x="265" y="646"/>
      <point x="265" y="646" type="curve"/>
      <point x="362" y="646"/>
      <point x="432" y="575"/>
      <point x="432" y="471" type="curve"/>
      <point x="432" y="471"/>
      <point x="432" y="471"/>
      <point x="432" y="471" type="curve"/>
      <point x="432" y="367"/>
      <point x="362" y="296"/>
      <point x="265" y="296" type="curve"/>
      <point x="265" y="296"/>
      <point x="265" y="296"/>
    </contour>
  </outline>
</glyph>
<glyph name="threesuperior" format="2">
  <advance width="420"/>
  <unicode hex="00B3"/>
  <outline>
    <contour>
      <point x="123" y="325" type="line"/>
      <point x="143" y="318"/>
      <point x="164" y="315"/>
      <point x="184" y="315" type="curve"/>
      <point x="184" y="315"/>
      <point x="184" y="315"/>
      <point x="184" y="315" type="curve"/>
      <point x="252" y="315"/>
      <point x="304" y="345"/>
      <point x="304" y="400" type="curve"/>
      <point x="304" y="400"/>
      <point x="304" y="400"/>
      <point x="304" y="400" type="curve"/>
      <point x="304" y="444"/>
      <point x="260" y="472"/>
      <point x="175" y="477" type="curve" smooth="yes"/>
      <point x="168" y="477"/>
      <point x="165" y="485"/>
      <point x="169" y="490" type="curve" smooth="yes"/>
      <point x="275" y="634" type="line" smooth="yes"/>
      <point x="278" y="639"/>
      <point x="288" y="621"/>
      <point x="281" y="621" type="curve" smooth="yes"/>
      <point x="212" y="621"/>
      <point x="164" y="620"/>
      <point x="127" y="617" type="curve"/>
      <point x="125" y="633" type="line"/>
      <point x="164" y="636"/>
      <point x="212" y="637"/>
      <point x="281" y="637" type="curve" smooth="yes"/>
      <point x="288" y="637"/>
      <point x="291" y="630"/>
      <point x="287" y="624" type="curve" smooth="yes"/>
      <point x="181" y="480" type="line" smooth="yes"/>
      <point x="178" y="475"/>
      <point x="169" y="493"/>
      <point x="175" y="493" type="curve" smooth="yes"/>
      <point x="274" y="488"/>
      <point x="320" y="450"/>
      <point x="320" y="400" type="curve"/>
      <point x="320" y="400"/>
      <point x="320" y="400"/>
      <point x="320" y="400" type="curve"/>
      <point x="320" y="337"/>
      <point x="262" y="299"/>
      <point x="184" y="299" type="curve"/>
      <point x="184" y="299"/>
      <point x="184" y="299"/>
      <point x="184" y="299" type="curve"/>
      <point x="162" y="299"/>
      <point x="139" y="302"/>
      <point x="117" y="309" type="curve"/>
    </contour>
    <contour>
      <point x="70" y="565" type="line"/>
      <point x="120" y="630" type="line" smooth="yes"/>
      <point x="122" y="633"/>
      <point x="123" y="617"/>
      <point x="120" y="620" type="curve" smooth="yes"/>
      <point x="70" y="675" type="line"/>
      <point x="82" y="685" type="line"/>
      <point x="132" y="630" type="line" smooth="yes"/>
      <point x="135" y="628"/>
      <point x="135" y="623"/>
      <point x="132" y="620" type="curve" smooth="yes"/>
      <point x="82" y="555" type="line"/>
    </contour>
    <contour>
      <point x="65" y="282" type="line"/>
      <point x="115" y="323" type="line" smooth="yes"/>
      <point x="118" y="326"/>
      <point x="115" y="309"/>
      <point x="113" y="313" type="curve" smooth="yes"/>
      <point x="63" y="391" type="line"/>
      <point x="77" y="399" type="line"/>
      <point x="127" y="321" type="line" smooth="yes"/>
      <point x="129" y="318"/>
      <point x="128" y="313"/>
      <point x="125" y="311" type="curve" smooth="yes"/>
      <point x="75" y="270" type="line"/>
    </contour>
    <contour>
      <point x="91" y="453" type="line"/>
      <point x="171" y="492" type="line" smooth="yes"/>
      <point x="172" y="492"/>
      <point x="172" y="492"/>
      <point x="172" y="492" type="curve" smooth="yes"/>
      <point x="250" y="527" type="line"/>
      <point x="256" y="513" type="line"/>
      <point x="178" y="478" type="line" smooth="yes"/>
      <point x="178" y="478"/>
      <point x="179" y="478"/>
      <point x="179" y="478" type="curve" smooth="yes"/>
      <point x="99" y="439" type="line"/>
    </contour>
    <contour>
      <point x="186" y="584" type="line"/>
      <point x="277" y="636" type="line" smooth="yes"/>
      <point x="277" y="636"/>
      <point x="277" y="636"/>
      <point x="277" y="636" type="curve" smooth="yes"/>
      <point x="369" y="687" type="line"/>
      <point x="377" y="673" type="line"/>
      <point x="285" y="622" type="line" smooth="yes"/>
      <point x="285" y="622"/>
      <point x="285" y="622"/>
      <point x="285" y="622" type="curve" smooth="yes"/>
      <point x="194" y="570" type="line"/>
    </contour>
  </outline>
</glyph>
<glyph name="onequarter" format="2">
  <advance width="899"/>
  <unicode hex="00BC"/>
  <outline>
    <contour>
      <point x="88" y="616" type="line"/>
      <point x="118" y="624"/>
      <point x="154" y="632"/>
      <point x="196" y="639" type="curve" smooth="yes"/>
      <point x="201" y="640"/>
      <point x="205" y="636"/>
      <point x="205" y="630" type="curve" smooth="yes"/>
      <point x="203" y="603"/>
      <point x="202" y="575"/>
      <point x="202" y="484" type="curve"/>
      <point x="202" y="484"/>
      <point x="202" y="484"/>
      <point x="202" y="484" type="curve"/>
      <point x="202" y="323" type="line"/>
      <point x="186" y="323" type="line"/>
      <point x="186" y="484" type="line"/>
      <point x="186" y="484"/>
      <point x="186" y="484"/>
      <point x="186" y="484" type="curve"/>
      <point x="186" y="575"/>
      <point x="187" y="603"/>
      <point x="189" y="632" type="curve" smooth="yes"/>
      <point x="189" y="637"/>
      <point x="203" y="624"/>
      <point x="198" y="623" type="curve" smooth="yes"/>
      <point x="158" y="616"/>
      <point x="122" y="608"/>
      <point x="92" y="600" type="curve"/>
    </contour>
    <contour>
      <point x="268" y="264" type="line"/>
      <point x="190" y="316" type="line" smooth="yes"/>
      <point x="187" y="318"/>
      <point x="201" y="318"/>
      <point x="198" y="316" type="curve" smooth="yes"/>
      <point x="112" y="264" type="line"/>
      <point x="104" y="278" type="line"/>
      <point x="190" y="330" type="line" smooth="yes"/>
      <point x="193" y="331"/>
      <point x="196" y="331"/>
      <point x="198" y="330" type="curve" smooth="yes"/>
      <point x="276" y="278" type="line"/>
    </contour>
    <contour>
      <point x="33" y="533" type="line"/>
      <point x="83" y="612" type="line" smooth="yes"/>
      <point x="85" y="616"/>
      <point x="88" y="599"/>
      <point x="85" y="602" type="curve" smooth="yes"/>
      <point x="35" y="647" type="line"/>
      <point x="45" y="659" type="line"/>
      <point x="95" y="614" type="line" smooth="yes"/>
      <point x="98" y="611"/>
      <point x="99" y="607"/>
      <point x="97" y="604" type="curve" smooth="yes"/>
      <point x="47" y="525" type="line"/>
    </contour>
    <contour>
      <point x="126" y="573" type="line"/>
      <point x="191" y="637" type="line" smooth="yes"/>
      <point x="191" y="637"/>
      <point x="192" y="637"/>
      <point x="192" y="637" type="curve" smooth="yes"/>
      <point x="260" y="700" type="line"/>
      <point x="270" y="688" type="line"/>
      <point x="202" y="625" type="line" smooth="yes"/>
      <point x="202" y="625"/>
      <point x="203" y="625"/>
      <point x="203" y="625" type="curve" smooth="yes"/>
      <point x="138" y="561" type="line"/>
    </contour>
    <contour>
      <point x="606" y="624" type="line"/>
      <point x="256" y="48" type="line"/>
      <point x="242" y="56" type="line"/>
      <point x="592" y="632" type="line"/>
    </contour>
    <contour>
      <point x="274" y="-4" type="line"/>
      <point x="242" y="48" type="line" smooth="yes"/>
      <point x="240" y="51"/>
      <point x="257" y="47"/>
      <point x="253" y="45" type="curve" smooth="yes"/>
      <point x="159" y="-7" type="line"/>
      <point x="151" y="7" type="line"/>
      <point x="245" y="59" type="line" smooth="yes"/>
      <point x="249" y="61"/>
      <point x="254" y="60"/>
      <point x="256" y="56" type="curve" smooth="yes"/>
      <point x="288" y="4" type="line"/>
    </contour>
    <contour>
      <point x="574" y="684" type="line"/>
      <point x="606" y="632" type="line" smooth="yes"/>
      <point x="608" y="629"/>
      <point x="591" y="633"/>
      <point x="595" y="635" type="curve" smooth="yes"/>
      <point x="689" y="687" type="line"/>
      <point x="697" y="673" type="line"/>
      <point x="603" y="621" type="line" smooth="yes"/>
      <point x="599" y="619"/>
      <point x="594" y="620"/>
      <point x="592" y="624" type="curve" smooth="yes"/>
      <point x="560" y="676" type="line"/>
    </contour>
    <contour>
      <point x="744" y="52" type="line"/>
      <point x="744" y="361" type="line" smooth="yes"/>
      <point x="744" y="365"/>
      <point x="756" y="353"/>
      <point x="752" y="353" type="curve" smooth="yes"/>
      <point x="669" y="353" type="line" smooth="yes"/>
      <point x="666" y="353"/>
      <point x="677" y="360"/>
      <point x="676" y="357" type="curve" smooth="yes"/>
      <point x="563" y="135" type="line" smooth="yes"/>
      <point x="560" y="130"/>
      <point x="550" y="147"/>
      <point x="556" y="147" type="curve" smooth="yes"/>
      <point x="816" y="147" type="line"/>
      <point x="816" y="131" type="line"/>
      <point x="556" y="131" type="line" smooth="yes"/>
      <point x="550" y="131"/>
      <point x="546" y="137"/>
      <point x="549" y="143" type="curve" smooth="yes"/>
      <point x="662" y="365" type="line" smooth="yes"/>
      <point x="663" y="367"/>
      <point x="666" y="369"/>
      <point x="669" y="369" type="curve" smooth="yes"/>
      <point x="752" y="369" type="line" smooth="yes"/>
      <point x="756" y="369"/>
      <point x="760" y="365"/>
      <point x="760" y="361" type="curve" smooth="yes"/>
      <point x="760" y="52" type="line"/>
    </contour>
    <contour>
      <point x="476" y="102" type="line"/>
      <point x="552" y="146" type="line" smooth="yes"/>
      <point x="552" y="146"/>
      <point x="552" y="146"/>
      <point x="552" y="146" type="curve" smooth="yes"/>
      <point x="628" y="191" type="line"/>
      <point x="636" y="177" type="line"/>
      <point x="560" y="132" type="line" smooth="yes"/>
      <point x="560" y="132"/>
      <point x="560" y="132"/>
      <point x="560" y="132" type="curve" smooth="yes"/>
      <point x="484" y="88" type="line"/>
    </contour>
    <contour>
      <point x="656" y="412" type="line"/>
      <point x="676" y="364" type="line" smooth="yes"/>
      <point x="676" y="364"/>
      <point x="676" y="365"/>
      <point x="676" y="364" type="curve" smooth="yes"/>
      <point x="699" y="315" type="line" smooth="yes"/>
      <point x="701" y="311"/>
      <point x="683" y="315"/>
      <point x="687" y="318" type="curve" smooth="yes"/>
      <point x="747" y="367" type="line" smooth="yes"/>
      <point x="747" y="367"/>
      <point x="747" y="368"/>
      <point x="748" y="368" type="curve" smooth="yes"/>
      <point x="824" y="416" type="line"/>
      <point x="832" y="402" type="line"/>
      <point x="756" y="354" type="line" smooth="yes"/>
      <point x="756" y="354"/>
      <point x="757" y="355"/>
      <point x="757" y="355" type="curve" smooth="yes"/>
      <point x="697" y="306" type="line" smooth="yes"/>
      <point x="693" y="303"/>
      <point x="687" y="304"/>
      <point x="685" y="309" type="curve" smooth="yes"/>
      <point x="662" y="358" type="line" smooth="yes"/>
      <point x="662" y="358"/>
      <point x="662" y="358"/>
      <point x="662" y="358" type="curve" smooth="yes"/>
      <point x="642" y="406" type="line"/>
    </contour>
    <contour>
      <point x="872" y="193" type="line"/>
      <point x="822" y="134" type="line" smooth="yes"/>
      <point x="820" y="131"/>
      <point x="819" y="147"/>
      <point x="822" y="144" type="curve" smooth="yes"/>
      <point x="872" y="87" type="line"/>
      <point x="860" y="77" type="line"/>
      <point x="810" y="134" type="line" smooth="yes"/>
      <point x="807" y="137"/>
      <point x="807" y="141"/>
      <point x="810" y="144" type="curve" smooth="yes"/>
      <point x="860" y="203" type="line"/>
    </contour>
    <contour>
      <point x="814" y="180" type="line"/>
      <point x="757" y="133" type="line" smooth="yes"/>
      <point x="757" y="133"/>
      <point x="757" y="133"/>
      <point x="757" y="133" type="curve" smooth="yes"/>
      <point x="697" y="89" type="line"/>
      <point x="687" y="101" type="line"/>
      <point x="747" y="145" type="line" smooth="yes"/>
      <point x="747" y="146"/>
      <point x="747" y="145"/>
      <point x="747" y="145" type="curve" smooth="yes"/>
      <point x="804" y="192" type="line"/>
    </contour>
    <contour>
      <point x="699" y="190" type="line"/>
      <point x="757" y="145" type="line" smooth="yes"/>
      <point x="757" y="145"/>
      <point x="757" y="145"/>
      <point x="757" y="145" type="curve" smooth="yes"/>
      <point x="816" y="99" type="line"/>
      <point x="806" y="87" type="line"/>
      <point x="747" y="133" type="line" smooth="yes"/>
      <point x="747" y="133"/>
      <point x="747" y="133"/>
      <point x="747" y="133" type="curve" smooth="yes"/>
      <point x="689" y="178" type="line"/>
    </contour>
    <contour>
      <point x="823" y="-7" type="line"/>
      <point x="747" y="45" type="line" smooth="yes"/>
      <point x="745" y="47"/>
      <point x="759" y="47"/>
      <point x="756" y="45" type="curve" smooth="yes"/>
      <point x="679" y="-7" type="line"/>
      <point x="671" y="7" type="line"/>
      <point x="748" y="59" type="line" smooth="yes"/>
      <point x="750" y="60"/>
      <point x="754" y="60"/>
      <point x="757" y="59" type="curve" smooth="yes"/>
      <point x="833" y="7" type="line"/>
    </contour>
  </outline>
</glyph>
<glyph name="AE" format="2">
  <advance width="888"/>
  <unicode hex="00C6"/>
  <anchor x="505" y="0" name="below"/>
  <anchor x="505" y="680.0" name="above"/>
  <outline>
    <contour>
      <point x="752" y="61" type="line"/>
      <point x="680" y="55"/>
      <point x="566" y="52"/>
      <point x="495" y="54" type="curve" smooth="yes"/>
      <point x="490" y="54"/>
      <point x="487" y="58"/>
      <point x="487" y="62" type="curve" smooth="yes"/>
      <point x="487" y="618" type="line"/>
      <point x="503" y="618" type="line"/>
      <point x="503" y="62" type="line" smooth="yes"/>
      <point x="503" y="58"/>
      <point x="491" y="70"/>
      <point x="495" y="70" type="curve" smooth="yes"/>
      <point x="566" y="68"/>
      <point x="680" y="71"/>
      <point x="750" y="77" type="curve"/>
    </contour>
    <contour>
      <point x="726" y="342" type="line"/>
      <point x="495" y="342" type="line"/>
      <point x="495" y="358" type="line"/>
      <point x="726" y="358" type="line"/>
    </contour>
    <contour>
      <point x="575" y="119" type="line"/>
      <point x="500" y="56" type="line" smooth="yes"/>
      <point x="500" y="56"/>
      <point x="500" y="55"/>
      <point x="499" y="55" type="curve" smooth="yes"/>
      <point x="400" y="-7" type="line"/>
      <point x="392" y="7" type="line"/>
      <point x="491" y="69" type="line" smooth="yes"/>
      <point x="491" y="69"/>
      <point x="490" y="68"/>
      <point x="490" y="68" type="curve" smooth="yes"/>
      <point x="565" y="131" type="line"/>
    </contour>
    <contour>
      <point x="821" y="675" type="line"/>
      <point x="759" y="606" type="line" smooth="yes"/>
      <point x="756" y="603"/>
      <point x="757" y="619"/>
      <point x="760" y="616" type="curve" smooth="yes"/>
      <point x="822" y="529" type="line"/>
      <point x="808" y="519" type="line"/>
      <point x="746" y="606" type="line" smooth="yes"/>
      <point x="744" y="609"/>
      <point x="745" y="614"/>
      <point x="747" y="616" type="curve" smooth="yes"/>
      <point x="809" y="685" type="line"/>
    </contour>
    <contour>
      <point x="839" y="161" type="line"/>
      <point x="757" y="64" type="line" smooth="yes"/>
      <point x="755" y="61"/>
      <point x="754" y="77"/>
      <point x="757" y="74" type="curve" smooth="yes"/>
      <point x="819" y="5" type="line"/>
      <point x="807" y="-5" type="line"/>
      <point x="745" y="64" type="line" smooth="yes"/>
      <point x="742" y="67"/>
      <point x="742" y="71"/>
      <point x="745" y="74" type="curve" smooth="yes"/>
      <point x="827" y="171" type="line"/>
    </contour>
    <contour>
      <point x="794" y="427" type="line"/>
      <point x="732" y="345" type="line" smooth="yes"/>
      <point x="730" y="342"/>
      <point x="730" y="358"/>
      <point x="732" y="355" type="curve" smooth="yes"/>
      <point x="794" y="274" type="line"/>
      <point x="782" y="264" type="line"/>
      <point x="720" y="345" type="line" smooth="yes"/>
      <point x="717" y="348"/>
      <point x="717" y="352"/>
      <point x="720" y="355" type="curve" smooth="yes"/>
      <point x="782" y="437" type="line"/>
    </contour>
    <contour>
      <point x="571" y="404" type="line"/>
      <point x="500" y="344" type="line" smooth="yes"/>
      <point x="496" y="341"/>
      <point x="496" y="359"/>
      <point x="500" y="356" type="curve" smooth="yes"/>
      <point x="571" y="296" type="line"/>
      <point x="561" y="284" type="line"/>
      <point x="490" y="344" type="line" smooth="yes"/>
      <point x="486" y="347"/>
      <point x="486" y="353"/>
      <point x="490" y="356" type="curve" smooth="yes"/>
      <point x="561" y="416" type="line"/>
    </contour>
    <contour>
      <point x="495" y="194" type="line"/>
      <point x="184" y="194" type="line"/>
      <point x="184" y="210" type="line"/>
      <point x="495" y="210" type="line"/>
    </contour>
    <contour>
      <point x="117" y="73" type="line"/>
      <point x="129" y="103"/>
      <point x="147" y="144"/>
      <point x="177" y="206" type="curve" smooth="yes"/>
      <point x="177" y="206"/>
      <point x="177" y="206"/>
      <point x="177" y="206" type="curve" smooth="yes"/>
      <point x="226" y="305"/>
      <point x="323" y="503"/>
      <point x="373" y="621" type="curve" smooth="yes"/>
      <point x="374" y="624"/>
      <point x="377" y="626"/>
      <point x="380" y="626" type="curve" smooth="yes"/>
      <point x="495" y="626" type="line"/>
      <point x="495" y="626"/>
      <point x="495" y="626"/>
      <point x="495" y="626" type="curve"/>
      <point x="575" y="626"/>
      <point x="685" y="624"/>
      <point x="754" y="619" type="curve"/>
      <point x="752" y="603" type="line"/>
      <point x="685" y="608"/>
      <point x="575" y="610"/>
      <point x="495" y="610" type="curve"/>
      <point x="495" y="610"/>
      <point x="495" y="610"/>
      <point x="495" y="610" type="curve"/>
      <point x="380" y="610" type="line" smooth="yes"/>
      <point x="377" y="610"/>
      <point x="389" y="618"/>
      <point x="387" y="615" type="curve" smooth="yes"/>
      <point x="337" y="497"/>
      <point x="240" y="299"/>
      <point x="191" y="198" type="curve" smooth="yes"/>
      <point x="191" y="198"/>
      <point x="191" y="198"/>
      <point x="191" y="198" type="curve" smooth="yes"/>
      <point x="161" y="138"/>
      <point x="143" y="97"/>
      <point x="131" y="67" type="curve"/>
    </contour>
    <contour>
      <point x="205" y="-6" type="line"/>
      <point x="119" y="64" type="line" smooth="yes"/>
      <point x="116" y="66"/>
      <point x="131" y="65"/>
      <point x="128" y="63" type="curve" smooth="yes"/>
      <point x="-1" y="-7" type="line"/>
      <point x="-9" y="7" type="line"/>
      <point x="120" y="77" type="line" smooth="yes"/>
      <point x="123" y="79"/>
      <point x="127" y="78"/>
      <point x="129" y="76" type="curve" smooth="yes"/>
      <point x="215" y="6" type="line"/>
    </contour>
    <contour>
      <point x="335" y="685" type="line"/>
      <point x="386" y="623" type="line" smooth="yes"/>
      <point x="386" y="623"/>
      <point x="387" y="622"/>
      <point x="387" y="622" type="curve" smooth="yes"/>
      <point x="427" y="553" type="line" smooth="yes"/>
      <point x="429" y="549"/>
      <point x="411" y="551"/>
      <point x="415" y="555" type="curve" smooth="yes"/>
      <point x="490" y="624" type="line" smooth="yes"/>
      <point x="493" y="627"/>
      <point x="497" y="627"/>
      <point x="500" y="624" type="curve" smooth="yes"/>
      <point x="575" y="561" type="line"/>
      <point x="565" y="549" type="line"/>
      <point x="490" y="612" type="line" smooth="yes"/>
      <point x="487" y="614"/>
      <point x="503" y="615"/>
      <point x="500" y="612" type="curve" smooth="yes"/>
      <point x="425" y="543" type="line" smooth="yes"/>
      <point x="422" y="540"/>
      <point x="416" y="541"/>
      <point x="413" y="545" type="curve" smooth="yes"/>
      <point x="373" y="614" type="line" smooth="yes"/>
      <point x="373" y="614"/>
      <point x="374" y="613"/>
      <point x="374" y="613" type="curve" smooth="yes"/>
      <point x="323" y="675" type="line"/>
    </contour>
    <contour>
      <point x="291" y="258" type="line"/>
      <point x="188" y="195" type="line" smooth="yes"/>
      <point x="184" y="193"/>
      <point x="187" y="211"/>
      <point x="190" y="207" type="curve" smooth="yes"/>
      <point x="240" y="145" type="line"/>
      <point x="228" y="135" type="line"/>
      <point x="178" y="197" type="line" smooth="yes"/>
      <point x="175" y="201"/>
      <point x="176" y="206"/>
      <point x="180" y="209" type="curve" smooth="yes"/>
      <point x="283" y="272" type="line"/>
    </contour>
    <contour>
      <point x="415" y="146" type="line"/>
      <point x="490" y="208" type="line" smooth="yes"/>
      <point x="494" y="211"/>
      <point x="493" y="193"/>
      <point x="490" y="196" type="curve" smooth="yes"/>
      <point x="418" y="259" type="line"/>
      <point x="428" y="271" type="line"/>
      <point x="500" y="208" type="line" smooth="yes"/>
      <point x="504" y="205"/>
      <point x="504" y="199"/>
      <point x="500" y="196" type="curve" smooth="yes"/>
      <point x="425" y="134" type="line"/>
    </contour>
  </outline>
</glyph>
